<svg xmlns="http://www.w3.org/2000/svg" width="39.363" height="39.363" viewBox="0 0 39.363 39.363">
  <g id="brush" transform="translate(0 0)">
    <g id="Сгруппировать_1455" data-name="Сгруппировать 1455" transform="translate(0 24.331)">
      <g id="Сгруппировать_1454" data-name="Сгруппировать 1454">
        <path id="Контур_6065" data-name="Контур 6065" d="M13.872,318.486a7.056,7.056,0,0,0-7.678-1.46,7.061,7.061,0,0,0-4.139,6.357,14.877,14.877,0,0,1-1.05,6.311L0,331.316l1.9.136c.466.034.955.051,1.458.051,3.705,0,8.225-.93,10.665-3.171C16.425,326.1,16.7,321.316,13.872,318.486Z" transform="translate(0 -316.471)" fill="#f53c6f"/>
      </g>
    </g>
    <g id="Сгруппировать_1457" data-name="Сгруппировать 1457" transform="translate(11.628 18.806)">
      <g id="Сгруппировать_1456" data-name="Сгруппировать 1456">
        <path id="Контур_6066" data-name="Контур 6066" d="M158.4,247.259a13.505,13.505,0,0,0-3.747-2.655c-1.166,1.2-2.3,2.422-3.4,3.636a8.813,8.813,0,0,1,3.876,2.275,9.067,9.067,0,0,1,2.32,3.986c1.2-1.087,2.408-2.207,3.62-3.374A12.253,12.253,0,0,0,158.4,247.259Z" transform="translate(-151.252 -244.604)" fill="#f53c6f"/>
      </g>
    </g>
    <g id="Сгруппировать_1459" data-name="Сгруппировать 1459" transform="translate(16.708 0)">
      <g id="Сгруппировать_1458" data-name="Сгруппировать 1458" transform="translate(0 0)">
        <path id="Контур_6067" data-name="Контур 6067" d="M239.465.513c-.864-.863-2.284-1.267-9.19,4.1-4.108,3.2-8.359,7.87-12.831,12.342l-.091.091,0,0-.026.026a15.881,15.881,0,0,1,3.691,2.743,14.482,14.482,0,0,1,2.8,3.828l.032-.031,0-.008.129-.129c4.47-4.47,8.2-9.666,11.392-13.775C240.727,2.8,240.332,1.379,239.465.513Z" transform="translate(-217.324 0)" fill="#f53c6f"/>
      </g>
    </g>
  </g>
</svg>
