<svg xmlns="http://www.w3.org/2000/svg" width="100" height="100" viewBox="0 0 100 100"><defs><style>.a{fill:#18b587;}.b{fill:#0aa06e;}.c{fill:#fff;}</style></defs><circle class="a" cx="50" cy="50" r="50" transform="translate(0 0)"/><path class="b" d="M188.8,194.587l25.71,25.71a49.967,49.967,0,0,0,37.066-48.265v-1.42L231.387,152Z" transform="translate(-151.576 -122.032)"/><g transform="translate(16.798 24.685)"><path class="c" d="M119.664,221.445a5.905,5.905,0,0,1,0,8.2l-4.574,4.574a5.905,5.905,0,0,1-8.2,0L86.856,214.032a5.905,5.905,0,0,1,0-8.2l4.574-4.574a5.905,5.905,0,0,1,8.2,0Z" transform="translate(-85.2 -184.931)"/><path class="c" d="M200.756,126.856a5.905,5.905,0,0,1,8.2,0l4.574,4.574a5.905,5.905,0,0,1,0,8.2l-34.7,34.543a5.905,5.905,0,0,1-8.2,0l-4.574-4.574a5.905,5.905,0,0,1,0-8.2Z" transform="translate(-148.785 -125.2)"/></g></svg>