<svg xmlns="http://www.w3.org/2000/svg" xmlns:xlink="http://www.w3.org/1999/xlink" width="334.42" height="470.69" viewBox="0 0 334.42 470.69"><defs><style>.a{opacity:0.56;fill:url(#a);}.b{fill:url(#b);}.c{fill:url(#c);}.d{fill:#18b587;}.e{fill:#8ae9cd;}.f{fill:#ffe600;}.g{fill:#f53c6f;}</style><linearGradient id="a" x1="0.144" y1="0.192" x2="1.027" y2="1.301" gradientUnits="objectBoundingBox"><stop offset="0" stop-color="#ffe600"/><stop offset="0.129" stop-color="#ffeb91" stop-opacity="0.753"/><stop offset="0.251" stop-color="#fff0ae" stop-opacity="0.553"/><stop offset="0.373" stop-color="#fff5c7" stop-opacity="0.38"/><stop offset="0.495" stop-color="#fff8db" stop-opacity="0.243"/><stop offset="0.618" stop-color="#fffbeb" stop-opacity="0.137"/><stop offset="0.743" stop-color="#fffdf6" stop-opacity="0.059"/><stop offset="0.869" stop-color="#fffefc" stop-opacity="0.016"/><stop offset="1" stop-color="#fff" stop-opacity="0"/></linearGradient><linearGradient id="b" x1="0.616" y1="0.592" x2="0.97" y2="1.262" gradientUnits="objectBoundingBox"><stop offset="0" stop-color="#3e3f3f"/><stop offset="0.536" stop-color="#808182"/><stop offset="1" stop-color="#bdbfc0"/></linearGradient><linearGradient id="c" x1="0.282" y1="0.032" x2="0.862" y2="1.277" gradientUnits="objectBoundingBox"><stop offset="0" stop-color="#e0e1e1"/><stop offset="0.2" stop-color="#d2d3d3"/><stop offset="0.576" stop-color="#adb0b0"/><stop offset="1" stop-color="#7d8283"/></linearGradient></defs><g transform="translate(-811.208 -291.425)"><path class="a" d="M354.108,181.526l48.863,288.26s55.445,14.841,119.044-33.041,63.6-104.467,63.6-104.467l-182.6-170.806Z" transform="matrix(0.921, 0.391, -0.391, 0.921, 669.659, 98.856)"/><path class="b" d="M345.115,169.559c-5.426,5.152-8.1,10.223-6.35,14.528a51.22,51.22,0,1,0,94.866-38.655C426.916,128.953,365.886,149.839,345.115,169.559Z" transform="matrix(0.921, 0.391, -0.391, 0.921, 660.69, 62.591)"/><path class="c" d="M474.019,147.432c-3.948-9.688-17.833-14.106-36.346-13.184a51.149,51.149,0,0,1,8.995,14.528c1.755,4.305-.924,9.376-6.348,14.528-20.771,19.72-81.8,40.606-88.516,24.124a51.06,51.06,0,0,1-3.749-17.261c-14.727,12.606-22.085,25.954-18.019,35.933,6.971,17.1,44.852,17.839,84.611,1.637S480.99,164.537,474.019,147.432Z" transform="matrix(0.921, 0.391, -0.391, 0.921, 649.763, 48.151)"/><path class="d" d="M428.339,174.14c5.423-5.152,8.1-10.223,6.348-14.528a51.218,51.218,0,1,0-94.864,38.652C346.539,214.746,407.569,193.86,428.339,174.14Z" transform="matrix(0.921, 0.391, -0.391, 0.921, 665.023, 42.857)"/><path class="e" d="M367.928,131.494a51.192,51.192,0,0,0-28.1,66.759c.921,2.26,3.322,4.73,7.832,5.488a52.759,52.759,0,0,0,14.229-.068s-11.3-20.145-3.276-39.065,25.83-23.834,35.378-36.615C383.063,126.874,379.137,126.928,367.928,131.494Z" transform="matrix(0.921, 0.391, -0.391, 0.921, 665.02, 42.867)"/><path class="f" d="M341.59,161.363a4.82,4.82,0,1,1-5.025-4.606A4.819,4.819,0,0,1,341.59,161.363Z" transform="matrix(0.921, 0.391, -0.391, 0.921, 639.55, 85.287)"/><path class="g" d="M351.237,164.539a4.822,4.822,0,1,1-5.025-4.609A4.819,4.819,0,0,1,351.237,164.539Z" transform="matrix(0.921, 0.391, -0.391, 0.921, 652.438, 96.573)"/><path class="g" d="M380.588,153.054a4.82,4.82,0,1,1-5.025-4.609A4.819,4.819,0,0,1,380.588,153.054Z" transform="matrix(0.921, 0.391, -0.391, 0.921, 705.603, 98.088)"/><path class="f" d="M366.571,160.28a4.82,4.82,0,1,1-5.025-4.606A4.819,4.819,0,0,1,366.571,160.28Z" transform="matrix(0.921, 0.391, -0.391, 0.921, 679.064, 100.074)"/><path class="f" d="M386.7,142.557a4.82,4.82,0,1,1-5.025-4.606A4.819,4.819,0,0,1,386.7,142.557Z" transform="matrix(0.921, 0.391, -0.391, 0.921, 722.016, 85.818)"/></g></svg>