<svg xmlns="http://www.w3.org/2000/svg" xmlns:xlink="http://www.w3.org/1999/xlink" width="154.755" height="171.552" viewBox="0 0 154.755 171.552"><defs><style>.a{fill:#312c2b;}.b{fill:#c22c55;}.c{fill:url(#a);}.d{fill:url(#c);}.e{fill:url(#d);}.f{fill:url(#e);}.g{fill:#e13161;}.h{fill:#ffd6f0;}.i{fill:#545454;}</style><linearGradient id="a" y1="0.5" x2="1" y2="0.5" gradientUnits="objectBoundingBox"><stop offset="0" stop-color="#e5e5e5"/><stop offset="0.339" stop-color="#fdfdfd"/><stop offset="0.644" stop-color="#fff"/><stop offset="1" stop-color="#dedede"/></linearGradient><linearGradient id="c" x1="0.108" y1="0.439" x2="0.946" y2="0.603" gradientUnits="objectBoundingBox"><stop offset="0" stop-color="#f53c6f"/><stop offset="0.198" stop-color="#ff7097"/><stop offset="0.619" stop-color="#ff7da1"/><stop offset="1" stop-color="#f53c6f"/></linearGradient><linearGradient id="d" y1="0.5" x2="1" y2="0.5" gradientUnits="objectBoundingBox"><stop offset="0" stop-color="#f53c6f"/><stop offset="0.417" stop-color="#ff88a9"/><stop offset="0.666" stop-color="#ff6d95"/><stop offset="1" stop-color="#f53c6f"/></linearGradient><linearGradient id="e" y1="0.5" x2="1" y2="0.5" gradientUnits="objectBoundingBox"><stop offset="0" stop-color="#f53c6f"/><stop offset="0.344" stop-color="#ff84a6"/><stop offset="0.552" stop-color="#ff789d"/><stop offset="1" stop-color="#f53c6f"/></linearGradient></defs><g transform="translate(-139.406 -144.461)"><g transform="translate(139.406 144.461)"><g transform="translate(0 143.529)"><path d="M294.073,382.814a15.979,15.979,0,0,1,.043,2.837,2.008,2.008,0,0,1-2.085,1.866H142.081s-1.811,0-2.219-.505c-.8-.989-.307-4.268-.307-4.268-.1.72.763,1.613,2.606,1.688H291.487c1.183,0,2.536-.833,2.579-1.617Z" transform="translate(-139.406 -359.495)"/><path class="a" d="M294.042,372.465a.645.645,0,0,1,.085.381c-.043.785-1.4,1.617-2.579,1.617H142.222c-1.844-.075-2.7-.967-2.606-1.687a.849.849,0,0,1,.113-.311c.446-.742,14.979-20.932,14.979-20.932,1.816-1.823,6.158-2.005,7.539-2.005H271.518c1.376,0,6.03.081,7.535,2.005C279.053,351.532,293.553,371.595,294.042,372.465Z" transform="translate(-139.467 -349.527)"/></g><g transform="translate(21.829)"><path class="b" d="M282.708,360.343c.058,3.87-25.1,12.846-56.054,12.846s-55.818-8.976-56.054-12.846c-.1-1.607,1.134-3.138,3.455-4.556l.054.015c-.774,2.784-1.2,4.332-1.2,4.332s14.425,11,53.507,11,53.038-11,53.038-11-.478-1.7-1.337-4.757l.145-.037C281.1,356.877,282.681,358.57,282.708,360.343Z" transform="translate(-170.594 -207.742)"/><path class="c" d="M266.331,227.479l-.108.032s-10.646,3.564-28.854,3.311a129.823,129.823,0,0,1-28.618-3.311l-.087-.027c2.376-8.4,4.713-16.606,6.891-24.184l.29.085a115.7,115.7,0,0,0,21.938,1.656,121.617,121.617,0,0,0,21.347-2.365l.1-.027C261.462,210.421,263.875,218.853,266.331,227.479Z" transform="translate(-182.018 -161.923)"/><path class="c" d="M275.771,307.914l-.171.048s-17.736,6.626-47.3,6.626c-28.146,0-43.285-5.681-43.285-5.681l-.269-.074c2.7-9.652,5.9-21.11,9.275-33.1l.216.059a184.893,184.893,0,0,0,35.717,3.311,173.9,173.9,0,0,0,36.422-3.784l.166-.048C269.88,287.056,273.068,298.338,275.771,307.914Z" transform="translate(-174.841 -183.716)"/><path class="d" d="M262.18,185.408l-.1.027a121.617,121.617,0,0,1-21.347,2.365,115.7,115.7,0,0,1-21.938-1.656l-.29-.085c6.459-22.518,11.459-39.815,12.008-40.051,0,0,3.663-.407,10.279-.778a48.873,48.873,0,0,1,9.642.778C250.911,146.362,255.726,162.987,262.18,185.408Z" transform="translate(-184.973 -144.681)"/><path class="e" d="M270.519,264.127l-.166.048a173.9,173.9,0,0,1-36.422,3.784,184.893,184.893,0,0,1-35.717-3.311l-.216-.059c2.446-8.706,4.977-17.688,7.465-26.46l.087.027a129.823,129.823,0,0,0,28.618,3.311c18.208.253,28.854-3.311,28.854-3.311l.108-.032C265.591,246.75,268.1,255.571,270.519,264.127Z" transform="translate(-178.818 -172.568)"/><path class="f" d="M279.1,345.345c.859,3.053,1.337,4.757,1.337,4.757s-13.956,11-53.038,11-53.507-11-53.507-11,.43-1.548,1.2-4.332c1.295-4.665,3.563-12.807,6.39-22.943l.269.074s15.139,5.681,43.285,5.681c29.564,0,47.3-6.626,47.3-6.626l.171-.048C275.4,332.167,277.739,340.477,279.1,345.345Z" transform="translate(-171.585 -197.71)"/><path class="g" d="M255.586,145.787c0,.732-4.461,1.326-9.961,1.326s-9.96-.594-9.96-1.326,4.459-1.326,9.96-1.326S255.586,145.055,255.586,145.787Z" transform="translate(-190.121 -144.461)"/></g></g><path d="M229.526,297.748a2.44,2.44,0,1,0-2.44,2.44A2.44,2.44,0,0,0,229.526,297.748Z" transform="translate(-25.579 -45.266)"/><path d="M271.2,297.748a2.441,2.441,0,1,0-2.441,2.44A2.441,2.441,0,0,0,271.2,297.748Z" transform="translate(-38.085 -45.266)"/><circle class="h" cx="5.546" cy="5.546" r="5.546" transform="translate(191.968 256.03)"/><path class="h" d="M281.692,309.726a5.546,5.546,0,1,0-5.546,5.546A5.546,5.546,0,0,0,281.692,309.726Z" transform="translate(-39.369 -47.929)"/><path class="i" d="M227.585,289.62c-.263-.89-1.592-.729-2.418-.223-.9.552-1.587,1.711-1.181,2.149C224.5,292.1,227.946,290.844,227.585,289.62Z" transform="translate(-25.345 -43.369)"/><path class="i" d="M268.819,289.382c.262-.89,1.592-.729,2.417-.222.9.552,1.587,1.711,1.181,2.148C271.9,291.862,268.457,290.605,268.819,289.382Z" transform="translate(-38.827 -43.298)"/><path d="M250.864,303.488c0,1.149-.677,2.079-1.513,2.079s-1.513-.931-1.513-2.079.678-2.08,1.513-2.08S250.864,302.339,250.864,303.488Z" transform="translate(-32.539 -47.097)"/></g></svg>