<svg xmlns="http://www.w3.org/2000/svg" xmlns:xlink="http://www.w3.org/1999/xlink" width="505.847" height="373.822" viewBox="0 0 505.847 373.822"><defs><style>.a,.e,.f,.m,.q,.r{mix-blend-mode:multiply;}.a,.e,.f,.i,.k,.l,.m,.n,.p,.q,.r{isolation:isolate;}.a{fill:url(#a);}.b{fill:#c9c9c9;}.c,.o{fill:#fff;}.d{fill:#7c7b7a;}.e,.l,.q{opacity:0.5;}.f,.q{fill:#afafaf;}.g{fill:#545454;}.h,.i,.m,.n{fill:#18b587;}.i{opacity:0.47;}.i,.k,.l,.n,.p{mix-blend-mode:screen;}.j{fill:#157559;}.k,.l{fill:#119a72;}.m,.n,.p{opacity:0.6;}.o{opacity:0.4;}.p{fill:#21cda5;}.s{fill:#929292;}</style><linearGradient id="a" x1="-0.289" y1="1.566" x2="0.958" y2="-0.113" gradientUnits="objectBoundingBox"><stop offset="0" stop-color="#fff"/><stop offset="0.51" stop-color="#fff"/><stop offset="0.614" stop-color="#c9c9c9"/><stop offset="0.807" stop-color="#c9c9c9"/><stop offset="0.912" stop-color="#c9c9c9"/><stop offset="1" stop-color="#c9c9c9"/></linearGradient></defs><g transform="translate(-12.904 -13.212)"><path class="a" d="M465.6,127.261c11.918,2.507,61.252-2.347,51.369,20.081-8.493,19.273-112.081,35.025-112.081,35.025,42.03,1.4-25.078,18.8,14.151,44.02s-50.578,14.823-30.964,30.234-5.6,37.827-65.848,46.234c-80.478,11.229,54.64,67.249-60.242,79.857s-225.564-2.8-246.579-40.629,98.071-47.635,70.051-65.848S49.03,241.21,165.314,214.591c72.949-16.807,31.779-66.154,92.339-73.919C329.569,131.451,358.241,104.685,465.6,127.261Z"/><path d="M513.291,99.227c-.065-.328-.478-.118-.451.15.878,9.071.08,17.9-3.882,26.191-.343.721.655,1.017,1.041.437C515.3,118.018,515.082,108.305,513.291,99.227Z"/><path d="M516.306,96.366c-.2-.381-.708.017-.572.36,2.358,5.8.855,11.616.543,17.591-.049.954,1.163.942,1.408.126C519.394,108.775,519.128,101.63,516.306,96.366Z"/><path d="M340.814,111.782c4.251,32.625,25.469,56.754,47.39,53.9a26.993,26.993,0,0,0,4.151-.876l-.019.16s84.308-15.5,84.083-16.007l0,0c20.691-4.41,33.94-32.333,29.832-63.868-4.253-32.624-25.469-56.753-47.39-53.9-.06.009-.118.02-.177.03v0L371.234,47.745l.007.061C350.212,51.8,336.665,79.946,340.814,111.782Z"/><path class="b" d="M400.893,160.654c14.421-10.082,22.665-33.438,19.307-59.216-3.661-28.078-19.891-49.851-38.321-53.553l77.138-14.039.184-.029c20.987-2.735,41.3,20.368,45.371,51.6s-9.646,58.766-30.634,61.5c-.078.007-.156.012-.234.018v.051Z"/><path class="c" d="M342.519,111.676c-4.07-31.235,9.644-58.772,30.632-61.508s41.3,20.371,45.371,51.6-9.645,58.773-30.631,61.507S346.591,142.907,342.519,111.676Z"/><path d="M343.329,111.458c3.981,30.556,23.855,53.157,44.387,50.481s33.95-29.613,29.968-60.172S393.83,48.608,373.3,51.283,339.348,80.9,343.329,111.458Z"/><path class="d" d="M344.926,111.353c-3.812-29.254,9.035-55.046,28.69-57.6s38.686,19.073,42.5,48.329-9.032,55.049-28.692,57.609S348.739,140.608,344.926,111.353Z"/><g class="e"><path class="d" d="M416.113,102.078c-2.833-21.743-14.071-39.266-27.725-45.787-9.11,10.618-13.817,28.366-11.309,47.615,2.834,21.743,14.073,39.27,27.727,45.79C413.918,139.076,418.623,121.328,416.113,102.078Z"/></g><path d="M448.457,124.732a5.057,5.057,0,0,0,6.365-.075,4.443,4.443,0,0,0,2.358-2,6.217,6.217,0,0,0-.826-6.81,5.4,5.4,0,0,0-1.792-1.241,4.185,4.185,0,0,0-3.96-.218,5.4,5.4,0,0,0-3.76,3.5C446.123,120.065,446.6,123.208,448.457,124.732Z"/><path class="d" d="M449.337,116.9c1.58-1.413,4.549-2.01,6.065-.256a4.905,4.905,0,0,1,.389,4.113,6.273,6.273,0,0,1-1.483,2.494,8.012,8.012,0,0,1-4.433.621.274.274,0,0,0-.116,0A4.721,4.721,0,0,1,449.337,116.9Z"/><path d="M381.435,48.388a11.919,11.919,0,0,0-3.634.64,86.963,86.963,0,0,1,7.06-12.084c7.735-10.979,17.491-18.53,28.215-21.833a41.191,41.191,0,0,1,42.239,10.824c13.327,13.988,17.2,34.861,11.2,60.361a143.968,143.968,0,0,1-13.077,34.373,1.8,1.8,0,0,1-3.132-1.773c.331-.582,32.634-58.758,2.4-90.479a37.626,37.626,0,0,0-38.574-9.87C401.2,22.538,390.293,32.9,382.262,48.322A5.665,5.665,0,0,0,381.435,48.388Z"/><path class="f" d="M416.109,102.051,345.4,114.47c4.712,27.658,23.072,47.686,42.022,45.217,19.66-2.56,32.506-28.353,28.692-57.609Z"/><path class="g" d="M391.21,195.86c-.482-3.408-5.234-4.529-7.921-5.1a31.9,31.9,0,0,0-10.4-.4,16.862,16.862,0,0,0-8.934,1.812c-2.339,1.313-6.473,4.318-5.845,7.594,1.149,5.972,11.35,6.178,16.037,6.332C380.2,206.294,392.393,204.258,391.21,195.86Z"/><path class="h" d="M387.565,199.709c-1.245,1.475-3.664,1.958-5.444,2.419a29.9,29.9,0,0,1-7.646.935,29.339,29.339,0,0,1-11.718-2.254c-4.928-2.294,2.137-6.24,4.386-7.172.2-.083.417-.151.627-.228,5.949-.018,11.635-.768,17.531,1.084C387.339,195.136,390,196.827,387.565,199.709Z"/><path class="i" d="M384.408,198.252c-.964,1.142-2.839,1.516-4.216,1.873a23.16,23.16,0,0,1-5.923.724,22.715,22.715,0,0,1-9.077-1.744c-3.817-1.778,1.656-4.833,3.4-5.557.158-.065.324-.116.485-.175,4.609-.016,9.013-.6,13.579.838C384.233,194.709,386.3,196.021,384.408,198.252Z"/><path class="g" d="M393.031,230.576c-4.314-1.966-9.563-.934-13.694.946a1.022,1.022,0,0,0-.456.576,9.992,9.992,0,0,0-1.046.767,5.375,5.375,0,0,0-1.521,6.076c1.031,2.166,4.112,2.728,6.2,3.011,4.906.67,12.222.67,14.671-4.515C398.641,234.355,395.438,231.672,393.031,230.576Z"/><path class="h" d="M393.609,238.189c-2.485,1.909-7,1.667-9.935,1.531a9.986,9.986,0,0,1-4.945-1.355c-2.3-1.483.083-4.192,1.568-5.1a10.548,10.548,0,0,1,1.8-.85,23.736,23.736,0,0,1,6.623-.416C391.311,232.268,397.567,235.155,393.609,238.189Z"/><path class="g" d="M89.162,355.649c15.956,12.133,38.255,15.98,57.831,16.785,14.388.59,28.776-.879,43-2.941,13.062-1.9,26.285-3.043,39.254-5.525,16.718-3.2,46.378-10.152,45.143-32.567-.512-9.322-5.416-16.277-9.055-24.519-1.879-4.257-2.582-8.91,2.515-11.158a44.446,44.446,0,0,1,7.6-2.43c24.42-5.861,50.639-7.078,73.477-18.413,8.717-4.329,18.039-10.893,19.274-21.351,1.192-10.048-4.361-19.249-11.352-26.933-1.823-1.242-3.733-2.388-5.39-3.724-3.56-2.869-7.271-5.489-11.03-8.09-6.273-4.341-13.32-8.639-17.828-14.926-4.251-5.929-.732-8.958,4.177-10.816,4.451-2.74,10.541-3.711,14.987-5.606,4.5-1.92,9.048-3.626,13.268-6.1a35.217,35.217,0,0,0,4.354-3.757c3.58-3.708,6.649-7.536,10.7-10.8a22.039,22.039,0,0,1,13.44-4.713,22.889,22.889,0,0,1,6.3.723c1.055.254,2.308.651,3.568.9.139,0,.274-.013.41-.015.419-.1.834-.225,1.249-.358a45.463,45.463,0,0,0,4.715-2.913c-.135,0-.271-.006-.408-.013,6.747-3.717,10.317-10.328,13.517-17.476,1.822-4.071,2.278-8.1,2.814-12.466.54-4.422,1.776-8.727,1.412-13.142h.008l-.341-2.607c-24.071,1.2-48.147,6.657-71.579,11.9-12.678,2.835-25.333,5.788-38.007,8.64-9.17,2.061-18.546,3.891-27.479,6.851-9.173,3.042-19.217,7.071-25.815,14.46-7.073,7.916-8.7,16.8-7.593,27.13.263,2.453.652,4.988.983,7.544a87.958,87.958,0,0,1,1.211,13.055c.06,6.1-3.727,10.773-7.977,14.792-5.087,4.807-11.979,6.9-18.587,8.664-8.586,2.3-17.465,3.349-26.179,5.024a.561.561,0,0,1-.415-.074c-13.271,2.62-26.6,4.925-39.875,7.533-11.586,2.274-24.025,4.49-34.6,9.969-7.681,3.978-16.229,9.83-15.693,19.547A38.127,38.127,0,0,0,108.2,277.69c1.856,4.676,4.964,9.938,4.423,15.122-1.1,10.5-12.74,15.443-20.011,21.308-6.567,5.3-13.9,11.755-15.084,20.6C76.409,343.039,82.96,350.934,89.162,355.649Z"/><path class="j" d="M82.152,330.578c4.647-8.763,13.271-14.315,21.081-19.962,7.028-5.08,13.4-11.3,12.326-20.657-1.012-8.769-9.64-17.861-6.8-26.991,3.436-11.04,18.926-15.956,28.854-18.662,23.9-6.508,48.648-9.643,72.853-14.809,14.256-3.042,33.923-7.892,39.363-23.5,3.38-9.7.031-19.632-.434-29.491-.58-12.307,5.375-21.706,16.188-27.427,9.279-4.912,19.6-7.543,29.76-9.943,12.771-3.011,25.582-5.858,38.376-8.767,27.3-6.21,54.8-11.2,82.2-16.818-.319,1.792-.133,4.108-.509,5.633a45.019,45.019,0,0,0-.988,5.249c-.639,5.188-1.171,10.036-3.44,14.812-1.59,3.356-3.132,7.161-5.5,10.059-2.476,3.026-5.979,5.162-9.466,6.9-11.632-.726-23.812-1.886-32.069,7.639-8.956,10.331-21.1,13.963-33.369,18.648-4.993,1.906-13.3,5.255-12.347,11.994,1.239,8.785,12.883,14.94,19.179,19.914,8.854,7,18.487,14.757,23.7,25.018,2.4,4.734,4.053,10.21,2.4,15.47-3.307,10.5-15.443,15.951-24.928,19.453-12.968,4.787-26.59,7.567-40.142,10.118-5.9,1.109-11.8,2.193-17.679,3.431-4.768,1.008-10.4,1.812-14.724,4.173-6.029,3.292-6.692,8.484-4.6,14.19,5.323,8.192,11.309,16.956,10.283,27.191-.489,4.874-3.421,7.962-6.629,11.359-3.159,3.34-6.162,6.6-10.267,8.836-9.9,5.377-21.3,7.072-32.4,7.717-5.923.347-11.788,1.232-17.707,1.555-2.87.158-5.739-.051-8.61.055-23.335,3.15-46.457,6.6-70.1,2.952-10.218-1.576-20.681-3.968-29.752-9.117C87.542,351.853,76.334,341.549,82.152,330.578Z"/><path class="k" d="M412.344,133.43c-35.057,8.04-69.891,16.547-104.453,26.051-19.547,5.374-39.213,10.445-58.923,15.393.145,1.26.317,2.524.5,3.789q46.327-11.437,92.9-22.229,33.238-7.69,66.664-14.765C410,138.874,411.184,136.155,412.344,133.43Z"/><path class="k" d="M337.1,214.993Q222.747,241.97,109.837,272.7c1.828,5.374,4.4,10.688,5.181,15.886,78.865-20.494,157.444-41.729,236.165-62.6C346.61,222.187,341.77,218.7,337.1,214.993Z"/><path class="k" d="M135.934,368.142c22.07,1.463,44.157.087,66.184-1.876q28.816-7.4,57.584-14.927c5.82-6.14,12.143-13.069,12.892-20.9Q203.994,348.62,135.934,368.142Z"/><path class="l" d="M415.363,125.279q-65.55,13.765-130.949,28-17.062,3.717-34.117,7.456c-1.825,3.2-1.877,7.454-1.607,11.192q80.9-18.965,162.514-35.812A92.261,92.261,0,0,0,415.363,125.279Z"/><path class="l" d="M320.4,195.329a8.644,8.644,0,0,1,1.528-6.775q-21.825,4.881-43.6,9.914c-9.126,2.111-18.237,4.27-27.349,6.42-3.5,17.428-30.254,22.225-44.686,24.972-13.083,2.49-26,5.628-39.058,8.194-15.1,2.969-31.665,2.453-45.353,9.92-7.8,3.288-10.1,7.856-13.38,10.395,12.1-3.361,33.053-8.428,45.171-11.629,56.751-14.994,113.585-29.865,170.895-43.349A17.653,17.653,0,0,1,320.4,195.329Z"/><path class="l" d="M262.963,302.909c.85-5.015,5.721-8.048,10.035-9.914,12.021-5.2,25.556-6.391,38.271-9.109,13.738-2.935,28.187-6.414,40.234-13.927,5.557-3.467,10.938-7.95,13.775-14.005a15.645,15.645,0,0,0,.643-12.269c-96.572,24.506-194.5,49.8-267.731,68.3a103.061,103.061,0,0,0-11.85,8.94C81.626,325.2,75.4,331.576,77.7,338.589c2.194,6.715,8.173,12.042,13.678,16.142,1.727,1.289,3.511,2.536,5.341,3.719,43.519-12.367,103.754-29.512,168.2-47.793A11.039,11.039,0,0,1,262.963,302.909Z"/><path class="m" d="M82.152,330.578c4.647-8.763,13.271-14.315,21.081-19.962,7.028-5.08,13.4-11.3,12.326-20.657-1.012-8.769-9.64-17.861-6.8-26.991,3.436-11.04,18.926-15.956,28.854-18.662,23.9-6.508,48.648-9.643,72.853-14.809,14.256-3.042,33.923-7.892,39.363-23.5,3.38-9.7.031-19.632-.434-29.491-.58-12.307,5.375-21.706,16.188-27.427,9.279-4.912,19.6-7.543,29.76-9.943,12.771-3.011,25.582-5.858,38.376-8.767,27.3-6.21,54.8-11.2,82.2-16.818-.319,1.792-.133,4.108-.509,5.633a45.019,45.019,0,0,0-.988,5.249c-.639,5.188-1.171,10.036-3.44,14.812-1.59,3.356-3.132,7.161-5.5,10.059-2.476,3.026-5.979,5.162-9.466,6.9-11.632-.726-23.812-1.886-32.069,7.639-8.956,10.331-21.1,13.963-33.369,18.648-4.993,1.906-13.3,5.255-12.347,11.994,1.239,8.785,12.883,14.94,19.179,19.914,8.854,7,18.487,14.757,23.7,25.018,2.4,4.734,4.053,10.21,2.4,15.47-3.307,10.5-15.443,15.951-24.928,19.453-12.968,4.787-26.59,7.567-40.142,10.118-5.9,1.109-11.8,2.193-17.679,3.431-4.768,1.008-10.4,1.812-14.724,4.173-6.029,3.292-6.692,8.484-4.6,14.19,5.323,8.192,11.309,16.956,10.283,27.191-.489,4.874-3.421,7.962-6.629,11.359-3.159,3.34-6.162,6.6-10.267,8.836-9.9,5.377-21.3,7.072-32.4,7.717-5.923.347-11.788,1.232-17.707,1.555-2.87.158-5.739-.051-8.61.055-23.335,3.15-46.457,6.6-70.1,2.952-10.218-1.576-20.681-3.968-29.752-9.117C87.542,351.853,76.334,341.549,82.152,330.578Z" transform="translate(2 -7)"/><path class="n" d="M85.91,325.887c4.647-8.764,13.271-14.316,21.081-19.962,7.028-5.08,13.405-11.3,12.326-20.657-1.012-8.77-9.64-17.862-6.8-26.992,3.436-11.04,18.925-15.956,28.854-18.662,23.9-6.508,48.647-9.642,72.853-14.808,14.256-3.042,33.922-7.893,39.362-23.5,3.382-9.7.033-19.632-.432-29.491-.58-12.307,5.374-21.707,16.188-27.427,9.278-4.912,19.6-7.543,29.757-9.945,12.774-3.009,25.583-5.856,38.377-8.765,27.3-6.21,54.8-11.2,82.2-16.82-.32,1.793-.134,4.11-.509,5.633a44.9,44.9,0,0,0-.987,5.25c-.641,5.189-1.172,10.036-3.44,14.813-1.593,3.355-3.134,7.16-5.506,10.058-2.476,3.027-5.979,5.162-9.465,6.9-11.632-.727-23.812-1.887-32.07,7.638-8.956,10.332-21.1,13.963-33.367,18.648-4.994,1.906-13.3,5.256-12.347,12,1.238,8.784,12.883,14.939,19.177,19.913,8.855,7,18.486,14.758,23.7,25.019,2.4,4.733,4.053,10.21,2.4,15.469-3.309,10.5-15.445,15.952-24.929,19.453-12.97,4.788-26.589,7.568-40.142,10.119-5.9,1.108-11.8,2.192-17.679,3.43-4.767,1.008-10.4,1.813-14.725,4.173-6.028,3.292-6.693,8.485-4.6,14.191,5.322,8.192,11.309,16.956,10.283,27.19-.49,4.874-3.421,7.962-6.631,11.359-3.16,3.34-6.162,6.605-10.266,8.836-9.9,5.377-21.3,7.073-32.4,7.717-5.923.348-11.789,1.233-17.707,1.556-2.87.157-5.739-.051-8.61.055-23.335,3.15-46.457,6.6-70.1,2.952-10.218-1.576-20.681-3.968-29.753-9.118C91.3,347.161,80.092,336.857,85.91,325.887Z" transform="translate(-1.758 0.986)"/><path class="c" d="M151.205,294.519c0,1.57-3.4,2.84-7.585,2.84s-7.585-1.27-7.585-2.84,3.4-2.847,7.585-2.847S151.205,292.943,151.205,294.519Z"/><path class="c" d="M142.988,303.681c0,1.049-1.84,1.895-4.108,1.895s-4.108-.846-4.108-1.895,1.838-1.9,4.108-1.9S142.988,302.633,142.988,303.681Z"/><path class="o" d="M225.546,339.009c0,1.57-3.819,2.846-8.532,2.846s-8.534-1.276-8.534-2.846,3.82-2.846,8.534-2.846S225.546,337.438,225.546,339.009Z"/><path class="c" d="M201.527,341.223c0,.694-1.274,1.262-2.845,1.262s-2.842-.568-2.842-1.262,1.271-1.268,2.842-1.268S201.527,340.524,201.527,341.223Z"/><path class="c" d="M301.959,172.562c0,1.221-2.123,2.209-4.74,2.209s-4.742-.988-4.742-2.209,2.124-2.214,4.742-2.214S301.959,171.34,301.959,172.562Z"/><path class="c" d="M278.571,172.245c0,.7-1.7,1.263-3.792,1.263s-3.79-.564-3.79-1.263,1.7-1.266,3.79-1.266S278.571,171.546,278.571,172.245Z"/><path class="o" d="M298.011,246.819c0,1.918-5.378,3.478-12.009,3.478s-12.008-1.56-12.008-3.478,5.374-3.476,12.008-3.476S298.011,244.9,298.011,246.819Z"/><path class="c" d="M309.389,254.09c0,.7-1.413,1.263-3.161,1.263s-3.162-.564-3.162-1.263,1.417-1.267,3.162-1.267S309.389,253.391,309.389,254.09Z"/><path class="p" d="M392.787,235.064a5.519,5.519,0,0,1-2.836,1.26,15.621,15.621,0,0,1-3.984.486,15.238,15.238,0,0,1-6.105-1.173c-2.568-1.2,1.114-3.25,2.285-3.738.107-.043.217-.078.327-.118,3.1-.008,6.061-.4,9.134.566C392.67,232.681,394.057,233.563,392.787,235.064Z"/><path class="f" d="M459.2,33.817l-.184.029L381.879,47.885c6.425,1.291,12.58,4.783,18.031,9.969l82.7-16.408C475.535,35.653,467.422,32.746,459.2,33.817Z"/><path class="f" d="M400.893,160.654l72.811-13.66v-.051c.078-.006.156-.011.234-.018,10.865-1.418,19.772-9.491,25.28-21.272l-84.126,16.69C411.631,150.163,406.791,156.53,400.893,160.654Z"/><path class="q" d="M482.612,41.446l-82.7,16.408a56.824,56.824,0,0,1,8.071,9.694l83.511-16.566A50.848,50.848,0,0,0,482.612,41.446Z"/><path class="q" d="M504.709,86.636,420.4,103.36a86.78,86.78,0,0,1,.424,13.553l84.366-16.736A83.383,83.383,0,0,0,504.709,86.636Z"/><path class="f" d="M389.118,45.808S448.943,42.1,450.6,114.385l2.631.072s5.506-67.677-59.581-69.619Z"/><g class="r"><path class="s" d="M504.572,85.421c-2.073-15.9-8.361-29.691-16.8-39.041,7.742,12.39,13.7,29.247,13.437,43.869-.35,19.966-4.319,40.28-37.127,47.986-34.771,8.166-44.481,6.655-42.03-4.2,11.535-60.094-19.667-80.735-34.907-87.1l-5.264.958c18.43,3.7,34.66,25.475,38.321,53.553,3.358,25.778-4.886,49.134-19.307,59.216l72.811-13.66v-.051c.078-.006.156-.011.234-.018C494.926,144.187,508.641,116.65,504.572,85.421Z"/></g><path class="f" d="M373.616,53.749c-9.952,1.295-18.154,8.554-23.335,19.2l49.011-8.607C391.866,56.647,382.81,52.55,373.616,53.749Z"/><path class="q" d="M399.292,64.338l-49.011,8.607a56.745,56.745,0,0,0-3.995,11.147l60.063-10.547A53.5,53.5,0,0,0,399.292,64.338Z"/></g></svg>