<svg xmlns="http://www.w3.org/2000/svg" width="24" height="24" viewBox="0 0 24 24">
  <g id="Group_1435" data-name="Group 1435" transform="translate(-152 -214)">
    <rect id="Rectangle_3810" data-name="Rectangle 3810" width="24" height="24" rx="12" transform="translate(152 214)" fill="#545454"/>
    <g id="Group_1434" data-name="Group 1434" transform="translate(-399.835 -60.522)">
      <path id="Path_6047" data-name="Path 6047" d="M606.513,397.3a10.436,10.436,0,0,1-3.535-.532,2.982,2.982,0,0,1-1.188-.741.415.415,0,0,1-.147-.308,14.29,14.29,0,0,1,.21-2.491,2.393,2.393,0,0,1,1.517-1.78,9.262,9.262,0,0,1,1.584-.445.324.324,0,0,1,.29.091,2.161,2.161,0,0,0,2.577,0,.3.3,0,0,1,.262-.091,8.632,8.632,0,0,1,1.72.5,2.568,2.568,0,0,1,1.5,2.258c.077.6.059,1.2.112,1.793a.663.663,0,0,1-.255.59,3.99,3.99,0,0,1-1.647.815A11.932,11.932,0,0,1,606.513,397.3Z" transform="translate(-42.556 -104.291)" fill="#fff"/>
      <path id="Path_6048" data-name="Path 6048" d="M640.658,282.989a5.284,5.284,0,0,1,.2-1.335,1.938,1.938,0,0,1,1.5-1.386,3.9,3.9,0,0,1,1.75,0,1.879,1.879,0,0,1,1.509,1.409,4.489,4.489,0,0,1-.207,3.328,2.341,2.341,0,0,1-4.19.26A3.668,3.668,0,0,1,640.658,282.989Z" transform="translate(-79.264)" fill="#fff"/>
      <path id="Path_6049" data-name="Path 6049" d="M588.273,293.12a3.822,3.822,0,0,1,.138-1.091,1.587,1.587,0,0,1,1.286-1.192,3.461,3.461,0,0,1,1.258-.011c.141.023.169.056.114.2a5.176,5.176,0,0,0,.171,4.411c.092.173-.017.2-.122.251a1.8,1.8,0,0,1-2-.321A2.8,2.8,0,0,1,588.273,293.12Z" transform="translate(-29.975 -9.98)" fill="#fff"/>
      <path id="Path_6050" data-name="Path 6050" d="M733.058,293.086a2.768,2.768,0,0,1-.863,2.307,1.754,1.754,0,0,1-1.944.335c-.174-.07-.234-.13-.127-.337a5.16,5.16,0,0,0,.163-4.277c-.076-.214-.037-.27.16-.29a3.422,3.422,0,0,1,1.372.075,1.653,1.653,0,0,1,1.166,1.417A3.946,3.946,0,0,1,733.058,293.086Z" transform="translate(-163.408 -9.995)" fill="#fff"/>
      <path id="Path_6051" data-name="Path 6051" d="M560.367,381.24a3.19,3.19,0,0,0-1.794,2.478,9.574,9.574,0,0,0-.146,1.552c0,.1-.007.2-.006.295,0,.12-.057.156-.168.13a3.71,3.71,0,0,1-1.622-.725.557.557,0,0,1-.212-.487,10.57,10.57,0,0,1,.174-1.9,1.909,1.909,0,0,1,1.126-1.382,5.97,5.97,0,0,1,1.351-.4.26.26,0,0,1,.248.042A1.877,1.877,0,0,0,560.367,381.24Z" transform="translate(0 -94.687)" fill="#fff"/>
      <path id="Path_6052" data-name="Path 6052" d="M745.324,381.16a1.81,1.81,0,0,0,1.1-.4c.056-.052.131-.032.2-.02a5.828,5.828,0,0,1,1.433.427,2.143,2.143,0,0,1,1.164,1.943c.043.449.043.9.071,1.353a.462.462,0,0,1-.155.392,3.514,3.514,0,0,1-1.688.779c-.182.042-.156-.1-.157-.2a10.611,10.611,0,0,0-.167-1.844,3.093,3.093,0,0,0-1.717-2.353A.5.5,0,0,1,745.324,381.16Z" transform="translate(-177.762 -94.623)" fill="#fff"/>
    </g>
  </g>
</svg>
