<svg xmlns="http://www.w3.org/2000/svg" xmlns:xlink="http://www.w3.org/1999/xlink" width="43" height="43" viewBox="0 0 43 43"><defs><style>.a{fill:url(#a);}</style><linearGradient id="a" x1="0.153" x2="0.74" y2="0.718" gradientUnits="objectBoundingBox"><stop offset="0" stop-color="#ff970e"/><stop offset="1" stop-color="#d2008d"/></linearGradient></defs><path class="a" d="M36.7,0H6.3A6.306,6.306,0,0,0,0,6.3V36.7A6.306,6.306,0,0,0,6.3,43H36.7A6.306,6.306,0,0,0,43,36.7V6.3A6.306,6.306,0,0,0,36.7,0ZM21.584,32.754A11.338,11.338,0,1,1,32.922,21.416,11.35,11.35,0,0,1,21.584,32.754ZM34.182,12.6a3.779,3.779,0,1,1,3.779-3.779A3.784,3.784,0,0,1,34.182,12.6Zm0,0"/><path class="a" d="M393.26,90a1.26,1.26,0,1,0,1.26,1.26A1.26,1.26,0,0,0,393.26,90Zm0,0" transform="translate(-359.078 -82.441)"/><path class="a" d="M160.818,150a8.818,8.818,0,1,0,8.818,8.818A8.829,8.829,0,0,0,160.818,150Zm0,0" transform="translate(-139.234 -137.402)"/></svg>