<svg xmlns="http://www.w3.org/2000/svg" width="43" height="43" viewBox="0 0 43 43"><defs><style>.a{fill:#005980;}</style></defs><path class="a" d="M39.9,0H3.1A3.1,3.1,0,0,0,0,3.1V39.9A3.1,3.1,0,0,0,3.1,43H39.9A3.1,3.1,0,0,0,43,39.9V3.1A3.1,3.1,0,0,0,39.9,0ZM15.253,32.5H10.016V16.749h5.236ZM12.635,14.6H12.6a2.729,2.729,0,1,1,.069-5.443,2.73,2.73,0,1,1-.035,5.443Zm21.5,17.9H28.9V24.074c0-2.118-.758-3.562-2.653-3.562a2.866,2.866,0,0,0-2.687,1.915,3.586,3.586,0,0,0-.172,1.278v8.8H18.15s.069-14.275,0-15.753h5.236v2.231a5.2,5.2,0,0,1,4.719-2.6c3.445,0,6.028,2.252,6.028,7.09Zm0,0" transform="translate(0)"/></svg>