<svg xmlns="http://www.w3.org/2000/svg" width="371.409" height="96.673" viewBox="0 0 371.409 96.673"><defs><style>.a{fill:#fff;}</style></defs><g transform="translate(-125.34 -87.44)"><g transform="translate(125.34 87.44)"><path class="a" d="M125.34,209.3V162.6a29.43,29.43,0,0,1,29.3-29.351,28.5,28.5,0,0,1,15.906,4.721,29.024,29.024,0,0,1,10.621,12.162,29.07,29.07,0,0,1,10.621-12.162,29.334,29.334,0,0,1,45.207,24.63V209.3h-5.645V162.6a23.682,23.682,0,1,0-47.363,0V209.3H178.34V162.6a23.682,23.682,0,1,0-47.363,0V209.3Z" transform="translate(-125.34 -115.551)"/><path class="a" d="M481.022,133.39a39.543,39.543,0,0,1,39.254,35.815q.2,2.1.2,3.643l-.05,1.028-.05.974H447.309a33.737,33.737,0,0,0,52.44,26.121,33.253,33.253,0,0,0,12.213-14.624h6A38.834,38.834,0,0,1,503.8,204.974a39.415,39.415,0,0,1-62.242-32.125,39.5,39.5,0,0,1,39.462-39.458Zm33.609,35.815a33.8,33.8,0,0,0-67.218,0h67.218Z" transform="translate(-319.387 -115.637)"/><path class="a" d="M717.6,191.146A29.071,29.071,0,0,1,673.06,166.67V106.43h5.695v13.186H717.6v5.645H678.755V166.67a23.288,23.288,0,0,0,38.84,17.34v7.136Z" transform="translate(-461.446 -99.093)"/><path class="a" d="M821.54,87.44h5.645v93.8H821.54Z" transform="translate(-552.561 -87.44)"/><path class="a" d="M866.378,317.322A3.909,3.909,0,0,1,863.5,318.5a4.026,4.026,0,0,1-4.1-4.1,3.924,3.924,0,0,1,1.179-2.875,3.993,3.993,0,0,1,2.925-1.232,3.828,3.828,0,0,1,2.874,1.232,3.91,3.91,0,0,1,1.178,2.875A4.1,4.1,0,0,1,866.378,317.322Z" transform="translate(-575.793 -224.191)"/><path class="a" d="M920.871,253.522a16.03,16.03,0,0,1-24.561-13.5V206.8h3.141v7.271h21.42v3.114h-21.42v22.837a12.843,12.843,0,0,0,21.42,9.562Z" transform="translate(-598.443 -160.685)"/><path class="a" d="M1016.729,225.63l-22.014,41.908L972.7,225.63h3.481l18.533,35.147,18.533-35.147Z" transform="translate(-645.319 -172.24)"/></g></g></svg>