<svg xmlns="http://www.w3.org/2000/svg" width="22.846" height="30.462" viewBox="0 0 22.846 30.462"><defs><style>.a{fill:#f53c6f;}</style></defs><g transform="translate(0)"><path class="a" d="M86.661,6.532,80.314.186A.634.634,0,0,0,79.866,0H66.538A2.541,2.541,0,0,0,64,2.539V27.923a2.541,2.541,0,0,0,2.539,2.538H84.308a2.541,2.541,0,0,0,2.538-2.539V6.981A.634.634,0,0,0,86.661,6.532ZM80.5,2.167l4.18,4.18h-2.91A1.271,1.271,0,0,1,80.5,5.077Zm5.077,25.757a1.271,1.271,0,0,1-1.269,1.269H66.539a1.271,1.271,0,0,1-1.269-1.269V2.539a1.271,1.271,0,0,1,1.269-1.269H79.231V5.077a2.541,2.541,0,0,0,2.539,2.538h3.808Z" transform="translate(-64)"/><path class="a" d="M138.851,179.142a18.4,18.4,0,0,1-1.518-1.31c-.483-.483-.914-.952-1.288-1.4a14.208,14.208,0,0,0,.84-3.23c0-2.107-.761-2.539-1.9-2.539-.868,0-1.9.451-1.9,2.6a6.085,6.085,0,0,0,1.547,3.433c-.252.768-.547,1.654-.879,2.652-.16.479-.333.923-.517,1.333-.149.066-.294.134-.434.2-.5.252-.984.479-1.428.69-2.027.959-3.365,1.594-3.365,2.847,0,.91.989,1.473,1.9,1.473,1.18,0,2.962-1.576,4.263-4.231a25.249,25.249,0,0,1,4.356-1.175,7.28,7.28,0,0,0,2.8,1.6c1.574,0,1.9-.91,1.9-1.673,0-1.5-1.714-1.5-2.539-1.5A15.036,15.036,0,0,0,138.851,179.142Zm-8.947,5.485a1,1,0,0,1-.635-.2c0-.45,1.342-1.086,2.64-1.7l.251-.118C131.207,183.987,130.264,184.628,129.9,184.628Zm4.442-11.362c0-1.33.413-1.33.635-1.33.449,0,.635,0,.635,1.269a10.176,10.176,0,0,1-.505,1.982A3.9,3.9,0,0,1,134.346,173.265Zm.486,6.821q.06-.165.115-.335c.235-.707.447-1.341.636-1.913q.4.435.852.891c.119.119.414.387.807.722C136.461,179.623,135.628,179.834,134.833,180.086Zm7.129.33c0,.285,0,.4-.589.407a4.676,4.676,0,0,1-1.066-.609c.179-.02.311-.03.385-.03C141.63,180.185,141.9,180.277,141.962,180.417Z" transform="translate(-124.192 -160.512)"/></g></svg>