<svg xmlns="http://www.w3.org/2000/svg" width="23.254" height="23.254" viewBox="0 0 23.254 23.254">
  <path id="Icon_material-photo-library" data-name="Icon material-photo-library" d="M26.254,19.278V5.325A2.332,2.332,0,0,0,23.929,3H9.976A2.332,2.332,0,0,0,7.651,5.325V19.278A2.332,2.332,0,0,0,9.976,21.6H23.929A2.332,2.332,0,0,0,26.254,19.278Zm-12.79-4.651,2.36,3.151,3.453-4.314,4.651,5.814H9.976ZM3,7.651V23.929a2.332,2.332,0,0,0,2.325,2.325H21.6V23.929H5.325V7.651Z" transform="translate(-3 -3)" fill="#18b587"/>
</svg>
