<svg xmlns="http://www.w3.org/2000/svg" width="31.888" height="31.888" viewBox="0 0 31.888 31.888">
  <g id="shuttle" transform="translate(0)">
    <path id="Контур_6053" data-name="Контур 6053" d="M8.111,138.268l-2.763.213a2.465,2.465,0,0,0-1.878,1.105L.284,144.406a1.708,1.708,0,0,0,1.163,2.629l2.53.392A22.651,22.651,0,0,1,8.111,138.268Z" transform="translate(0 -129.657)" fill="#fff"/>
    <path id="Контур_6054" data-name="Контур 6054" d="M226.682,385.9l.392,2.529a1.706,1.706,0,0,0,2.629,1.163l4.819-3.186a2.465,2.465,0,0,0,1.105-1.878l.213-2.763A22.65,22.65,0,0,1,226.682,385.9Z" transform="translate(-212.564 -357.988)" fill="#fff"/>
    <path id="Контур_6055" data-name="Контур 6055" d="M99.44,246.942a1.608,1.608,0,0,0,.264-.022,18.3,18.3,0,0,0,3.793-1.076l-10.4-10.4a18.3,18.3,0,0,0-1.076,3.793,1.63,1.63,0,0,0,.459,1.419l5.8,5.8A1.636,1.636,0,0,0,99.44,246.942Z" transform="translate(-86.274 -220.784)" fill="#fff"/>
    <path id="Контур_6056" data-name="Контур 6056" d="M144.6,14.138a25.188,25.188,0,0,0,2.505-12.554A1.637,1.637,0,0,0,145.562.037c-.4-.022-.867-.037-1.4-.037a24.681,24.681,0,0,0-11.156,2.543A25.378,25.378,0,0,0,122.913,12.86a.939.939,0,0,1,.087.076l11.21,11.21a.939.939,0,0,1,.076.087A25.379,25.379,0,0,0,144.6,14.138Zm-10.8-7.4a4.671,4.671,0,1,1-1.368,3.3,4.676,4.676,0,0,1,1.368-3.3Z" transform="translate(-115.258)" fill="#fff"/>
    <path id="Контур_6057" data-name="Контур 6057" d="M306.552,121.077a2.8,2.8,0,1,0-.821-1.982A2.806,2.806,0,0,0,306.552,121.077Z" transform="translate(-286.69 -109.051)" fill="#fff"/>
    <path id="Контур_6058" data-name="Контур 6058" d="M1.239,347.883a.931.931,0,0,0,.661-.274l3.05-3.05a.934.934,0,0,0-1.321-1.321l-3.05,3.05a.934.934,0,0,0,.661,1.595Z" transform="translate(-0.286 -321.605)" fill="#fff"/>
    <path id="Контур_6059" data-name="Контур 6059" d="M7.462,388.119a.934.934,0,0,0-1.321,0L.277,393.983A.934.934,0,1,0,1.6,395.3l5.864-5.864a.934.934,0,0,0,0-1.321Z" transform="translate(-0.004 -363.69)" fill="#fff"/>
    <path id="Контур_6060" data-name="Контур 6060" d="M93.39,433l-3.05,3.05a.934.934,0,1,0,1.321,1.321l3.05-3.05A.934.934,0,0,0,93.39,433Z" transform="translate(-84.457 -405.776)" fill="#fff"/>
  </g>
</svg>
