<svg xmlns="http://www.w3.org/2000/svg" width="53.334" height="53.334" viewBox="0 0 53.334 53.334">
  <g id="shuttle" transform="translate(0)">
    <path id="Контур_6053" data-name="Контур 6053" d="M13.567,138.268l-4.621.357A4.123,4.123,0,0,0,5.8,140.474l-5.329,8.06a2.856,2.856,0,0,0,1.945,4.4l4.231.655A37.885,37.885,0,0,1,13.567,138.268Z" transform="translate(0 -123.865)" fill="#f53c6f"/>
    <path id="Контур_6054" data-name="Контур 6054" d="M226.682,388.679l.655,4.231a2.854,2.854,0,0,0,4.4,1.945l8.06-5.329a4.123,4.123,0,0,0,1.849-3.142l.357-4.621A37.883,37.883,0,0,1,226.682,388.679Z" transform="translate(-203.069 -341.996)" fill="#f53c6f"/>
    <path id="Контур_6055" data-name="Контур 6055" d="M104.442,254.672a2.691,2.691,0,0,0,.442-.037,30.612,30.612,0,0,0,6.344-1.8L93.84,235.448a30.609,30.609,0,0,0-1.8,6.344,2.726,2.726,0,0,0,.768,2.373l9.7,9.7A2.737,2.737,0,0,0,104.442,254.672Z" transform="translate(-82.42 -210.922)" fill="#f53c6f"/>
    <path id="Контур_6056" data-name="Контур 6056" d="M159.191,23.646c4.255-8.227,4.413-16.92,4.19-21A2.739,2.739,0,0,0,160.794.062C160.131.026,159.344,0,158.457,0A41.28,41.28,0,0,0,139.8,4.253a42.447,42.447,0,0,0-16.884,17.256,1.57,1.57,0,0,1,.145.127l18.75,18.75a1.569,1.569,0,0,1,.126.145A42.448,42.448,0,0,0,159.191,23.646ZM141.12,11.275a7.812,7.812,0,1,1-2.288,5.524,7.821,7.821,0,0,1,2.288-5.524Z" transform="translate(-110.11)" fill="#f53c6f"/>
    <path id="Контур_6057" data-name="Контур 6057" d="M307.1,124.294a4.687,4.687,0,1,0-1.373-3.315A4.693,4.693,0,0,0,307.1,124.294Z" transform="translate(-273.884 -104.18)" fill="#f53c6f"/>
    <path id="Контур_6058" data-name="Контур 6058" d="M1.867,351.191a1.557,1.557,0,0,0,1.1-.458l5.1-5.1a1.563,1.563,0,0,0-2.21-2.21l-5.1,5.1a1.563,1.563,0,0,0,1.1,2.667Z" transform="translate(-0.273 -307.239)" fill="#f53c6f"/>
    <path id="Контур_6059" data-name="Контур 6059" d="M12.479,388.3a1.563,1.563,0,0,0-2.21,0L.461,398.111a1.562,1.562,0,1,0,2.21,2.21l9.808-9.808a1.562,1.562,0,0,0,0-2.21Z" transform="translate(-0.003 -347.444)" fill="#f53c6f"/>
    <path id="Контур_6060" data-name="Контур 6060" d="M95.626,433.184l-5.1,5.1a1.562,1.562,0,1,0,2.21,2.21l5.1-5.1a1.563,1.563,0,0,0-2.21-2.21Z" transform="translate(-80.685 -387.65)" fill="#f53c6f"/>
  </g>
</svg>
