<svg xmlns="http://www.w3.org/2000/svg" xmlns:xlink="http://www.w3.org/1999/xlink" width="150" height="150" viewBox="0 0 150 150"><defs><style>.a{fill:url(#a);}.b,.s{fill:#18b587;}.c{fill:#fff;}.d{fill:url(#b);}.e{fill:#6c63ff;}.f{fill:#f53c6f;}.g{fill:url(#e);}.h{fill:url(#f);}.i{fill:url(#g);}.j{fill:url(#h);}.k{fill:url(#i);}.l{fill:url(#j);}.m{fill:url(#k);}.n{fill:url(#l);}.o{fill:url(#m);}.p{fill:url(#n);}.q{fill:url(#o);}.r{fill:#69f0ae;}.s{opacity:0.2;}</style><linearGradient id="a" x1="0.5" y1="1" x2="0.5" gradientUnits="objectBoundingBox"><stop offset="0" stop-color="gray" stop-opacity="0.251"/><stop offset="0.54" stop-color="gray" stop-opacity="0.122"/><stop offset="1" stop-color="gray" stop-opacity="0.102"/></linearGradient><linearGradient id="b" y1="1" y2="-0.001" xlink:href="#a"/><linearGradient id="e" x1="29.773" y1="26.262" x2="29.773" y2="25.263" xlink:href="#a"/><linearGradient id="f" y1="0.999" y2="0" xlink:href="#a"/><linearGradient id="g" x1="35.813" y1="30.815" x2="35.813" y2="29.815" xlink:href="#a"/><linearGradient id="h" x1="39.503" y1="24.82" x2="39.503" y2="23.82" xlink:href="#a"/><linearGradient id="i" x1="30.785" y1="19.69" x2="30.785" y2="18.69" xlink:href="#a"/><linearGradient id="j" x1="25.655" y1="10.971" x2="25.655" y2="9.972" xlink:href="#a"/><linearGradient id="k" x1="25.656" y1="0.713" x2="25.656" y2="-0.287" xlink:href="#a"/><linearGradient id="l" x1="40.017" y1="-13.391" x2="40.017" y2="-14.391" xlink:href="#a"/><linearGradient id="m" x1="50.274" y1="-13.135" x2="50.274" y2="-14.134" xlink:href="#a"/><linearGradient id="n" x1="58.481" y1="-8.006" x2="58.481" y2="-9.006" xlink:href="#a"/><linearGradient id="o" x1="63.609" y1="0.2" x2="63.609" y2="-0.799" xlink:href="#a"/></defs><g transform="translate(0 -316.95)"><circle class="a" cx="75" cy="75" r="75" transform="translate(0 316.95)"/><path class="b" d="M72.976,0A72.976,72.976,0,1,1,0,72.976,72.976,72.976,0,0,1,72.976,0Z" transform="translate(2.024 318.974)"/><circle class="c" cx="59.292" cy="59.292" r="59.292" transform="translate(15.708 332.658)"/><circle class="d" cx="3.546" cy="3.546" r="3.546" transform="translate(71.454 388.404)"/><line class="e" x1="19.258" y2="45.608" transform="translate(75.507 346.342)"/><path class="a" d="M171.8,429.279l-2.186-.734L189.284,382.5l2.186,1.027Z" transform="translate(-95.458 -36.892)"/><rect class="f" width="49.507" height="1.521" transform="matrix(0.389, -0.921, 0.921, 0.389, 74.801, 391.64)"/><line class="e" x2="12.67" y2="23.311" transform="translate(75.507 392.457)"/><path class="a" d="M183.289,512.983,170.61,489.374l1.749-.874,13.116,23.171Z" transform="translate(-96.021 -96.55)"/><rect class="f" width="1.521" height="26.533" transform="translate(74.833 392.834) rotate(-28.52)"/><circle class="e" cx="1.521" cy="1.521" r="1.521" transform="translate(128.718 391.95)"/><circle class="g" cx="1.976" cy="1.976" r="1.976" transform="translate(24.721 365.356) rotate(-60)"/><circle class="h" cx="1.976" cy="1.976" r="1.976" transform="translate(25.226 420.16) rotate(-30)"/><circle class="i" cx="1.976" cy="1.976" r="1.976" transform="translate(17.789 391.495)"/><circle class="j" cx="1.976" cy="1.976" r="1.976" transform="translate(44.886 343.641) rotate(-30)"/><circle class="k" cx="1.976" cy="1.976" r="1.976" transform="translate(72.252 336.548) rotate(-30)"/><circle class="l" cx="1.976" cy="1.976" r="1.976" transform="translate(99.617 343.643) rotate(-30)"/><circle class="m" cx="1.976" cy="1.976" r="1.976" transform="translate(119.887 363.914) rotate(-30)"/><circle class="n" cx="1.976" cy="1.976" r="1.976" transform="translate(119.383 420.165) rotate(-30)"/><circle class="o" cx="1.976" cy="1.976" r="1.976" transform="translate(98.603 439.927) rotate(-30)"/><circle class="p" cx="1.976" cy="1.976" r="1.976" transform="translate(72.25 446.011) rotate(-30)"/><circle class="q" cx="1.976" cy="1.976" r="1.976" transform="translate(45.9 439.929) rotate(-30)"/><circle class="r" cx="1.521" cy="1.521" r="1.521" transform="translate(73.479 335.697)"/><circle class="r" cx="1.521" cy="1.521" r="1.521" transform="translate(100.288 345.105) rotate(-60)"/><circle class="r" cx="1.521" cy="1.521" r="1.521" transform="translate(120.319 364.029) rotate(-30)"/><circle class="r" cx="1.521" cy="1.521" r="1.521" transform="translate(120.003 421.439) rotate(-60)"/><circle class="r" cx="1.521" cy="1.521" r="1.521" transform="translate(99.225 439.99) rotate(-30)"/><circle class="r" cx="1.521" cy="1.521" r="1.521" transform="translate(45.556 343.998) rotate(-30)"/><circle class="r" cx="1.521" cy="1.521" r="1.521" transform="translate(25.527 365.142) rotate(-60)"/><circle class="r" cx="1.976" cy="1.976" r="1.976" transform="translate(127.492 392.801) rotate(-30)"/><circle class="r" cx="1.521" cy="1.521" r="1.521" transform="translate(25.847 420.327) rotate(-30)"/><circle class="r" cx="1.521" cy="1.521" r="1.521" transform="translate(46.621 441.103) rotate(-60)"/><circle class="r" cx="1.521" cy="1.521" r="1.521" transform="translate(18.244 391.95)"/><circle class="r" cx="1.521" cy="1.521" r="1.521" transform="translate(73.479 445.156)"/><path class="s" d="M221.171,537.087a59.3,59.3,0,0,1,110.732-29.5A59.3,59.3,0,1,0,225.98,560.511,59.091,59.091,0,0,1,221.171,537.087Z" transform="translate(-202.42 -139.563)"/><circle class="b" cx="2.536" cy="2.536" r="2.536" transform="translate(72.464 389.414)"/></g></svg>