<svg xmlns="http://www.w3.org/2000/svg" width="29.94" height="24.758" viewBox="0 0 29.94 24.758"><defs><style>.a{fill:#f53c6f;}</style></defs><g transform="translate(0 -44.308)"><g transform="translate(0 44.308)"><g transform="translate(0 0)"><path class="a" d="M25.622,44.308H4.318A4.323,4.323,0,0,0,0,48.626V64.748a4.323,4.323,0,0,0,4.318,4.318h21.3a4.323,4.323,0,0,0,4.318-4.318V48.626A4.323,4.323,0,0,0,25.622,44.308Zm2.591,14.97H21.879a2.591,2.591,0,0,1,0-5.182h6.334v5.182Zm0-6.909H21.879a4.318,4.318,0,1,0,0,8.637h6.334v3.743a2.594,2.594,0,0,1-2.591,2.591H4.318a2.594,2.594,0,0,1-2.591-2.591V48.626a2.594,2.594,0,0,1,2.591-2.591h21.3a2.594,2.594,0,0,1,2.591,2.591v3.743Z" transform="translate(0 -44.308)"/></g></g><g transform="translate(21.016 55.823)"><path class="a" d="M361.4,241.231h-1.152a.864.864,0,0,0,0,1.727H361.4a.864.864,0,0,0,0-1.727Z" transform="translate(-359.385 -241.231)"/></g></g></svg>