<svg xmlns="http://www.w3.org/2000/svg" width="32" height="32" viewBox="0 0 32 32"><defs><style>.a{fill:#f1f1f1;}.b{fill:#18b587;}</style></defs><g transform="translate(-1571 -22)"><rect class="a" width="32" height="32" transform="translate(1571 22)"/><g transform="translate(1576 -15.308)"><g transform="translate(0 44.308)"><path class="b" d="M15.6,50.054h5.746V47.386a3.082,3.082,0,0,0-3.078-3.078H3.078A3.082,3.082,0,0,0,0,47.386V58.879a3.082,3.082,0,0,0,3.078,3.078H18.265a3.082,3.082,0,0,0,3.078-3.078V56.211H15.6a3.078,3.078,0,1,1,0-6.157Z" transform="translate(0 -44.308)"/></g><g transform="translate(13.75 51.286)"><path class="b" d="M331.693,211.692a1.847,1.847,0,0,0,0,3.694h5.746v-3.694h-5.746Zm.821,2.463h-.821a.616.616,0,0,1,0-1.231h.821a.616.616,0,0,1,0,1.231Z" transform="translate(-329.846 -211.692)"/></g></g></g></svg>