<svg id="wink" xmlns="http://www.w3.org/2000/svg" width="53.335" height="53.335" viewBox="0 0 53.335 53.335">
  <g id="Сгруппировать_1446" data-name="Сгруппировать 1446" transform="translate(12.998 31.355)">
    <g id="Сгруппировать_1445" data-name="Сгруппировать 1445">
      <path id="Контур_6061" data-name="Контур 6061" d="M150.942,301.046a1.563,1.563,0,0,0-1.9,1.124,10.942,10.942,0,0,1-21.187,0,1.563,1.563,0,1,0-3.026.779,14.067,14.067,0,0,0,27.24,0A1.562,1.562,0,0,0,150.942,301.046Z" transform="translate(-124.777 -300.996)" fill="#f53c6f"/>
    </g>
  </g>
  <g id="Сгруппировать_1448" data-name="Сгруппировать 1448">
    <g id="Сгруппировать_1447" data-name="Сгруппировать 1447">
      <path id="Контур_6062" data-name="Контур 6062" d="M26.667,0A26.667,26.667,0,1,0,53.335,26.667,26.724,26.724,0,0,0,26.667,0Zm0,50.21A23.542,23.542,0,1,1,50.21,26.667,23.569,23.569,0,0,1,26.667,50.21Z" fill="#f53c6f"/>
    </g>
  </g>
  <g id="Сгруппировать_1450" data-name="Сгруппировать 1450" transform="translate(31.357 15.729)">
    <g id="Сгруппировать_1449" data-name="Сгруппировать 1449">
      <path id="Контур_6063" data-name="Контур 6063" d="M309.525,157.412l-3.455-1.728,3.455-1.727a1.563,1.563,0,1,0-1.4-2.8l-6.25,3.125a1.564,1.564,0,0,0,0,2.8l6.25,3.125a1.563,1.563,0,1,0,1.4-2.8Z" transform="translate(-301.015 -150.996)" fill="#f53c6f"/>
    </g>
  </g>
  <g id="Сгруппировать_1452" data-name="Сгруппировать 1452" transform="translate(12.605 15.73)">
    <g id="Сгруппировать_1451" data-name="Сгруппировать 1451">
      <path id="Контур_6064" data-name="Контур 6064" d="M125.688,151a4.688,4.688,0,1,0,4.688,4.688A4.693,4.693,0,0,0,125.688,151Zm0,6.25a1.563,1.563,0,1,1,1.563-1.563A1.564,1.564,0,0,1,125.688,157.25Z" transform="translate(-121 -151)" fill="#f53c6f"/>
    </g>
  </g>
</svg>
