<svg xmlns="http://www.w3.org/2000/svg" width="99.246" height="30.14" viewBox="0 0 99.246 30.14"><defs><style>.a,.b{fill:#fff;}.b{font-size:19px;font-family:Muli-SemiBold, Muli;font-weight:600;}</style></defs><g transform="translate(0 1.722)"><g transform="translate(0)"><path class="a" d="M58.019,2.144C56.694.643,54.3,0,51.229,0h-8.9a1.274,1.274,0,0,0-1.259,1.066L37.362,24.387a.76.76,0,0,0,.755.876h5.5l1.38-8.685-.043.274A1.268,1.268,0,0,1,46.2,15.786h2.611c5.131,0,9.147-2.067,10.321-8.047.036-.178.091-.519.091-.519C59.561,5.007,59.225,3.506,58.019,2.144Z" transform="translate(-37.352)"/></g><g transform="translate(7.375 8.353)"><path class="a" d="M186.116,150.5c-1.275,5.888-5.344,9-11.8,9h-2.341l-1.748,11.061h3.8a1.112,1.112,0,0,0,1.1-.934l.044-.234.874-5.49.057-.3a1.111,1.111,0,0,1,1.1-.934h.694c4.488,0,8-1.808,9.028-7.039C187.332,153.528,187.133,151.768,186.116,150.5Z" transform="translate(-170.225 -150.496)"/></g></g><text class="b" transform="translate(36.246 22)"><tspan x="0" y="0">PayPal</tspan></text></svg>