<svg xmlns="http://www.w3.org/2000/svg" xmlns:xlink="http://www.w3.org/1999/xlink" viewBox="0 0 318.89 318.89"><defs><style>.cls-1{isolation:isolate;}.cls-2{fill:url(#linear-gradient);}.cls-3{fill:url(#linear-gradient-2);}.cls-4{fill:url(#linear-gradient-3);}.cls-5{fill:url(#linear-gradient-4);}.cls-14,.cls-6{fill:#fff;}.cls-6{opacity:0.7;}.cls-11,.cls-12,.cls-13,.cls-15,.cls-6{mix-blend-mode:overlay;}.cls-10,.cls-7,.cls-8,.cls-9{mix-blend-mode:multiply;}.cls-7{fill:url(#linear-gradient-5);}.cls-8{fill:url(#linear-gradient-6);}.cls-9{fill:url(#linear-gradient-7);}.cls-10{fill:url(#linear-gradient-8);}.cls-11,.cls-15{opacity:0.9;}.cls-11{fill:url(#radial-gradient);}.cls-12{opacity:0.6;fill:url(#radial-gradient-2);}.cls-13{opacity:0.2;}.cls-15{fill:url(#radial-gradient-3);}.cls-16{fill:url(#linear-gradient-9);}.cls-17{fill:url(#linear-gradient-10);}.cls-18{fill:url(#linear-gradient-11);}.cls-19{fill:url(#linear-gradient-12);}.cls-20{fill:url(#linear-gradient-13);}.cls-21{fill:url(#linear-gradient-14);}</style><linearGradient id="linear-gradient" x1="17.48" y1="169.95" x2="324.38" y2="169.95" gradientTransform="translate(170.24 -71.09) rotate(45)" gradientUnits="userSpaceOnUse"><stop offset="0.03" stop-color="#5a6578"/><stop offset="0.2" stop-color="#aab3c2"/><stop offset="0.35" stop-color="#f1f2f7"/><stop offset="0.55" stop-color="#c2cad3"/><stop offset="0.82" stop-color="#838c9c"/><stop offset="1" stop-color="#c0c8d2"/></linearGradient><linearGradient id="linear-gradient-2" x1="-37.27" y1="298.64" x2="386.32" y2="-5.06" gradientTransform="translate(158.25 -66.12) rotate(45)" xlink:href="#linear-gradient"/><linearGradient id="linear-gradient-3" x1="-24.4" y1="280.97" x2="328.59" y2="27.88" gradientUnits="userSpaceOnUse"><stop offset="0" stop-color="#c0c8d2"/><stop offset="0.18" stop-color="#838c9c"/><stop offset="0.45" stop-color="#c2cad3"/><stop offset="0.65" stop-color="#f1f2f7"/><stop offset="0.8" stop-color="#aab3c2"/><stop offset="0.97" stop-color="#5a6578"/></linearGradient><linearGradient id="linear-gradient-4" x1="74.78" y1="54.17" x2="259.75" y2="265.56" gradientUnits="userSpaceOnUse"><stop offset="0" stop-color="#fff" stop-opacity="0"/><stop offset="0.23" stop-color="#fbfbfb" stop-opacity="0.03"/><stop offset="0.4" stop-color="#edeef0" stop-opacity="0.11"/><stop offset="0.57" stop-color="#d6d9dd" stop-opacity="0.25"/><stop offset="0.72" stop-color="#b6bbc3" stop-opacity="0.44"/><stop offset="0.86" stop-color="#8c94a1" stop-opacity="0.7"/><stop offset="1" stop-color="#5a6578"/></linearGradient><linearGradient id="linear-gradient-5" x1="-39.71" y1="252.2" x2="303.68" y2="6" xlink:href="#linear-gradient-3"/><linearGradient id="linear-gradient-6" x1="-2142.67" y1="2432.82" x2="-1874.91" y2="2432.82" gradientTransform="matrix(-0.02, 1, 1, 0.02, -2193.96, 2147.3)" xlink:href="#linear-gradient-3"/><linearGradient id="linear-gradient-7" x1="-2142.67" y1="2448.94" x2="-1874.9" y2="2448.94" gradientTransform="matrix(-0.02, 1, 1, 0.02, -2193.96, 2147.3)" xlink:href="#linear-gradient-3"/><linearGradient id="linear-gradient-8" x1="-2142.68" y1="2299.36" x2="-1874.91" y2="2299.36" gradientTransform="matrix(-0.02, 1, 1, 0.02, -2193.96, 2147.3)" xlink:href="#linear-gradient-3"/><radialGradient id="radial-gradient" cx="53.04" cy="46.11" r="53.91" gradientTransform="matrix(0.74, -0.67, 0.21, 0.23, 4.36, 71.46)" gradientUnits="userSpaceOnUse"><stop offset="0" stop-color="#fff"/><stop offset="1" stop-color="#fff" stop-opacity="0"/></radialGradient><radialGradient id="radial-gradient-2" cx="3606.64" cy="-4257.25" r="188.65" gradientTransform="matrix(0.37, -0.16, 0.07, 0.16, -829.42, 1535.38)" gradientUnits="userSpaceOnUse"><stop offset="0" stop-color="#fff"/><stop offset="0.88" stop-color="#fff" stop-opacity="0"/></radialGradient><radialGradient id="radial-gradient-3" cx="158.94" cy="350.18" r="285.33" gradientTransform="matrix(1, 0, 0, 1, 0, 0)" xlink:href="#radial-gradient"/><linearGradient id="linear-gradient-9" x1="61.48" y1="158.59" x2="126.25" y2="158.59" xlink:href="#linear-gradient-3"/><linearGradient id="linear-gradient-10" x1="127.65" y1="159.37" x2="174.67" y2="159.37" xlink:href="#linear-gradient-3"/><linearGradient id="linear-gradient-11" x1="176.03" y1="156.53" x2="204.48" y2="156.53" xlink:href="#linear-gradient-3"/><linearGradient id="linear-gradient-12" x1="201.58" y1="149.3" x2="208.98" y2="149.3" xlink:href="#linear-gradient-3"/><linearGradient id="linear-gradient-13" x1="214.99" y1="177.26" x2="223.75" y2="177.26" xlink:href="#linear-gradient-3"/><linearGradient id="linear-gradient-14" x1="222.71" y1="166.7" x2="266.86" y2="166.7" xlink:href="#linear-gradient-3"/></defs><g class="cls-1"><g id="Layer_1" data-name="Layer 1"><circle class="cls-2" cx="170.93" cy="169.95" r="153.45" transform="translate(-75.6 166.13) rotate(-45)"/><circle class="cls-3" cx="158.94" cy="157.97" r="153.45" transform="translate(-70.64 154.14) rotate(-45)"/><circle class="cls-4" cx="153.45" cy="153.45" r="127.88"/><circle class="cls-5" cx="158.68" cy="150.05" r="127.88"/><path class="cls-6" d="M250.53,68.77A127.85,127.85,0,0,1,69.75,249.56,127.85,127.85,0,1,0,250.53,68.77Z" transform="translate(-5.49 -4.51)"/><path class="cls-7" d="M38.26,162.76a127.88,127.88,0,0,1,194.8-109A127.86,127.86,0,1,0,92,266.93,127.69,127.69,0,0,1,38.26,162.76Z" transform="translate(-5.49 -4.51)"/><path class="cls-8" d="M281.55,250.16l18.83,2.09A153.24,153.24,0,0,1,282.72,275l-21.85-2.41A154.45,154.45,0,0,0,281.55,250.16Z" transform="translate(-5.49 -4.51)"/><path class="cls-9" d="M312.53,161.05A152.83,152.83,0,0,0,275.64,57.89,153.36,153.36,0,0,1,306.05,242.5l-17.74-2A152.73,152.73,0,0,0,312.53,161.05Z" transform="translate(-5.49 -4.51)"/><path class="cls-10" d="M54.32,269.77a153.39,153.39,0,0,0,151.49,34.11l33,3.65A153.38,153.38,0,0,1,54.32,269.77Z" transform="translate(-5.49 -4.51)"/><path class="cls-11" d="M67.25,52.41C79.79,39.89,90.13,27.54,96.81,17.62A154,154,0,0,0,22.46,87.8C33.16,82.71,50,69.62,67.25,52.41Z" transform="translate(-5.49 -4.51)"/><path class="cls-12" d="M278.32,247.1c7.22,16.55-18.16,43.58-56.68,60.38s-75.6,17-82.82.45S157,264.34,195.5,247.54,271.1,230.54,278.32,247.1Z" transform="translate(-5.49 -4.51)"/><g class="cls-13"><path class="cls-14" d="M50.49,49.41,211.7,302.11q6.86-2.52,13.38-5.65L61.25,39.63Q55.64,44.27,50.49,49.41Z" transform="translate(-5.49 -4.51)"/><path class="cls-14" d="M304.06,207.84,174.88,5.34a155.48,155.48,0,0,0-15.94-.83,153.39,153.39,0,0,0-45.86,7L272.42,261.26A153.29,153.29,0,0,0,304.06,207.84Z" transform="translate(-5.49 -4.51)"/></g><path class="cls-15" d="M158.94,170c48.94,0,93.54-9.67,127.15-25.54a127.87,127.87,0,0,0-254.3,0C65.4,160.28,110,170,158.94,170Z" transform="translate(-5.49 -4.51)"/><path class="cls-16" d="M108.18,135.87A18,18,0,0,0,93.86,143a18.13,18.13,0,0,0-14.37-7.13h0a18.15,18.15,0,0,0-18,18.06v25.27a2.17,2.17,0,0,0,2.17,2.17h3a2.18,2.18,0,0,0,2.18-2.17V153.9a10.65,10.65,0,1,1,21.29,0v25.27a2.17,2.17,0,0,0,2.17,2.17h3.06a2.17,2.17,0,0,0,2.17-2.17V153.9a10.65,10.65,0,1,1,21.29,0v25.27a2.17,2.17,0,0,0,2.17,2.17h3.06a2.17,2.17,0,0,0,2.17-2.17V153.89a18,18,0,0,0-18.07-18Z" transform="translate(-5.49 -4.51)"/><path class="cls-17" d="M151.14,135.87a23.53,23.53,0,1,0,22.05,31.56,2.17,2.17,0,0,0-2.05-2.9h-3.25a2.18,2.18,0,0,0-2,1.31,15.76,15.76,0,0,1-5.82,7,16,16,0,0,1-8,2.69c-.31,0-.63,0-.94,0a16.1,16.1,0,0,1-15.75-12.88h37.1a2.16,2.16,0,0,0,2.16-2.06l.06-1.19c0-.62,0-1.35-.12-2.18A23.49,23.49,0,0,0,151.14,135.87Zm-15.58,19.38a16.24,16.24,0,0,1,13.85-11.9,17.39,17.39,0,0,1,1.75-.09,16.07,16.07,0,0,1,15.57,12Z" transform="translate(-5.49 -4.51)"/><path class="cls-18" d="M202.31,137.37H183.45v-5a2.17,2.17,0,0,0-2.17-2.17H178.2A2.17,2.17,0,0,0,176,132.4V165a17.89,17.89,0,0,0,27.42,15.07,2.17,2.17,0,0,0,1-1.84v-3.86a2.17,2.17,0,0,0-1.29-2,2.08,2.08,0,0,0-.88-.19,2.13,2.13,0,0,0-1.45.56A10.44,10.44,0,0,1,183.44,165V144.76h18.87a2.17,2.17,0,0,0,2.17-2.17v-3.05A2.17,2.17,0,0,0,202.31,137.37Z" transform="translate(-5.49 -4.51)"/><rect class="cls-19" x="201.58" y="121.74" width="7.4" height="55.12" rx="2.17"/><path class="cls-20" d="M219.36,172.86a4.33,4.33,0,0,0-3.08,1.29,4.25,4.25,0,0,0-1.29,3v.22a4.36,4.36,0,0,0,4.34,4.24v-2.17l.09,2.17a4.31,4.31,0,0,0,3.07-1.29,4.36,4.36,0,0,0,1.26-3.06,4.22,4.22,0,0,0-1.22-3.07A4.28,4.28,0,0,0,219.36,172.86Z" transform="translate(-5.49 -4.51)"/><path class="cls-21" d="M266.54,156.21a2.15,2.15,0,0,0-1.86-1.05H262.8a2.15,2.15,0,0,0-1.92,1.16l-8.11,15.38-8.11-15.38a2.17,2.17,0,0,0-1.92-1.16h-1.89a2.13,2.13,0,0,0-1.35.49,2.16,2.16,0,0,0-1.33-.5h-9.42v-1.76a2.17,2.17,0,0,0-2.17-2.17h-1.7a2.17,2.17,0,0,0-2.17,2.17v18a10.86,10.86,0,0,0,16.62,9.13,2.17,2.17,0,0,0,1-1.84v-2.13a2.18,2.18,0,0,0-1.28-2,2.32,2.32,0,0,0-.89-.18,2.2,2.2,0,0,0-1.45.55,4.77,4.77,0,0,1-8-3.56V161.18h9.42a2.13,2.13,0,0,0,1.75-1L250.85,181a2.15,2.15,0,0,0,1.92,1.16,2.17,2.17,0,0,0,1.92-1.16l11.92-22.68A2.16,2.16,0,0,0,266.54,156.21Z" transform="translate(-5.49 -4.51)"/><g id="metltvlogo"><g id="Group_5" data-name="Group 5"><path id="Path_7" data-name="Path 7" class="cls-14" d="M63.65,179.17V153.9A15.93,15.93,0,0,1,79.5,138a15.5,15.5,0,0,1,8.61,2.55,15.75,15.75,0,0,1,5.75,6.59,15.68,15.68,0,0,1,5.75-6.59,15.89,15.89,0,0,1,24.47,13.34v25.27H121V153.9a12.82,12.82,0,1,0-25.63,0h0v25.27H92.33V153.9a12.82,12.82,0,1,0-25.64,0v25.27Z" transform="translate(-5.49 -4.51)"/><path id="Path_8" data-name="Path 8" class="cls-14" d="M151.14,138a21.4,21.4,0,0,1,21.25,19.38c.07.76.11,1.42.11,2l0,.55,0,.53H132.89a18.26,18.26,0,0,0,28.38,14.14,18.06,18.06,0,0,0,6.62-7.92h3.25a21,21,0,0,1-7.66,10.08A21.34,21.34,0,1,1,151.14,138Zm18.19,19.38a18.3,18.3,0,0,0-36.38,0Z" transform="translate(-5.49 -4.51)"/><path id="Path_9" data-name="Path 9" class="cls-14" d="M202.3,178.25A15.73,15.73,0,0,1,178.2,165V132.4h3.08v7.14h21v3.05h-21V165a12.61,12.61,0,0,0,21,9.38v3.86Z" transform="translate(-5.49 -4.51)"/><path id="Path_10" data-name="Path 10" class="cls-14" d="M209.24,128.43h3.06V179.2h-3.06Z" transform="translate(-5.49 -4.51)"/><path id="Path_11" data-name="Path 11" class="cls-14" d="M220.94,178.84a2.12,2.12,0,0,1-1.56.64,2.17,2.17,0,0,1-2.22-2.12v-.1a2.12,2.12,0,0,1,.64-1.56,2.18,2.18,0,0,1,1.58-.67,2.09,2.09,0,0,1,1.56.67,2.12,2.12,0,0,1,.64,1.56A2.27,2.27,0,0,1,220.94,178.84Z" transform="translate(-5.49 -4.51)"/><path id="Path_12" data-name="Path 12" class="cls-14" d="M238.17,178.68a8.68,8.68,0,0,1-13.29-7.31v-18h1.7v3.94h11.59V159H226.58v12.36a6.95,6.95,0,0,0,11.59,5.18Z" transform="translate(-5.49 -4.51)"/><path id="Path_13" data-name="Path 13" class="cls-14" d="M264.68,157.33,252.77,180l-11.92-22.68h1.89l10,19,10-19Z" transform="translate(-5.49 -4.51)"/></g></g></g></g></svg>