<svg xmlns="http://www.w3.org/2000/svg" xmlns:xlink="http://www.w3.org/1999/xlink" viewBox="0 0 318.89 318.89"><defs><style>.cls-1{isolation:isolate;}.cls-2{fill:#006ac9;}.cls-3{fill:#0086ff;}.cls-4{opacity:0.5;mix-blend-mode:multiply;fill:url(#linear-gradient);}.cls-12,.cls-5{fill:#fff;}.cls-5{opacity:0.7;}.cls-10,.cls-11,.cls-5,.cls-8,.cls-9{mix-blend-mode:overlay;}.cls-6{fill:#0070d4;}.cls-7{fill:#369fff;}.cls-10,.cls-8,.cls-9{opacity:0.9;}.cls-8{fill:url(#radial-gradient);}.cls-9{fill:url(#radial-gradient-2);}.cls-10{fill:url(#radial-gradient-3);}.cls-11{opacity:0.2;}.cls-13{fill:#10785a;}.cls-14{fill:#b8ffea;}</style><linearGradient id="linear-gradient" x1="-21.72" y1="14.83" x2="279.19" y2="251.01" gradientUnits="userSpaceOnUse"><stop offset="0" stop-color="#fbe36e" stop-opacity="0"/><stop offset="0.37" stop-color="#f9e26f" stop-opacity="0.01"/><stop offset="0.51" stop-color="#f2e073" stop-opacity="0.03"/><stop offset="0.6" stop-color="#e7dc7a" stop-opacity="0.08"/><stop offset="0.68" stop-color="#d6d583" stop-opacity="0.15"/><stop offset="0.75" stop-color="#c1cd90" stop-opacity="0.23"/><stop offset="0.8" stop-color="#a6c39f" stop-opacity="0.34"/><stop offset="0.86" stop-color="#86b8b2" stop-opacity="0.47"/><stop offset="0.91" stop-color="#61aac7" stop-opacity="0.61"/><stop offset="0.95" stop-color="#369ae0" stop-opacity="0.78"/><stop offset="0.99" stop-color="#0989fa" stop-opacity="0.96"/><stop offset="1" stop-color="#0086ff"/></linearGradient><radialGradient id="radial-gradient" cx="-1333.85" cy="516.26" r="86.47" gradientTransform="translate(4558.79 -1352.92) scale(3.3 3.3)" gradientUnits="userSpaceOnUse"><stop offset="0" stop-color="#fff"/><stop offset="1" stop-color="#fff" stop-opacity="0"/></radialGradient><radialGradient id="radial-gradient-2" cx="-1365.94" cy="424.12" r="16.34" gradientTransform="matrix(2.44, -2.23, 0.68, 0.75, 3089.43, -3310.56)" xlink:href="#radial-gradient"/><radialGradient id="radial-gradient-3" cx="1254.1" cy="-4216.72" r="57.17" gradientTransform="matrix(1.22, -0.53, 0.23, 0.52, -358, 3155.8)" gradientUnits="userSpaceOnUse"><stop offset="0" stop-color="#fff"/><stop offset="0.88" stop-color="#fff" stop-opacity="0"/></radialGradient></defs><g class="cls-1"><g id="Layer_1" data-name="Layer 1"><circle class="cls-2" cx="169.58" cy="170.32" r="153.45" transform="translate(-74.9 164.92) rotate(-45)"/><circle class="cls-3" cx="157.59" cy="158.33" r="153.45" transform="translate(-69.93 152.93) rotate(-45)"/><circle class="cls-3" cx="153.45" cy="153.45" r="127.88"/><circle class="cls-4" cx="158.97" cy="156.65" r="127.88"/><path class="cls-5" d="M249.18,69.13A127.85,127.85,0,0,1,68.39,249.92,127.85,127.85,0,1,0,249.18,69.13Z" transform="translate(-4.14 -4.88)"/><path class="cls-6" d="M36.9,163.12a127.88,127.88,0,0,1,194.81-109,127.86,127.86,0,1,0-141,213.13A127.66,127.66,0,0,1,36.9,163.12Z" transform="translate(-4.14 -4.88)"/><path class="cls-7" d="M280.2,250.53,299,252.61a154.52,154.52,0,0,1-17.66,22.71l-21.85-2.42A154.9,154.9,0,0,0,280.2,250.53Z" transform="translate(-4.14 -4.88)"/><path class="cls-7" d="M53,270.13a153.41,153.41,0,0,0,151.5,34.11l33,3.65A153.39,153.39,0,0,1,53,270.13Z" transform="translate(-4.14 -4.88)"/><path class="cls-7" d="M311.27,160.93A152.93,152.93,0,0,0,274.38,57.77a153.36,153.36,0,0,1,30.4,184.6l-17.74-2A152.77,152.77,0,0,0,311.27,160.93Z" transform="translate(-4.14 -4.88)"/><path class="cls-8" d="M157.59,170.32c48.94,0,93.54-9.68,127.15-25.55a127.88,127.88,0,0,0-254.31,0C64.05,160.64,108.65,170.32,157.59,170.32Z" transform="translate(-4.14 -4.88)"/><path class="cls-9" d="M65.9,52.82C78.43,40.29,88.78,27.94,95.45,18A154,154,0,0,0,21.11,88.2C31.81,83.11,48.68,70,65.9,52.82Z" transform="translate(-4.14 -4.88)"/><path class="cls-10" d="M277,247.46c7.21,16.55-18.16,43.58-56.69,60.38s-75.6,17-82.81.45,18.16-43.59,56.68-60.38S269.75,230.91,277,247.46Z" transform="translate(-4.14 -4.88)"/><g class="cls-11"><path class="cls-12" d="M49.14,49.77l161.2,252.7c4.57-1.67,9-3.57,13.39-5.65L59.89,40Q54.29,44.63,49.14,49.77Z" transform="translate(-4.14 -4.88)"/><path class="cls-12" d="M302.7,208.2,173.52,5.7a155.3,155.3,0,0,0-15.93-.82,153.33,153.33,0,0,0-45.86,7L271.06,261.62A153.14,153.14,0,0,0,302.7,208.2Z" transform="translate(-4.14 -4.88)"/></g><g id="metltvlogo"><g id="Group_5" data-name="Group 5"><path id="Path_7" data-name="Path 7" class="cls-13" d="M67.65,180.3v-24a15.1,15.1,0,0,1,15-15.06,14.64,14.64,0,0,1,8.17,2.42,15,15,0,0,1,5.45,6.24,15,15,0,0,1,28.65,6.4v24H122v-24a12.15,12.15,0,0,0-24.3,0h0v24h-2.9v-24a12.16,12.16,0,0,0-24.31,0v24Z" transform="translate(-4.14 -4.88)"/><path id="Path_8" data-name="Path 8" class="cls-13" d="M150.6,141.3a20.29,20.29,0,0,1,20.14,18.38c.07.72.11,1.34.11,1.87l0,.52,0,.5H133.29A17.32,17.32,0,0,0,160.2,176a17.06,17.06,0,0,0,6.27-7.51h3.09a19.88,19.88,0,0,1-7.27,9.56A20.23,20.23,0,1,1,150.6,141.3Zm17.25,18.38a17.35,17.35,0,0,0-34.5,0Z" transform="translate(-4.14 -4.88)"/><path id="Path_9" data-name="Path 9" class="cls-13" d="M199.1,179.43a14.92,14.92,0,0,1-22.85-12.56V136h2.92v6.77h19.94v2.9h-20v21.25a12,12,0,0,0,19.94,8.9v3.66Z" transform="translate(-4.14 -4.88)"/><path id="Path_10" data-name="Path 10" class="cls-13" d="M205.68,132.19h2.9v48.13h-2.9Z" transform="translate(-4.14 -4.88)"/><path id="Path_11" data-name="Path 11" class="cls-13" d="M216.77,180a2,2,0,0,1-1.48.61,2.06,2.06,0,0,1-2.1-2v-.1a2.05,2.05,0,0,1,.6-1.48,2.13,2.13,0,0,1,1.5-.63,2,2,0,0,1,1.48.63,2,2,0,0,1,.61,1.48A2.15,2.15,0,0,1,216.77,180Z" transform="translate(-4.14 -4.88)"/><path id="Path_12" data-name="Path 12" class="cls-13" d="M233.11,179.83a8.23,8.23,0,0,1-12.6-6.93V155.85h1.61v3.74h11v1.59h-11V172.9a6.59,6.59,0,0,0,11,4.91Z" transform="translate(-4.14 -4.88)"/><path id="Path_13" data-name="Path 13" class="cls-13" d="M258.25,159.59,247,181.09l-11.3-21.5h1.79l9.51,18,9.51-18Z" transform="translate(-4.14 -4.88)"/></g></g><g id="metltvlogo-2" data-name="metltvlogo"><g id="Group_5-2" data-name="Group 5"><path id="Path_7-2" data-name="Path 7" class="cls-14" d="M66.38,178.43v-24a15.1,15.1,0,0,1,15-15.06,14.61,14.61,0,0,1,8.16,2.42A14.92,14.92,0,0,1,95,148.07a15,15,0,0,1,28.65,6.4v24h-2.9v-24a12.16,12.16,0,0,0-24.31,0h0v24H93.57v-24a12.16,12.16,0,0,0-24.31,0v24Z" transform="translate(-4.14 -4.88)"/><path id="Path_8-2" data-name="Path 8" class="cls-14" d="M149.33,139.44a20.29,20.29,0,0,1,20.14,18.38c.07.72.11,1.34.11,1.87l0,.52,0,.5H132a17.32,17.32,0,0,0,26.91,13.41,17.06,17.06,0,0,0,6.27-7.51h3.09a19.88,19.88,0,0,1-7.27,9.56,20.23,20.23,0,1,1-11.69-36.73Zm17.24,18.38a17.34,17.34,0,0,0-34.49,0Z" transform="translate(-4.14 -4.88)"/><path id="Path_9-2" data-name="Path 9" class="cls-14" d="M197.83,177.57A14.92,14.92,0,0,1,175,165V134.09h2.92v6.77h19.93v2.89H177.89V165a12,12,0,0,0,19.94,8.9v3.67Z" transform="translate(-4.14 -4.88)"/><path id="Path_10-2" data-name="Path 10" class="cls-14" d="M204.41,130.33h2.9v48.13h-2.9Z" transform="translate(-4.14 -4.88)"/><path id="Path_11-2" data-name="Path 11" class="cls-14" d="M215.5,178.12a2,2,0,0,1-1.48.61,2.06,2.06,0,0,1-2.1-2v-.1a2,2,0,0,1,.6-1.48,2.11,2.11,0,0,1,1.5-.63,2,2,0,0,1,1.48.63,2,2,0,0,1,.6,1.48A2.1,2.1,0,0,1,215.5,178.12Z" transform="translate(-4.14 -4.88)"/><path id="Path_12-2" data-name="Path 12" class="cls-14" d="M231.84,178a8.23,8.23,0,0,1-12.6-6.93V154h1.61v3.73h11v1.6h-11V171a6.59,6.59,0,0,0,11,4.91Z" transform="translate(-4.14 -4.88)"/><path id="Path_13-2" data-name="Path 13" class="cls-14" d="M257,157.73l-11.29,21.5-11.3-21.5h1.79l9.51,18,9.51-18Z" transform="translate(-4.14 -4.88)"/></g></g></g></g></svg>