<svg xmlns="http://www.w3.org/2000/svg" xmlns:xlink="http://www.w3.org/1999/xlink" viewBox="0 0 318.89 318.89"><defs><style>.cls-1{isolation:isolate;}.cls-2{fill:#10785a;}.cls-3{fill:#18b587;}.cls-4{fill:#1e9c78;}.cls-5{opacity:0.5;mix-blend-mode:multiply;fill:url(#linear-gradient);}.cls-12,.cls-6{fill:#fff;}.cls-6{opacity:0.7;}.cls-10,.cls-11,.cls-6,.cls-8,.cls-9{mix-blend-mode:overlay;}.cls-7{fill:#14916c;}.cls-10,.cls-8,.cls-9{opacity:0.9;}.cls-8{fill:url(#radial-gradient);}.cls-9{fill:url(#radial-gradient-2);}.cls-10{fill:url(#radial-gradient-3);}.cls-11{opacity:0.2;}.cls-13{fill:#b8ffea;}</style><linearGradient id="linear-gradient" x1="-27.24" y1="12.99" x2="273.67" y2="249.16" gradientUnits="userSpaceOnUse"><stop offset="0" stop-color="#fbe36e" stop-opacity="0"/><stop offset="0.39" stop-color="#fbe26e" stop-opacity="0.01"/><stop offset="0.53" stop-color="#f9e16c" stop-opacity="0.04"/><stop offset="0.63" stop-color="#f6dd69" stop-opacity="0.1"/><stop offset="0.71" stop-color="#f3d864" stop-opacity="0.18"/><stop offset="0.78" stop-color="#eed25e" stop-opacity="0.29"/><stop offset="0.84" stop-color="#e8ca57" stop-opacity="0.42"/><stop offset="0.9" stop-color="#e0c14f" stop-opacity="0.58"/><stop offset="0.95" stop-color="#d8b645" stop-opacity="0.76"/><stop offset="0.99" stop-color="#cfaa3a" stop-opacity="0.97"/><stop offset="1" stop-color="#cda838"/></linearGradient><radialGradient id="radial-gradient" cx="-862.61" cy="520.74" r="86.47" gradientTransform="translate(3004.97 -1368.07) scale(3.3 3.3)" gradientUnits="userSpaceOnUse"><stop offset="0" stop-color="#fff"/><stop offset="1" stop-color="#fff" stop-opacity="0"/></radialGradient><radialGradient id="radial-gradient-2" cx="-894.7" cy="428.6" r="16.34" gradientTransform="matrix(2.44, -2.23, 0.68, 0.75, 1939.67, -2265.31)" xlink:href="#radial-gradient"/><radialGradient id="radial-gradient-3" cx="1431.29" cy="-4717.58" r="57.17" gradientTransform="matrix(1.22, -0.53, 0.23, 0.52, -458.47, 3512.3)" gradientUnits="userSpaceOnUse"><stop offset="0" stop-color="#fff"/><stop offset="0.88" stop-color="#fff" stop-opacity="0"/></radialGradient></defs><g class="cls-1"><g id="Layer_1" data-name="Layer 1"><circle class="cls-2" cx="170.67" cy="169.95" r="153.45" transform="translate(-75.42 165.94) rotate(-45)"/><circle class="cls-3" cx="158.68" cy="157.97" r="153.45" transform="translate(-70.45 153.96) rotate(-45)"/><circle class="cls-4" cx="153.45" cy="153.45" r="127.88"/><circle class="cls-5" cx="153.45" cy="154.8" r="127.88"/><path class="cls-6" d="M250.27,68.77A127.85,127.85,0,0,1,69.48,249.56,127.85,127.85,0,1,0,250.27,68.77Z" transform="translate(-5.23 -4.51)"/><path class="cls-7" d="M38,162.76a127.88,127.88,0,0,1,194.8-109,127.86,127.86,0,1,0-141,213.13A127.69,127.69,0,0,1,38,162.76Z" transform="translate(-5.23 -4.51)"/><path class="cls-3" d="M281.29,250.16l18.83,2.09A153.24,153.24,0,0,1,282.46,275l-21.85-2.41A154.45,154.45,0,0,0,281.29,250.16Z" transform="translate(-5.23 -4.51)"/><path class="cls-3" d="M54.05,269.77a153.41,153.41,0,0,0,151.5,34.11l33,3.65A153.39,153.39,0,0,1,54.05,269.77Z" transform="translate(-5.23 -4.51)"/><path class="cls-3" d="M312.36,160.57A152.88,152.88,0,0,0,275.47,57.41,153.39,153.39,0,0,1,305.88,242l-17.74-2A152.76,152.76,0,0,0,312.36,160.57Z" transform="translate(-5.23 -4.51)"/><path class="cls-8" d="M158.68,170c48.94,0,93.54-9.67,127.15-25.54a127.88,127.88,0,0,0-254.31,0C65.14,160.28,109.74,170,158.68,170Z" transform="translate(-5.23 -4.51)"/><path class="cls-9" d="M67,52.46c12.53-12.53,22.88-24.88,29.55-34.8A154,154,0,0,0,22.2,87.84C32.9,82.75,49.77,69.67,67,52.46Z" transform="translate(-5.23 -4.51)"/><path class="cls-10" d="M278.06,247.1c7.21,16.55-18.16,43.58-56.68,60.38s-75.6,17-82.82.45,18.16-43.59,56.68-60.39S270.84,230.54,278.06,247.1Z" transform="translate(-5.23 -4.51)"/><g class="cls-11"><path class="cls-12" d="M50.23,49.41l161.21,252.7c4.57-1.67,9-3.57,13.38-5.65L61,39.63Q55.39,44.27,50.23,49.41Z" transform="translate(-5.23 -4.51)"/><path class="cls-12" d="M303.8,207.84,174.61,5.34a155.14,155.14,0,0,0-15.93-.83,153.34,153.34,0,0,0-45.86,7L272.16,261.26A153.29,153.29,0,0,0,303.8,207.84Z" transform="translate(-5.23 -4.51)"/></g><g id="metltvlogo"><g id="Group_5" data-name="Group 5"><path id="Path_7" data-name="Path 7" class="cls-2" d="M68.74,179.94V156a15.1,15.1,0,0,1,15-15.06,14.61,14.61,0,0,1,8.16,2.42,15,15,0,0,1,5.45,6.24A15,15,0,0,1,126,156v24h-2.9V156a12.15,12.15,0,1,0-24.3,0h0v24h-2.9V156a12.15,12.15,0,0,0-24.3,0v24Z" transform="translate(-5.23 -4.51)"/><path id="Path_8" data-name="Path 8" class="cls-2" d="M151.69,140.94a20.3,20.3,0,0,1,20.15,18.38c.07.72.1,1.34.1,1.87l0,.52,0,.5H134.38a17.33,17.33,0,0,0,26.92,13.41,17.1,17.1,0,0,0,6.26-7.51h3.09a19.88,19.88,0,0,1-7.27,9.56,20.23,20.23,0,1,1-11.69-36.73Zm17.25,18.38a17.35,17.35,0,0,0-34.5,0Z" transform="translate(-5.23 -4.51)"/><path id="Path_9" data-name="Path 9" class="cls-2" d="M200.19,179.07a14.92,14.92,0,0,1-22.85-12.56V135.59h2.92v6.77H200.2v2.9H180.26v21.25a11.95,11.95,0,0,0,19.93,8.89v3.67Z" transform="translate(-5.23 -4.51)"/><path id="Path_10" data-name="Path 10" class="cls-2" d="M206.77,131.83h2.9V180h-2.9Z" transform="translate(-5.23 -4.51)"/><path id="Path_11" data-name="Path 11" class="cls-2" d="M217.86,179.62a2,2,0,0,1-1.47.61,2.07,2.07,0,0,1-2.11-2v-.1a2,2,0,0,1,.61-1.48,2.09,2.09,0,0,1,1.5-.63,2,2,0,0,1,1.47.63,2,2,0,0,1,.61,1.48A2.11,2.11,0,0,1,217.86,179.62Z" transform="translate(-5.23 -4.51)"/><path id="Path_12" data-name="Path 12" class="cls-2" d="M234.2,179.47a8.23,8.23,0,0,1-12.6-6.93v-17h1.61v3.73h11v1.6h-11v11.72a6.59,6.59,0,0,0,11,4.91Z" transform="translate(-5.23 -4.51)"/><path id="Path_13" data-name="Path 13" class="cls-2" d="M259.34,159.23,248,180.73l-11.3-21.5h1.79l9.51,18,9.51-18Z" transform="translate(-5.23 -4.51)"/></g></g><g id="metltvlogo-2" data-name="metltvlogo"><g id="Group_5-2" data-name="Group 5"><path id="Path_7-2" data-name="Path 7" class="cls-13" d="M67.47,178.07v-24a15.1,15.1,0,0,1,15-15.06,14.62,14.62,0,0,1,8.17,2.42,14.9,14.9,0,0,1,5.45,6.24,15,15,0,0,1,28.65,6.4v24h-2.9v-24a12.15,12.15,0,0,0-24.3,0h0v24h-2.9v-24a12.15,12.15,0,1,0-24.3,0v24Z" transform="translate(-5.23 -4.51)"/><path id="Path_8-2" data-name="Path 8" class="cls-13" d="M150.42,139.08a20.29,20.29,0,0,1,20.14,18.38c.07.72.11,1.34.11,1.87l0,.52,0,.5H133.11A17.32,17.32,0,0,0,160,173.76a17.06,17.06,0,0,0,6.27-7.51h3.09a19.88,19.88,0,0,1-7.27,9.56,20.23,20.23,0,1,1-11.69-36.73Zm17.25,18.38a17.35,17.35,0,0,0-34.5,0Z" transform="translate(-5.23 -4.51)"/><path id="Path_9-2" data-name="Path 9" class="cls-13" d="M198.92,177.21a14.92,14.92,0,0,1-22.85-12.56V133.73H179v6.77h19.94v2.89H179v21.25a11.95,11.95,0,0,0,19.93,8.9v3.67Z" transform="translate(-5.23 -4.51)"/><path id="Path_10-2" data-name="Path 10" class="cls-13" d="M205.5,130h2.9V178.1h-2.9Z" transform="translate(-5.23 -4.51)"/><path id="Path_11-2" data-name="Path 11" class="cls-13" d="M216.59,177.76a2,2,0,0,1-1.48.6,2.06,2.06,0,0,1-2.1-2v-.09a2,2,0,0,1,.6-1.48,2.09,2.09,0,0,1,1.5-.63,2,2,0,0,1,1.48.63,2,2,0,0,1,.61,1.48A2.15,2.15,0,0,1,216.59,177.76Z" transform="translate(-5.23 -4.51)"/><path id="Path_12-2" data-name="Path 12" class="cls-13" d="M232.93,177.61a8.23,8.23,0,0,1-12.6-6.93V153.63h1.61v3.73h11V159h-11v11.72a6.59,6.59,0,0,0,11,4.91Z" transform="translate(-5.23 -4.51)"/><path id="Path_13-2" data-name="Path 13" class="cls-13" d="M258.07,157.37l-11.3,21.5-11.3-21.5h1.79l9.51,18,9.51-18Z" transform="translate(-5.23 -4.51)"/></g></g></g></g></svg>