<svg xmlns="http://www.w3.org/2000/svg" xmlns:xlink="http://www.w3.org/1999/xlink" viewBox="0 0 318.89 318.89"><defs><style>.cls-1{isolation:isolate;}.cls-2{fill:url(#linear-gradient);}.cls-3{fill:#f53c6f;}.cls-4{fill:url(#linear-gradient-2);}.cls-5{opacity:0.5;fill:url(#linear-gradient-3);}.cls-10,.cls-5,.cls-7,.cls-8,.cls-9{mix-blend-mode:multiply;}.cls-15,.cls-6{fill:#fff;}.cls-6{opacity:0.7;}.cls-11,.cls-12,.cls-13,.cls-14,.cls-6{mix-blend-mode:overlay;}.cls-7{fill:url(#linear-gradient-4);}.cls-8{fill:url(#linear-gradient-5);}.cls-9{fill:url(#linear-gradient-6);}.cls-10{fill:url(#linear-gradient-7);}.cls-11,.cls-12,.cls-13{opacity:0.9;}.cls-11{fill:url(#radial-gradient);}.cls-12{fill:url(#radial-gradient-2);}.cls-13{fill:url(#radial-gradient-3);}.cls-14{opacity:0.2;}.cls-16{fill:url(#linear-gradient-8);}.cls-17{fill:url(#linear-gradient-9);}.cls-18{fill:url(#linear-gradient-10);}.cls-19{fill:url(#linear-gradient-11);}.cls-20{fill:url(#linear-gradient-12);}.cls-21{fill:url(#linear-gradient-13);}.cls-22{fill:#ffdef4;}</style><linearGradient id="linear-gradient" x1="18.22" y1="169.41" x2="325.12" y2="169.41" gradientTransform="translate(170.07 -71.77) rotate(45)" gradientUnits="userSpaceOnUse"><stop offset="0" stop-color="#f53c6f"/><stop offset="0.2" stop-color="#e03765"/><stop offset="0.35" stop-color="#fb6e96"/><stop offset="0.52" stop-color="#f54072"/><stop offset="0.82" stop-color="#f53c6f"/><stop offset="1" stop-color="#f53c6f"/></linearGradient><linearGradient id="linear-gradient-2" x1="-24.4" y1="280.97" x2="328.59" y2="27.88" gradientUnits="userSpaceOnUse"><stop offset="0" stop-color="#f53c6f"/><stop offset="0.18" stop-color="#d1335f"/><stop offset="0.48" stop-color="#f56c92"/><stop offset="0.65" stop-color="#f56990"/><stop offset="0.99" stop-color="#b32c51"/><stop offset="1" stop-color="#cd38af"/></linearGradient><linearGradient id="linear-gradient-3" x1="-29.83" y1="12.92" x2="271.08" y2="249.09" gradientUnits="userSpaceOnUse"><stop offset="0" stop-color="#fbe36e" stop-opacity="0"/><stop offset="0.39" stop-color="#fbe16f" stop-opacity="0.01"/><stop offset="0.53" stop-color="#f9dc71" stop-opacity="0.04"/><stop offset="0.63" stop-color="#f6d274" stop-opacity="0.1"/><stop offset="0.71" stop-color="#f3c479" stop-opacity="0.18"/><stop offset="0.78" stop-color="#eeb180" stop-opacity="0.29"/><stop offset="0.84" stop-color="#e89b89" stop-opacity="0.42"/><stop offset="0.9" stop-color="#e08093" stop-opacity="0.58"/><stop offset="0.95" stop-color="#d8609e" stop-opacity="0.76"/><stop offset="0.99" stop-color="#cf3eab" stop-opacity="0.97"/><stop offset="1" stop-color="#cd38ad"/></linearGradient><linearGradient id="linear-gradient-4" x1="31.8" y1="147.97" x2="233.8" y2="147.97" gradientUnits="userSpaceOnUse"><stop offset="0" stop-color="#fc17f4"/><stop offset="0.18" stop-color="#df08a9"/><stop offset="0.48" stop-color="#ff1fdd"/><stop offset="0.65" stop-color="#fb6eeb"/><stop offset="0.8" stop-color="#f500f5"/><stop offset="1" stop-color="#cd38c8"/></linearGradient><linearGradient id="linear-gradient-5" x1="-1429.3" y1="1735.05" x2="-1161.54" y2="1735.05" gradientTransform="matrix(-0.02, 1, 1, 0.02, -1480.04, 1448.75)" xlink:href="#linear-gradient-4"/><linearGradient id="linear-gradient-6" x1="-1429.3" y1="1751.17" x2="-1161.54" y2="1751.17" gradientTransform="matrix(-0.02, 1, 1, 0.02, -1480.04, 1448.75)" xlink:href="#linear-gradient-4"/><linearGradient id="linear-gradient-7" x1="-1429.31" y1="1601.59" x2="-1161.54" y2="1601.59" gradientTransform="matrix(-0.02, 1, 1, 0.02, -1480.04, 1448.75)" gradientUnits="userSpaceOnUse"><stop offset="0" stop-color="#f53c6f"/><stop offset="0.18" stop-color="#f53c6f"/><stop offset="0.48" stop-color="#f53c6f"/><stop offset="0.65" stop-color="#fb6eeb"/><stop offset="0.8" stop-color="#f500f5"/><stop offset="1" stop-color="#cd38c8"/></linearGradient><radialGradient id="radial-gradient" cx="159.68" cy="349.64" r="285.33" gradientUnits="userSpaceOnUse"><stop offset="0" stop-color="#fff"/><stop offset="1" stop-color="#fff" stop-opacity="0"/></radialGradient><radialGradient id="radial-gradient-2" cx="53.78" cy="45.61" r="53.91" gradientTransform="matrix(0.74, -0.67, 0.21, 0.23, 4.65, 71.58)" xlink:href="#radial-gradient"/><radialGradient id="radial-gradient-3" cx="2719.27" cy="-5869.69" r="188.65" gradientTransform="matrix(0.37, -0.16, 0.07, 0.16, -388.96, 1648.01)" gradientUnits="userSpaceOnUse"><stop offset="0" stop-color="#fff"/><stop offset="0.88" stop-color="#fff" stop-opacity="0"/></radialGradient><linearGradient id="linear-gradient-8" x1="60.93" y1="155.93" x2="125.7" y2="155.93" gradientUnits="userSpaceOnUse"><stop offset="0" stop-color="#cd3894"/><stop offset="0.2" stop-color="#f500b8"/><stop offset="0.35" stop-color="#fb6e96"/><stop offset="0.52" stop-color="#ff1fbc"/><stop offset="0.82" stop-color="#df08b0"/><stop offset="1" stop-color="#fc17b0"/></linearGradient><linearGradient id="linear-gradient-9" x1="127.1" y1="156.71" x2="174.12" y2="156.71" xlink:href="#linear-gradient-8"/><linearGradient id="linear-gradient-10" x1="175.48" y1="153.87" x2="203.93" y2="153.87" xlink:href="#linear-gradient-8"/><linearGradient id="linear-gradient-11" x1="200.29" y1="147.18" x2="207.69" y2="147.18" xlink:href="#linear-gradient-8"/><linearGradient id="linear-gradient-12" x1="214.44" y1="174.59" x2="223.2" y2="174.59" xlink:href="#linear-gradient-8"/><linearGradient id="linear-gradient-13" x1="222.16" y1="164.04" x2="266.31" y2="164.04" xlink:href="#linear-gradient-8"/></defs><g class="cls-1"><g id="Layer_1" data-name="Layer 1"><circle class="cls-2" cx="171.67" cy="169.41" r="153.45" transform="translate(-75.74 167.04) rotate(-45)"/><circle class="cls-3" cx="159.68" cy="157.42" r="153.45" transform="translate(-70.77 155.05) rotate(-45)"/><circle class="cls-4" cx="153.45" cy="153.45" r="127.88"/><circle class="cls-5" cx="150.86" cy="154.74" r="127.88"/><path class="cls-6" d="M251.27,68.23A127.85,127.85,0,0,1,70.49,249,127.85,127.85,0,1,0,251.27,68.23Z" transform="translate(-6.23 -3.97)"/><path class="cls-7" d="M39,162.22a127.88,127.88,0,0,1,194.8-109,127.87,127.87,0,1,0-141,213.14A127.7,127.7,0,0,1,39,162.22Z" transform="translate(-6.23 -3.97)"/><path class="cls-8" d="M282.29,249.62l18.83,2.09a153.76,153.76,0,0,1-17.66,22.7L261.61,272A153.86,153.86,0,0,0,282.29,249.62Z" transform="translate(-6.23 -3.97)"/><path class="cls-9" d="M313.27,160.51A152.83,152.83,0,0,0,276.38,57.35,153.35,153.35,0,0,1,306.79,242l-17.74-2A152.76,152.76,0,0,0,313.27,160.51Z" transform="translate(-6.23 -3.97)"/><path class="cls-10" d="M55.06,269.22a153.32,153.32,0,0,0,151.49,34.11l33,3.66A153.37,153.37,0,0,1,55.06,269.22Z" transform="translate(-6.23 -3.97)"/><path class="cls-11" d="M159.68,169.41c48.94,0,93.54-9.67,127.15-25.55a127.87,127.87,0,0,0-254.3,0C66.14,159.74,110.74,169.41,159.68,169.41Z" transform="translate(-6.23 -3.97)"/><path class="cls-12" d="M68,51.92C80.53,39.39,90.87,27,97.55,17.12A154,154,0,0,0,23.2,87.3C33.9,82.21,50.78,69.12,68,51.92Z" transform="translate(-6.23 -3.97)"/><path class="cls-13" d="M279.06,246.55c7.22,16.55-18.16,43.59-56.68,60.38s-75.6,17-82.82.45S157.72,263.8,196.24,247,271.84,230,279.06,246.55Z" transform="translate(-6.23 -3.97)"/><g class="cls-14"><path class="cls-15" d="M51.23,48.86l161.21,252.7q6.85-2.51,13.38-5.64L62,39.09Q56.38,43.72,51.23,48.86Z" transform="translate(-6.23 -3.97)"/><path class="cls-15" d="M304.8,207.3,175.62,4.79A155.49,155.49,0,0,0,159.68,4a153.39,153.39,0,0,0-45.86,7L273.16,260.72A153.48,153.48,0,0,0,304.8,207.3Z" transform="translate(-6.23 -3.97)"/></g><path class="cls-16" d="M107.63,133.2a18,18,0,0,0-14.32,7.1,17.94,17.94,0,0,0-4.56-4.21,17.58,17.58,0,0,0-9.81-2.92h0a18.15,18.15,0,0,0-18,18.06v25.28a2.17,2.17,0,0,0,2.17,2.17h3a2.18,2.18,0,0,0,2.18-2.17V151.23a10.65,10.65,0,0,1,21.29,0v25.28a2.17,2.17,0,0,0,2.17,2.17h3.06A2.17,2.17,0,0,0,97,176.51V151.23a10.65,10.65,0,0,1,21.29,0v25.28a2.17,2.17,0,0,0,2.17,2.17h3.06a2.17,2.17,0,0,0,2.17-2.17V151.23a18.06,18.06,0,0,0-18.07-18Z" transform="translate(-6.23 -3.97)"/><path class="cls-17" d="M150.59,133.2a23.51,23.51,0,1,0,13.59,42.69,23.12,23.12,0,0,0,8.46-11.12,2.17,2.17,0,0,0-2-2.9h-3.25a2.17,2.17,0,0,0-2,1.31,15.76,15.76,0,0,1-5.82,7,16,16,0,0,1-8,2.69c-.31,0-.63,0-.94,0A16.1,16.1,0,0,1,134.8,160h37.1a2.17,2.17,0,0,0,2.16-2.06l.06-1.2c0-.61,0-1.34-.12-2.17A23.5,23.5,0,0,0,150.59,133.2ZM135,152.59a16.22,16.22,0,0,1,13.85-11.9,14.91,14.91,0,0,1,1.75-.1,16.08,16.08,0,0,1,15.57,12Z" transform="translate(-6.23 -3.97)"/><path class="cls-18" d="M201.76,134.7H182.9v-5a2.17,2.17,0,0,0-2.17-2.17h-3.08a2.17,2.17,0,0,0-2.17,2.17v32.62a17.9,17.9,0,0,0,27.42,15.07,2.18,2.18,0,0,0,1-1.84v-3.86a2.16,2.16,0,0,0-1.29-2,2.08,2.08,0,0,0-.88-.19,2.17,2.17,0,0,0-1.45.55,10.44,10.44,0,0,1-17.41-7.77V142.1h18.87a2.17,2.17,0,0,0,2.17-2.17v-3.06A2.17,2.17,0,0,0,201.76,134.7Z" transform="translate(-6.23 -3.97)"/><rect class="cls-19" x="200.29" y="119.62" width="7.4" height="55.12" rx="2.17"/><path class="cls-20" d="M218.81,170.2a4.39,4.39,0,0,0-4.37,4.32v.23a4.37,4.37,0,0,0,4.34,4.24v-2.17l.09,2.17a4.35,4.35,0,0,0,4.33-4.35,4.4,4.4,0,0,0-4.39-4.44Z" transform="translate(-6.23 -3.97)"/><path class="cls-21" d="M266,153.54a2.17,2.17,0,0,0-1.86-1h-1.88a2.16,2.16,0,0,0-1.92,1.16L252.22,169l-8.11-15.38a2.19,2.19,0,0,0-1.92-1.16H240.3a2.14,2.14,0,0,0-1.35.5,2.1,2.1,0,0,0-1.33-.5H228.2v-1.76a2.17,2.17,0,0,0-2.17-2.17h-1.7a2.17,2.17,0,0,0-2.17,2.17v18a10.86,10.86,0,0,0,16.62,9.13,2.19,2.19,0,0,0,1-1.85v-2.12a2.18,2.18,0,0,0-1.28-2,2.33,2.33,0,0,0-.89-.19,2.16,2.16,0,0,0-1.45.56,4.77,4.77,0,0,1-8-3.56V158.52h9.42a2.11,2.11,0,0,0,1.75-1l10.93,20.8a2.16,2.16,0,0,0,1.92,1.16,2.19,2.19,0,0,0,1.92-1.16l11.92-22.69A2.16,2.16,0,0,0,266,153.54Z" transform="translate(-6.23 -3.97)"/><g id="metltvlogo"><g id="Group_5" data-name="Group 5"><path id="Path_7" data-name="Path 7" class="cls-22" d="M63.25,176.51V151.23A15.92,15.92,0,0,1,79.1,135.35a15.34,15.34,0,0,1,8.61,2.55,15.79,15.79,0,0,1,5.75,6.58,15.72,15.72,0,0,1,5.75-6.58,15.88,15.88,0,0,1,24.47,13.33v25.28h-3.06V151.23a12.82,12.82,0,1,0-25.63,0h0v25.28H91.93V151.23a12.82,12.82,0,0,0-25.64,0v25.28Z" transform="translate(-6.23 -3.97)"/><path id="Path_8" data-name="Path 8" class="cls-22" d="M150.74,135.38A21.4,21.4,0,0,1,172,154.76c.07.76.11,1.42.11,2l0,.56,0,.53H132.49A18.25,18.25,0,0,0,160.87,172a18,18,0,0,0,6.62-7.91h3.25a21,21,0,0,1-7.66,10.08,21.34,21.34,0,1,1-12.34-38.74Zm18.19,19.38a18.3,18.3,0,0,0-36.38,0Z" transform="translate(-6.23 -3.97)"/><path id="Path_9" data-name="Path 9" class="cls-22" d="M201.9,175.59a15.73,15.73,0,0,1-24.1-13.24V129.74h3.08v7.13h21v3.06h-21v22.41a12.61,12.61,0,0,0,21,9.39v3.86Z" transform="translate(-6.23 -3.97)"/><path id="Path_10" data-name="Path 10" class="cls-22" d="M208.84,125.77h3.06v50.77h-3.06Z" transform="translate(-6.23 -3.97)"/><path id="Path_11" data-name="Path 11" class="cls-22" d="M220.54,176.18a2.11,2.11,0,0,1-1.56.63,2.17,2.17,0,0,1-2.22-2.12v-.1a2.11,2.11,0,0,1,.64-1.55,2.14,2.14,0,0,1,1.58-.67,2.06,2.06,0,0,1,1.56.67,2.1,2.1,0,0,1,.64,1.55A2.31,2.31,0,0,1,220.54,176.18Z" transform="translate(-6.23 -3.97)"/><path id="Path_12" data-name="Path 12" class="cls-22" d="M237.77,176a8.68,8.68,0,0,1-13.29-7.31v-18h1.7v3.93h11.59v1.69H226.18v12.36a6.95,6.95,0,0,0,11.59,5.18Z" transform="translate(-6.23 -3.97)"/><path id="Path_13" data-name="Path 13" class="cls-22" d="M264.28,154.67l-11.91,22.68-11.92-22.68h1.89l10,19,10-19Z" transform="translate(-6.23 -3.97)"/></g></g></g></g></svg>