<svg id="add_7_" data-name="add (7)" xmlns="http://www.w3.org/2000/svg" width="18" height="18" viewBox="0 0 18 18">
  <g id="Group_1567" data-name="Group 1567">
    <g id="Group_1566" data-name="Group 1566">
      <path id="Path_6780" data-name="Path 6780" d="M9,0a9,9,0,1,0,9,9A9.01,9.01,0,0,0,9,0ZM9,16.606A7.606,7.606,0,1,1,16.606,9,7.615,7.615,0,0,1,9,16.606Z" fill="#18b587"/>
    </g>
  </g>
  <g id="Group_1569" data-name="Group 1569" transform="translate(4.817 4.754)">
    <g id="Group_1568" data-name="Group 1568">
      <path id="Path_6781" data-name="Path 6781" d="M144.69,138.724H141.9v-2.789a.7.7,0,0,0-1.394,0v2.789h-2.789a.7.7,0,0,0,0,1.394h2.789v2.789a.7.7,0,1,0,1.394,0v-2.789h2.789a.7.7,0,1,0,0-1.394Z" transform="translate(-137.022 -135.238)" fill="#18b587"/>
    </g>
  </g>
</svg>
