<svg id="Group_1573" data-name="Group 1573" xmlns="http://www.w3.org/2000/svg" xmlns:xlink="http://www.w3.org/1999/xlink" width="309.046" height="194.96" viewBox="0 0 309.046 194.96">
  <defs>
    <radialGradient id="radial-gradient" cx="0.024" cy="-0.05" r="1.129" gradientTransform="translate(0.185) scale(0.631 1)" gradientUnits="objectBoundingBox">
      <stop offset="0" stop-color="#d8d8d8"/>
      <stop offset="0.247" stop-color="#9d9d9d"/>
      <stop offset="0.359" stop-color="#9d9d9d"/>
      <stop offset="0.859" stop-color="#9d9d9d"/>
      <stop offset="0.955" stop-color="#9d9d9d"/>
      <stop offset="1" stop-color="#8a8888"/>
    </radialGradient>
  </defs>
  <g id="Group_1493" data-name="Group 1493">
    <path id="Rectangle_3856" data-name="Rectangle 3856" d="M6.967,0H302.08a6.966,6.966,0,0,1,6.966,6.966V187.993a6.967,6.967,0,0,1-6.967,6.967H6.967A6.967,6.967,0,0,1,0,187.992V6.967A6.967,6.967,0,0,1,6.967,0Z" fill="url(#radial-gradient)"/>
  </g>
  <g id="Group_1494" data-name="Group 1494" transform="translate(1.597 28.832)" opacity="0.2">
    <path id="Path_6117" data-name="Path 6117" d="M36.273,303.383c-.864-.084-1.729,0-1.873.342s.792.6,1.369.6,1.728-.429,1.512-.511S36.273,303.383,36.273,303.383Z" transform="translate(-34.384 -265.99)" fill="#fff"/>
    <path id="Path_6118" data-name="Path 6118" d="M151.335,373.273a2.605,2.605,0,0,0-.393-1.055h.2a3.016,3.016,0,0,0-1.043-1.16c-.34-.172-.943-.271-1.431-.526h-.3a1.321,1.321,0,0,1-.424-.41,2.768,2.768,0,0,0-.728-.713h.248c-.527-.4-1.182-.678-1.473-.564a1.792,1.792,0,0,1-1.729-.087c-.454-.331-1.123-.718-1.567-1.033h-.243a2.4,2.4,0,0,1-.2-.156,3.316,3.316,0,0,0-1.729-.594c-.434,0-.362-.34-1.01.681a4.783,4.783,0,0,0-.434,1.125,1.6,1.6,0,0,1-.584-.023c-.526-.075-.542-.137-.343-.276.059-.035.117-.075.188-.122a3.289,3.289,0,0,0,.768-.634h-.074a1.915,1.915,0,0,0,.121-.156,1.143,1.143,0,0,0,.211-.968h.154a.728.728,0,0,0-1.025-.479.835.835,0,0,0-.27.152c-.506.27-.171.72-1.234.956-.963.213-1.113-.34-.722-.63h.03a.632.632,0,0,1,.08-.067,1.114,1.114,0,0,1,.179-.07,5.076,5.076,0,0,0,1.383-.643c.427-.261.77-.547.77-.722,0-.05-.005-.114-.012-.184h-.146c-.057-.414-.239-1-.7-1a.387.387,0,0,1-.285-.117h.268c-.367-.139-.382-.81-.974-1.686h-.2c-.039-.052-.067-.1-.109-.157a12.731,12.731,0,0,0-.839-.966h.221c-.742-.79-1.575-1.436-2.213-1.309-.862.167-1.356,1-1.788.064a3.448,3.448,0,0,0-.244-.439h-.2c-.347-.5-.7-.7-.921-1.092-.008-.015-.02-.02-.028-.032h.2a.4.4,0,0,1-.035-.057c-.29-.511-1.011,0-1.227-.256l-.216-.254s-.934.254-.432-.512a3.11,3.11,0,0,0,.3-.608h-.1a4.472,4.472,0,0,0,.251-1.122h.129c.027-.261.007-.429-.07-.4a.312.312,0,0,0-.1.107c-.012-.008-.02-.027-.035-.02-.218.085-.579,1.277-.937,1.192s-.072-.256-.792-.767a1.175,1.175,0,0,0-.218-.114h.3a1.545,1.545,0,0,0-1.523,0h.04c-.276.11-.474.28-.474.455a1.08,1.08,0,0,1-.276.666h-.157a3.549,3.549,0,0,1-.36-.666c-.216-.512-1.224-.6-1.729-.084-.234.238-.42-.027-.591-.372h.177c-.214-.407-.4-1-.6-1a1.264,1.264,0,0,0-.66.281,2.29,2.29,0,0,0-.917,1,11.137,11.137,0,0,0-.377,1.694c-.139-.052-.228-.427-.273-.857h-.141a5.782,5.782,0,0,1,0-1.093l.008-.028h.122l.005-.057c.072-.512.866-1.363.288-1.532a1.078,1.078,0,0,0-.83.268c-.3.182-.6.44-.835.606a.543.543,0,0,1-.136.06,1.282,1.282,0,0,0-.419.219,4.1,4.1,0,0,0-1.23,1.23,6.465,6.465,0,0,1-.788,1.137l0,0a1.542,1.542,0,0,1-.2.157c-.43.213-1.026-.03-.887-.276.079-.137-.28-.465-.661-.693h-.291c-.276-.139-.539-.2-.624-.07a.888.888,0,0,1-.2.209,12.26,12.26,0,0,1-1.174.639c-.646.342-1.222-.425-1.368-.767l-.007-.012h-.179a2.15,2.15,0,0,1-.422-1.122h.146c-.018-.117-.032-.248-.042-.4a8.033,8.033,0,0,1,.038-1.287h-.127a9.275,9.275,0,0,1,.188-1.123h.112c.047-.211.1-.407.149-.566a1.424,1.424,0,0,0-.408-1.118h-.2c-.368-.444-.847-.8-1.11-.757-.506.087-1.011.685-1.515.6s-.288-.254-1.081-.254c-.7,0-.268-.137-.064-.708h.1a1.5,1.5,0,0,0,.1-.313,11.954,11.954,0,0,0,.017-1.373h-.127a1.411,1.411,0,0,1,.48-1.013.868.868,0,0,0,.1-.111h.06a1.832,1.832,0,0,0,.42-1.686h-.154c-.084-.316-.238-.554-.422-.583-.506-.085-1.441.254-2.089.167a.985.985,0,0,0-.937,1.364c.216.765-.36,1.276-.576,1.19s-.5-.509-1.3.169-1.08.429-1.872-.34c-.1-.094-.194-.187-.291-.283h.223a5.856,5.856,0,0,1-1.356-1.686h-.166a2.735,2.735,0,0,1-.213-.755c-.013-.124-.023-.243-.037-.368h.141a11.943,11.943,0,0,1-.087-1.684h-.122a3.185,3.185,0,0,1,.177-1.013.783.783,0,0,0,.038-.11h.105a2.757,2.757,0,0,0,.1-1.684H98.1a.443.443,0,0,0-.219-.249c-.3-.116.059-.556.474-.876h.023a3.086,3.086,0,0,1,.273-.2,1.516,1.516,0,0,1,.239-.114,1.969,1.969,0,0,0,.472-.266,3.521,3.521,0,0,0,1.1-1.1l0-.005h-.035c.244-.211.86-.162,1.552-.162a2.3,2.3,0,0,1,1.729.511c.383.246.613.193.75.045a.562.562,0,0,0,.29-.393h-.119a1.089,1.089,0,0,0,.017-.162c0-.254.445-.44,1.309-.353s1.932-.668,2.15-.414.648,1.277,1.08.936.578-.936.72.085.506,2.556,1.152,2.811.29,1.276.938,1.363a.385.385,0,0,0,.285-.1c.348-.109.562-.757.623-1.354h-.129a2.005,2.005,0,0,0-.057-.758c-.033-.094-.075-.223-.119-.367h.162c-.139-.447-.328-1.127-.524-1.684h-.167a2.863,2.863,0,0,0-.362-.758.514.514,0,0,1-.1-.367h.137a1.922,1.922,0,0,1,1.063-1.545,1.231,1.231,0,0,0,.211-.139H113a8.214,8.214,0,0,0,1.016-1.123h.067c.425-.536.825-1.086,1.073-1.338a.884.884,0,0,1,.162-.119c.658-.358,1.79-.554,1.423-1.132-.047-.074-.089-.146-.136-.219h.189a4.4,4.4,0,0,1-.76-1.684h-.149c.005-.5.432-.331.648.005s1.081-.512.866-.936a1.007,1.007,0,0,1-.062-.194h.152a.73.73,0,0,1,.055-.7.349.349,0,0,1,.213-.035.423.423,0,0,0,.387-.119.485.485,0,0,0,.181-.737.285.285,0,0,1-.027-.089h-.134c.055-.291.616-.562,1.035-.42.5.171,2.17.306,2.386-.033.1-.156-.06-.4-.261-.67h.2a2.411,2.411,0,0,1-.6-1.172.992.992,0,0,1,.161-.512h-.072a2.039,2.039,0,0,1,1.145-.763c.5-.084,1.152,0,1.224-.254a.405.405,0,0,1,.052-.105h.092a1.187,1.187,0,0,1,.348-.414c.176-.092.342-.089.375.177.069.6,0,1.619.574,1.619a1.362,1.362,0,0,0,.668-.258l.008,0h0c.37-.231.7-.539.84-.591.216-.087,1.585-.427,1.873-.512a5.085,5.085,0,0,0,1.672-.5c.2-.112.33-.251.263-.434-.1-.268-.194-.532-.291-.767h-.169a2.544,2.544,0,0,0-.323-.594c-.216-.253-.432.085-.722.512a.718.718,0,0,1-.149.146.448.448,0,0,1-.578-.064h-.208c-.144-.343.069-1.358-.434-1.019s-.576.681-.866.511a1.816,1.816,0,0,1-.494-.616h.184c-.077-.132-.129-.238-.129-.238a.8.8,0,0,0,.216-1.19,1.541,1.541,0,0,0-.216-.258h-.249a1.226,1.226,0,0,0-1.281,0h-.04c-.054.028-.107.057-.161.089a4.191,4.191,0,0,1-1.512.593,6.324,6.324,0,0,0-1.3.512,6.771,6.771,0,0,1,.358-1.194h-.1a2,2,0,0,1,.352-.556c.5-.507,2.034-.3,2.481-.794a.678.678,0,0,0,.147-.1.359.359,0,0,1,.072-.052c.512-.181,1.379.393,1.379.393s.04-.049.1-.111l.035.023a2.493,2.493,0,0,1,.283-.283c.089-.042.157-.03.157.114,0,.425-.144,1.535.29,1.535s1.654-.683,1.152-.852c-.3-.1-.132-.253.151-.447h.012c.189-.142.482-.315.727-.509.521-.333,1.428.1,1.7-.065.023-.013.044-.049.067-.072a.412.412,0,0,0,.069-.015c.2-.121.372-.522.626-.76a.493.493,0,0,1,.248-.089c.5,0,.72.765,0,1.274s-.794,1.791-1.153,2.129-.146.765.432.681a9.562,9.562,0,0,0,1.584-.087.755.755,0,0,1,.937.427c.09.157.285.022.424-.106H134a1.674,1.674,0,0,0,.189-.167c.213-.047.916-.172,1.157.188.144.213.27.149.333-.02h.087a.83.83,0,0,0,0-.748c-.152-.3-.333-.608-.507-.937h-.179c-.057-.111-.119-.216-.169-.335a.762.762,0,0,0-1.08-.512.8.8,0,0,1-.9-.276h.243a3.44,3.44,0,0,0-.29-.239c-.36-.253-.648.343-.36-.253.271-.557.415-.75.609-1.192h-.1a8.342,8.342,0,0,0,.6-1.123h.107c.1-.293.07-.547-.353-.663-.936-.256-1.222-.427-1.369-.937a.733.733,0,0,0-.037-.085H131.8a3.924,3.924,0,0,0-1.1-1.123h.254a1.1,1.1,0,0,0-.454-.239c-.288,0-1.667.3-1.741-.121a8.226,8.226,0,0,0-.382-1.324h-.171a2.66,2.66,0,0,0-.363-.68c-.075-.089-.2-.254-.348-.444h.2c-.363-.472-.917-1.21-1.294-1.684h-.2a3.161,3.161,0,0,0-.3-.341c-.218-.172-.5-.087-1.152.934a3.064,3.064,0,0,1-.683.8.892.892,0,0,1-.911.052c-.506-.256-1.06.007-1.562-.673-.249-.335-.012-.571.266-.772h-.013c.246-.172.475-.326.382-.514-.172-.333-.922-.509-1.585-.609h.618c-.34-.075-.7-.122-.988-.157-.72-.085-1.224-1.02-2.3-1.107a18.377,18.377,0,0,0-2.741.171.253.253,0,0,0-.208.124c-.273.094-.3.641-.43,1.495-.11.715.236,1.031.122,1.217a.522.522,0,0,1-.132.057,1.524,1.524,0,0,0-.631.241c-.234.1-.226.214.211.444a6.433,6.433,0,0,1,1.51,1.7,1.723,1.723,0,0,1-.5,1.192c-.5.427-1.006.852-1.3.341a.725.725,0,0,0-.082-.1h.2a.558.558,0,0,0-.81-.219.269.269,0,0,0-.177.409c.214.511.65.767.65,1.277s.648,1.788.216,2.211-.937.087-1.3.171-.72-.681-.434-.85a.272.272,0,0,0,.094-.189h.116a3.457,3.457,0,0,0-.146-1.346s-.045.077-.11.179l-.023-.092a5.523,5.523,0,0,1-.579.807c-.059.013-.1-.037-.08-.211a1.6,1.6,0,0,0-.266-1.023h-.166a.945.945,0,0,1-.062-.338,1.4,1.4,0,0,0-.295-.785h.2a1.025,1.025,0,0,0-1.05-.556,4.558,4.558,0,0,1-2.468.06,7.227,7.227,0,0,1-2.737-1.021,2.69,2.69,0,0,0-.331-.167h-.388a1.281,1.281,0,0,0-.727,0h-.132a1.8,1.8,0,0,1-.3.082.219.219,0,0,1-.208-.082h-.2c-.156-.3-.187-.907-.536-1.123H102a.507.507,0,0,0-.239-.156c-.648-.171-.234-.362-.38-1.467a.511.511,0,0,0-.012-.062h-.149c-.107-.626-.261-.758.117-1.123h.047a7.874,7.874,0,0,1,1.025-.839,8.487,8.487,0,0,0,.978-.849h-.05c.522-.539.7-.82,1.532-.934,1.225-.172,1.674.768,1.674.342a4.5,4.5,0,0,1,.057-.531h.122c.057-.415.157-.981.239-1.324.027.829,1.431.922.79,1.513s-.288.681.216.681a4.043,4.043,0,0,0,1.441-.6s1.15-.594,1.44-.082.29,1.021.794,1.021c.484,0,1.483-.631.727-1.21h.236a1.1,1.1,0,0,0-.181-.156c-.936-.6-1.513-.511-2.089-1.19a4.189,4.189,0,0,0-.306-.338h-.251a.223.223,0,0,0-.2,0H109.5a2.345,2.345,0,0,1-.244.08.606.606,0,0,1-.614-.08h-.226a.229.229,0,0,0-.161-.087c-.216,0-.576.171-.72-.169s.072-.425.794-.425a6.706,6.706,0,0,1,1.584.254s.864-.342,1.083-.425a2.964,2.964,0,0,0,.939-.385.609.609,0,0,0,.347-.723,1.3,1.3,0,0,0-.879-.847h-.278a.543.543,0,0,1-.129-.087c-.219-.256.43-.6.79-.765a3.486,3.486,0,0,1,1.369,0s.648.084.648-.258l0-.013h.119a.25.25,0,0,0,.018-.074,4.214,4.214,0,0,1-.017-.48.362.362,0,0,1,.171.055c.432.254,0,1.023.648.854a1.046,1.046,0,0,1,1.152.256c.333.236-.01,1.113-.348,1.384a1.891,1.891,0,0,0-.318.188c-.3.174-.537.4.09.47.794.085,1.368.085,1.368.085l.072-.087h.064a5.422,5.422,0,0,0,.722-1.108.587.587,0,0,1,.1-.166c.2-.055.429.137.628.253.234.139.981.336.7.589a1.81,1.81,0,0,1-.211.092,3.2,3.2,0,0,0-.678.316,1.919,1.919,0,0,0-.9.959,1.7,1.7,0,0,1-.226.378,1.218,1.218,0,0,1-.849-.035h-.561a1.788,1.788,0,0,0-.805,0h-.09c-.018.012-.027.035-.044.05a.667.667,0,0,0-.306.29c-.216.425-.072,1.788.288,1.616s.72-.169,1.152-.34,2.161.171,2.593.085,1.153.854,1.369.681.65.34,1.081.683c.146.114.226.06.3-.03.1-.01.161-.124.239-.228h-.045c.114-.087.28-.1.589.171.792.681.36.681.792.681s1.371.084,1.371.084a.9.9,0,0,1,.015-.1l.119.012a.984.984,0,0,1,.259-.566.6.6,0,0,1,.4-.025c.653.151,1.241.924,1.292.559.105.037.162,0,.141-.223s-.025-.408-.035-.594h-.146a1.327,1.327,0,0,0-.459-1.021c-.04-.037-.085-.067-.127-.1h.244c-.578-.5-1.5-.84-1.641-1.092a1,1,0,0,1-.171-.593h-.092a.241.241,0,0,1,.055-.087c.216-.169,1.225.087,1.8.509s1.083.855,1.517.512c.038-.032.079-.054.119-.082l.015-.007a2.515,2.515,0,0,1,.246-.164c.216-.129.424-.239.583-.352a1.389,1.389,0,0,0,.325-.249c.018-.02.042-.052.064-.08h-.072c.243-.323.594-.852.594-.852s-.66-.107-1.3-.271h.491a3.341,3.341,0,0,1-1.505-.583,3.365,3.365,0,0,0-1.587-1.023c-.263,0-.944.487-1.281-.079h-.177c-.015-.032-.032-.052-.045-.087a7.388,7.388,0,0,1-.244-1.036h.151c-.1-.526-.164-.954-.348-1.009-.231-.069-2.223-.412-3.226-.676h-.427a1.437,1.437,0,0,1-.228-.089c-.355-.211-1.58-.648-2.367-1.035h.313a5.125,5.125,0,0,1-.621-.328,5.407,5.407,0,0,0-2.16-1.023c-.578,0-2.955.342-3.387.254a10.58,10.58,0,0,0-2.235.256.137.137,0,0,0-.107.084l-.027.005c-.506.085.65,1.192-.432,1.448-1.03.244-.948.393-.75-.7h.119c.015-.08.028-.149.045-.243.216-1.277-.722-1.617-1.657-1.108-.571.311-1.343.563-1.781.845-.377.2-.606.42-.442.69.36.594-.072,1.023.648,1.617a2.12,2.12,0,0,0,1.945.681,6.125,6.125,0,0,1,1.873.169s0,1.021-.36,1.194a2.109,2.109,0,0,1-.246.087H107.6a1.13,1.13,0,0,0-.368.2.657.657,0,0,0-.343.4.861.861,0,0,1-.375.462c-.187.082-.355.084-.355-.04a4.551,4.551,0,0,0,.111-1.016h-.147a.722.722,0,0,0-.243-.429c-.5-.424-.648-.511-1.224-.084s-.648.6-.938-.087a2.214,2.214,0,0,0-.333-.524h.2a4.531,4.531,0,0,0-.887-.84s-.3-.439-.628-.845h-.206c-.1-.127-.211-.246-.308-.345-.432-.424-1.225-.338-1.3.087a3.559,3.559,0,0,0,.432,1.617c.241.638.365,1.41.109,1.7-.022.01-.037.028-.062.033a.5.5,0,0,0-.31.171c-.256.154-.333.464-.613.645-.5.169-.717-.254-.717-.937,0-.057-.008-.107-.01-.164h-.142a8.5,8.5,0,0,1-.085-1.123h.117a.521.521,0,0,1,.049-.244c.144-.254-.576.171-1.3,0a.945.945,0,0,0-.805.129c-.3.129-.365.393.092.556a.888.888,0,0,1,.429,1.4.854.854,0,0,1-.077.047,19.844,19.844,0,0,1-3.889,0c-.792,0-1.945.254-2.161-.256a.421.421,0,0,1,.154-.506h-.013a1.765,1.765,0,0,1,.877-.259c.506,0,2.017.085,2.592-.85l.007-.013H95c.018-.027.045-.045.062-.074.578-.936-.72-1.1-1.3-1.1a1.632,1.632,0,0,1-1.169-.507h-.224a5.756,5.756,0,0,1-.4-.427.688.688,0,0,1-.171-.7h.116c.079-.442.579-.768.477-1.009-.144-.342-.864-.087-1.512-.087a9.016,9.016,0,0,1-1.148-.219c.29.012.509-.02.581-.126a.231.231,0,0,0,.159-.105.581.581,0,0,1,.1-.139H90.5c.184-.164.422-.265.459-.512.017-.132.062-.367.112-.611h.117c.085-.419.191-.9.191-.9s-.286-.623-.767-.34-.626.457-1.058.34c-.315-.082-.4-.586-.727-.787h-.683a1.372,1.372,0,0,0-.367.2c-.393.224-.527.564-.711.735a.967.967,0,0,1-.112.08.934.934,0,0,1-.713.117c-.191-.112-1.3-.85-1.3-.85a11.905,11.905,0,0,1-2.118-.278h-.32c-.044-.028-.089-.059-.1-.089-.1-.338-.479-.906-1.537-.794s-2.883.85-3.171.85c-.224,0,.1.412.075.593a1.148,1.148,0,0,0-.845.191.538.538,0,0,0-.286.352c-.1.345.432.34,1.056.34a6.168,6.168,0,0,0,1.924-.171c.288-.169,1.728-.568,1.681-.055s.574,1.3.911,1.19,1.009-.85,1.344-.568.387.964.722,1.137a2.843,2.843,0,0,0,1.681,0,5.422,5.422,0,0,1,2.163-.057,13.1,13.1,0,0,0,1.418.243.306.306,0,0,0-.254.1.271.271,0,0,0-.2.3c0,.511.444,1.731.455,2.139-.012-.01-.015,0-.032-.013s-.05-.054-.077-.08h-.194a4.837,4.837,0,0,1-.532-1.123h.186a1.646,1.646,0,0,0-.176-.328c-.36-.512-.936-.427-1.657-.341a13.81,13.81,0,0,1-2.3.258c-.362-.087-.074-.087-.866-.514s-1.15-.341-1.721-.76h-.238c-.408-.365-.047-.521-.988-.6-1.006-.084-.934.6-1.944.427a20.376,20.376,0,0,0-2.305,0c-1.009-.087-1.513-.171-1.657.425s-.432,1.617-.864,1.617-.937.594.432.681.576.852,1.8.768a4.592,4.592,0,0,0,2.371-.48.448.448,0,0,0,.064-.03h-.027A.777.777,0,0,0,79,294.45c.29-.681.506-.681.648-.425s1.225,1.788,1.225,1.788a10.582,10.582,0,0,0,1.008.852c.29.169-.288.936-.862.509s-1.659-.34-2.091-.767l-.023-.013h.258a.919.919,0,0,1-.1-.074,3.132,3.132,0,0,0-2.1-.522,21.941,21.941,0,0,1-2.441-.074,1.011,1.011,0,0,0-.41.2,7.724,7.724,0,0,0-.949.738s-.064-.121-.146-.271H73.2c-.122-.228-.331-.609-.477-.84-.1-.152-.224-.1-.362.018a2.919,2.919,0,0,0-.469.392.209.209,0,0,1-.033.017c-.29.085-1.153-.681-2.021-.34a2.15,2.15,0,0,0-.511.276c-.116.072-.206.139-.288.2a1.694,1.694,0,0,1-1,.122c-1.225-.087-1.513-.341-1.944-.256l-.434.085v.06l-.136.023s.072.341-.432.685-.866.767-1.224.254a1.264,1.264,0,0,0-.794-.6,1.58,1.58,0,0,1-.184-.1h.295a1.782,1.782,0,0,0-1.56-.244c-.937.256-1.944-1.256-2.232-1.256s-3.316.747-3.892.578c-.432-.129-1.475-.579-2.215-.763H52.2c-.578.087-1.262.186-1.262.186s-.455-.1-.857-.186h-.655l-.032,0-.02,0h-.2a1.129,1.129,0,0,1-.9,0h-.244l0,0a2.978,2.978,0,0,0-1.009-.68,2.5,2.5,0,0,1-.561.961.818.818,0,0,1-.1.057c-.5.172-1.584.511-1.8.342s-2.089.681-2.089.681a4.8,4.8,0,0,1-1.346.186,1.055,1.055,0,0,0-.551.142h.077c-.467.161-1.162.606-1.051.864.144.343,0,1.025,1.152,1.025s1.224.509,1.656.6a1.374,1.374,0,0,1,1.081.511c.506.509.506,1.02-.144.936a3.219,3.219,0,0,1-1.8-.681l-.432-.429-.792.429a8.53,8.53,0,0,0-2.305.681,4.027,4.027,0,0,0,1.008,1.277,4.744,4.744,0,0,0,2.233.509s1.08.087,1.513-.341a.863.863,0,0,1,.085-.059c.015-.012.037-.015.05-.028a1.125,1.125,0,0,1,.214-.149,1.282,1.282,0,0,1,.876-.018c.288.087-.216,1.192-1.009,1.108a3.061,3.061,0,0,0-2.377.68c-.65.6-1.225.681-.937,1.361s1.369,1.532,1.441,1.959c.049.278.578.085.984-.2a1.7,1.7,0,0,0,.541-.48h-.082c.142-.429.862-.429.646.511a.886.886,0,0,0,.72,1.107s.023-.047.059-.109c.044.013.077.02.077.02a2.777,2.777,0,0,1,.422-.611.106.106,0,0,1,.092.017c.216.171.936.939.936.939a3.191,3.191,0,0,1,.271-.189h0l.06-.039c.3-.176.717-.341.892-.028.288.509-.43.934-.864,1.19h-.027c-.569.3-1.89.874-2.217,1.1a1.119,1.119,0,0,1-.1.065c-.01.007-.028.017-.037.023l-.069.045c-.206.127-.494.293-.79.447h.028a4.394,4.394,0,0,1-1.257.529c-.362,0-.506,1.021.142.937a15.691,15.691,0,0,0,2.955-1.108c.5-.254.686.845,1.982.077a4.141,4.141,0,0,0,.6-.435h.035a12.215,12.215,0,0,0,1.306-1.408.209.209,0,0,1,.116-.022c.358.087.43.681,1.006.854a.863.863,0,0,0,.742-.187A7.63,7.63,0,0,0,51.11,309a.845.845,0,0,0,.214-.254h-.082c.2-.388.285-.911.023-.85a6.181,6.181,0,0,1-1.3,0s.166-.114.36-.273h.027c.3-.233.755-.631.755-.921a1.953,1.953,0,0,1,.157-.763h-.082a1.082,1.082,0,0,1,.512-.514c.574-.253.574-.084.216.939-.32.9.487.673.978.313a1.55,1.55,0,0,0,.265-.2c.415-.209.912.743,1.651.188a.372.372,0,0,1,.037-.035c.032-.02.064-.028.1-.052a1.528,1.528,0,0,0,.479-.643h-.1c.194-.517.2-1.023.482-1.023.432,0,1.224.938,1.656.594s1.535.706,2.257.706,3.147.827,3.579.827a2.111,2.111,0,0,1,1.8,1.7c.072,1.107.5,1.02.936,1.02s1.441.425,1.441.852-.29,2.129.432,2.553,1.369,1.107,1.657.936c.147-.087.144-.48.059-.869h.151c-.075-.405-.243-.829-.434-.919-.258-.122-.223-.459-.233-.767h-.144a.819.819,0,0,0-.045-.254c-.146-.34.432-.34.646.256s.794,1.7,1.153,1.7a1.6,1.6,0,0,1,.937,1.617c-.216.6.072,1.8.72,1.8s1.584.837,1.873.922.452.825.452,1.078a15.186,15.186,0,0,1,.556,1.985c0,.594-.216,2.977-.288,3.914a5.869,5.869,0,0,0,1.3,3.405c.72.85.586,2.756,1.018,3.1a3.87,3.87,0,0,0,2.151.9c.648-.08,1.08.512,1.659,1.7s1.152,3.149,1.584,3.321,1.153.767.792,1.19-.936,1.363-.286,1.363.864-.425,1.368.342,1.153,1.192,1.08,1.7.576.678.864.765.877,1.453,1.493,1a.528.528,0,0,0,.228-.147.609.609,0,0,0,.039-.773h-.184a6.262,6.262,0,0,0-1.125-1.123h.234c-.1-.089-.194-.169-.259-.233-.3-.295-.193-.835-.43-1.451h-.169a2.224,2.224,0,0,0-.546-.758,3.841,3.841,0,0,1-.348-.367h.214a11.35,11.35,0,0,1-1.028-1.684h-.2a2.069,2.069,0,0,0-.228-.248,4.274,4.274,0,0,1-.773-.877H83.6a.712.712,0,0,1,.136-1.068c.6-.352.686.717.956,1.435a15.07,15.07,0,0,0,2.448,2.98c.651.681,1.8,3.064,2.163,3.064s1.369,1.363,1.369,1.363.574,1.108.36,1.448.288,1.616.794,1.959,2.7.347,2.809,1.617c.028.33.392,1.959,1.184,1.959s1.843-.425,2.057-.172.789,1.142,1.219.75a.4.4,0,0,0,.214-.156l.005-.01h-.074c.367-.521.477-.757,1.086-.757.648,0,.936.6,1.3,1.021s1.369,1.535,1.873,1.45,1.153.68,1.513.425.936.169,1.224.341a2,2,0,0,1,.824,1.821c-.074,1.021.978,1.242,1.41,1.5a6.7,6.7,0,0,1,1.371,1.276c.36.427,1.153.511,1.368.767s.36.765,1.008.341a1.143,1.143,0,0,0,.512-.882h.124a1.226,1.226,0,0,0,.01-.333,1.193,1.193,0,0,1,.939.194c.363.34.579,1.445.794,1.614a3.143,3.143,0,0,1,.36,2.386c-.288.934-.216,1.873-.506,1.873s-1.08.891-1.512,1.147a3.587,3.587,0,0,0-1.08,2.088,8.346,8.346,0,0,1,.176,2.372c-.144.594-.681,1.2-.465,2.138s1.729,1.194,1.8,2.046,1.153,2.722,1.3,3.573.917,1.835.917,3.027,2.18,1.908,2.54,2,1.009.849,1.515,1.1a3.262,3.262,0,0,1,1.3,1.448,4.332,4.332,0,0,1,.288,1.959c0,.256-.216,2.893-.432,4.426s.522,2.977.09,3.405-1.242.6-.81,1.107-.5.852-.5,1.107.576,1.616.288,2.211-.506,1.448-.722,1.96-.72,1.02-.576,1.786-.578.512-.578,1.277.65.425.506,1.359-.506,1.2-.506,1.873a14.7,14.7,0,0,0,.36,1.875,4.716,4.716,0,0,1-.864,1.788c-.5.68-.864,1.1-.794,1.532s.578.936.506,1.19-.72,1.108-.648,1.7.72.342.866.767-.866.765-.434,1.19,1.008.34.866,1.364.792,1.276,1.006,1.53.65.852,1.011.852.638-.255.785-1.157h.117c.008-.039.018-.077.025-.12a.614.614,0,0,1,.136-.328c.3-.085.676.437.161.924-.72.681-1.081,1.021-.866,1.021s1.3.683,1.875.683a8.078,8.078,0,0,0,1.947-.429c.211-.084,1.739-.331,1.927-.583a.594.594,0,0,0,.08-.044h-.07c.008-.213-1.249-.151-1.868-.393a3.453,3.453,0,0,1-.968-.732h.224a4.334,4.334,0,0,1-1.065-1.4,1.913,1.913,0,0,1-.057-.283H122.1a2.314,2.314,0,0,1,.127-1.122h.1a.926.926,0,0,1,.326-.467,16.818,16.818,0,0,0,1.408-1.217h-.044c.233-.216.427-.4.519-.484a1.921,1.921,0,0,0,.367-.641h.1c.182-.432.31-.954.171-1.065-.216-.169-1.3,0-1.44-.253a.52.52,0,0,1-.062-.368h-.11a1.837,1.837,0,0,1,.614-.737,3.768,3.768,0,0,0,.382-.385h.065c.517-.552.812-1.19,1.056-1.4.082-.075.189-.169.3-.281h-.05a2.981,2.981,0,0,0,.695-.994c.018-.054.025-.09.035-.129h.11c.174-.527-.241-.213-.661-.213s-.648-.937-.648-1.364c0-.025.015-.039.023-.055a15.025,15.025,0,0,1,1.716.485c.286.062.419.018.47-.08.188-.049.184-.229.131-.46h-.154a3.86,3.86,0,0,1-.089-.4,1.807,1.807,0,0,1,.065-.727h.107a.988.988,0,0,1,.188-.407.258.258,0,0,1,.218.025,8.448,8.448,0,0,0,2.953-.171.326.326,0,0,0,.114-.082l.022-.005a3.281,3.281,0,0,0,.775-1.045h-.084c.219-.373.424-.735.542-.909a1.8,1.8,0,0,0,.116-.214h.087c.219-.385.256-.75-.069-.983a8.057,8.057,0,0,1-.783-.7h-.223a5.411,5.411,0,0,1-.634-.713.805.805,0,0,1,0-.412h.124a10.785,10.785,0,0,1,.437-1.622c.069.557.144,2.421.943,2.687,1.006.341,1.584.511,2.521-.509.182-.2.35-.377.512-.556h.055a5.3,5.3,0,0,0,1.246-1.682h-.132c.012-.049.042-.1.049-.147a4,4,0,0,1,.221-.978h.107a1.486,1.486,0,0,1,.44-.71,1.976,1.976,0,0,0,.435-.234,1.412,1.412,0,0,0,.571-.738h-.1c.02-.05.038-.084.059-.134.39-1,.717-.425,1.093-.991h.074a1.356,1.356,0,0,0,.184-.3A2.046,2.046,0,0,0,139.74,393h-.157a1.38,1.38,0,0,1,.044-1.123h.075a.831.831,0,0,1,.243-.3c.3-.236.681-.494,1.048-.728.633-.4,1.194-.718,1.194-.718a6.394,6.394,0,0,1,1.3-.511c.827-.243,1.7-.114,2.034-.551h.077a.549.549,0,0,0,.116-.132c.2-.357.4-.994.646-1.552h-.1a3.291,3.291,0,0,1,.321-.573,6.146,6.146,0,0,0,.35-.551h.087c.323-.542.584-1.17.417-1.495a.5.5,0,0,1-.032-.187h-.134a5.954,5.954,0,0,1,.236-1.125h.112a6.014,6.014,0,0,0,.323-1.5c-.008-.052-.025-.119-.042-.186h-.157a3.782,3.782,0,0,1-.186-1.125h.134a1.819,1.819,0,0,1,.609-1.413c.092-.085.184-.179.276-.271h-.047c.35-.362.686-.75.986-1.123h.065a5.713,5.713,0,0,0,1.026-1.582.73.73,0,0,1,.028-.1h-.112c.085-.261.249-.673.412-1.123h.1a6.119,6.119,0,0,0,.427-1.686h-.131C151.331,373.322,151.336,373.3,151.335,373.273Zm-44.57-50.481h-.129c.012-.1.022-.184.03-.253a5.028,5.028,0,0,0-.023-.871h.141a4.068,4.068,0,0,1,.092-1.682v0H106.8a2.266,2.266,0,0,1,1.664-.936c.578-.084,1.8.427,2.019.341a5.66,5.66,0,0,1,1.728,0c.444.075,1.053,1.264.951,1.61a.927.927,0,0,1-.887-.932.476.476,0,0,0-.007-.084h-.059a.981.981,0,0,0-.069.176l0-.005c0-.594-.5,1.108-.216,1.619.221.393-.238.834-.593,1.018h-.124l-.012,0-.008,0h-.263a1.711,1.711,0,0,1-.3-1.123h.127a3.012,3.012,0,0,1,.008-.407,1.227,1.227,0,0,0-.663-1.277h-.887a1.313,1.313,0,0,0-.263.152c-.485.256-.762.758-.986.958-.29.254-.29,1.7-.216,2.041a1.819,1.819,0,0,1-.231,1.306.452.452,0,0,1-.062.035h.01a.459.459,0,0,1-.367.107.417.417,0,0,1-.219-.107h.31C106.7,324.349,106.708,323.405,106.765,322.792Zm7.207-1.123a3.2,3.2,0,0,1,.3-.295c.04-.02.082-.042.1-.025.214.171,1.728-.254,2.016.171s-.288.509-1.009.85-.937.254-1.222.681a1.063,1.063,0,0,1-.276.239c-.278.159-.613.306-.9.5a1.9,1.9,0,0,0-.479.37c-.432.511-1.2.814-1.368.427a.669.669,0,0,1-.033-.107h.161c-.2-.479.08-.239.149-.491a.617.617,0,0,1,.238-.234,10.481,10.481,0,0,1,1-.529l.025-.035c.062-.032.109-.052.109-.052s.1-.142.261-.343h-.065a13.814,13.814,0,0,1,.946-1.123ZM74.679,316.5a2.082,2.082,0,0,1-.4-.447h.2a2.065,2.065,0,0,1-.442-.842.308.308,0,0,1,.07.01c.216.087.65.6.864.6a6.9,6.9,0,0,1,1.585,1.364,1.252,1.252,0,0,1,.059,1.274c-.338.07-.547-.82-.628-1.279h-.152C75.754,316.756,75.037,316.752,74.679,316.5Zm34.045,1.786c-.238.065-1-.172-1.634-.172s-.5-.509-.792-.425a6.715,6.715,0,0,0-1.371.511c-.43.256-1.15.2-1.15-.254a.572.572,0,0,1,.162-.492c.189-.087.484-.156.927-.357.936-.427,1.945-1.617,2.379-1.107a3.8,3.8,0,0,0,1.728,1.192C109.408,317.253,108.987,318.021,108.724,318.284Zm22.708,80.333c.005-.018.013-.047.02-.064.027-.077.042-.042.059.064Z" transform="translate(-31.941 -276.208)" fill="#fff"/>
    <path id="Path_6119" data-name="Path 6119" d="M66.072,289.278c.382,0,1.344-.4,1.631-.116s1.009.059.959-.226a2.118,2.118,0,0,1,.025-.412h.126c.049-.44.137-1.11-.3-1.153-.578-.057-1.393.624-2.258.966-.044.017-.062.049-.1.069-.012.005-.023.013-.037.02C65.562,288.644,65.686,289.278,66.072,289.278Z" transform="translate(-13.246 -276.765)" fill="#fff"/>
    <path id="Path_6120" data-name="Path 6120" d="M70.8,288.619c.578,0,1.825-.341,1.92-.06s-.047.512.624.624a9.52,9.52,0,0,0,1.344.231c.256,0,.265-.331.154-.7h.169a2.173,2.173,0,0,0-.283-.641c-.336-.512-.239-.454-1.1-.74a5.768,5.768,0,0,0-2.305-.226c-.4.04-.825-.023-1.095.2a.69.69,0,0,0-.385.569C69.769,288.284,70.227,288.619,70.8,288.619Z" transform="translate(-10.486 -276.959)" fill="#fff"/>
    <path id="Path_6121" data-name="Path 6121" d="M75.779,292.106c.623-.114,1.535-.228,1.967-.283a.329.329,0,0,0,.2-.112c.37-.139.432-.887-.02-.939a3.18,3.18,0,0,1-.83-.365h-.542a7.843,7.843,0,0,0-1.142.611c-.419.258-.768.547-.695.75A.967.967,0,0,0,75.779,292.106Z" transform="translate(-7.199 -274.717)" fill="#fff"/>
    <path id="Path_6122" data-name="Path 6122" d="M74.158,288.849c.529.283,1.393.794,2.017,1.08s1.825.338,2.21.907a4.348,4.348,0,0,0,1.681,1.02l1.537.174a6.751,6.751,0,0,1,2.161-.174,28.1,28.1,0,0,0,3.65.228c.914-.054,1.058-.4,1.153-.624.038-.089-.213-.211-.554-.326h.365a5.451,5.451,0,0,0-1.788-.385c-.435.055-2.884.055-3.6,0a14.3,14.3,0,0,0-2.211,0c-.574.055-1.006-.454-1.438-.738-.176-.116-.442-.333-.732-.561h-.246a3.4,3.4,0,0,0-1.127-.658,15.677,15.677,0,0,1-1.681-.455.215.215,0,0,1-.045-.01h.442l-.263-.075c-.608-.174-1.632-.4-1.632-.566,0-.062-.033.027-.055.171-.047-.027-.08-.057-.08-.084C73.917,287.6,73.629,288.566,74.158,288.849Z" transform="translate(-7.787 -276.566)" fill="#fff"/>
    <path id="Path_6123" data-name="Path 6123" d="M118.055,297.183l.049,0s1.056-.966.671-1.361a1.407,1.407,0,0,0-.129-.112h-.273a4.124,4.124,0,0,0-1.465-.541c-.43-.057-.862.4-1.823.4a5.068,5.068,0,0,0-1.065.144h-.71a.521.521,0,0,1-.194-.144c-.385-.454-1.97-.68-2.114-.4-.193.38-.576.4-.193,1.192s.673,1.247,1.009,1.192,1.488-.114,1.636.34.527.854,1.341.568,1.49-.452,1.682-.8,1.49-.4,1.49-.4S118.006,297.235,118.055,297.183Z" transform="translate(17.024 -271.592)" fill="#fff"/>
    <path id="Path_6124" data-name="Path 6124" d="M88.19,324.049c.1-.035.167-.085.182-.159.033-.154-.136-.435-.372-.688h-.218a1.189,1.189,0,0,0-.842-.415,2.783,2.783,0,0,1-1.6-.708h.253a4.81,4.81,0,0,1-.676-.569,3.027,3.027,0,0,0-2.091-.6,14.361,14.361,0,0,0-2.163.6c0,.017.005.023.005.04l-.139.045c-.072.852.65.6,1.513.6s2.377-.169,2.665.256a17.541,17.541,0,0,0,1.945,1.446C86.984,324.206,87.974,324.3,88.19,324.049Z" transform="translate(-3.28 -254.153)" fill="#fff"/>
    <path id="Path_6125" data-name="Path 6125" d="M90.294,324.744a.619.619,0,0,0,.286-.506h-.146c-.038-.387-.331-.765-.7-.685-.658.139-.5,1.661.29,1.381A.609.609,0,0,0,90.294,324.744Z" transform="translate(2.648 -252.38)" fill="#fff"/>
    <path id="Path_6126" data-name="Path 6126" d="M165.283,330.907a1.347,1.347,0,0,1-.131-.285h.166c-.233-.588-.412-1.8-.984-1.5-.02.01-.037.049-.057.072a.354.354,0,0,0-.079.013c-.465.246-.944,4.341-.08,4.682.271.109.516-.105.713-.457h.079a4.637,4.637,0,0,0,.542-1.684h-.124A1.6,1.6,0,0,0,165.283,330.907Z" transform="translate(52.748 -248.653)" fill="#fff"/>
    <path id="Path_6127" data-name="Path 6127" d="M128.438,311.956a1.163,1.163,0,0,0,.393-.41.865.865,0,0,0,.027-.77h-.174c-.156-.33-.437-.591-.634-.591-.681,0-1.011,1.277-.579,1.7A.636.636,0,0,0,128.438,311.956Z" transform="translate(28.235 -261.384)" fill="#fff"/>
    <path id="Path_6128" data-name="Path 6128" d="M125.13,311.4a.331.331,0,0,0,.2-.177c.117-.276-.1-.757-.449-.449-.116.04-.253.164-.405.449S124.9,311.62,125.13,311.4Z" transform="translate(26.331 -261.057)" fill="#fff"/>
    <path id="Path_6129" data-name="Path 6129" d="M131.341,313.611a1.019,1.019,0,0,0,.8-.154.566.566,0,0,0,.273-.787,1.792,1.792,0,0,0-.079-.171h-.171a1.1,1.1,0,0,0-1.041-.591c-.213,0-1.15-.254-1.512,0-.263.186.43.767.792.936S131.053,313.527,131.341,313.611Z" transform="translate(29.77 -260.299)" fill="#fff"/>
    <path id="Path_6130" data-name="Path 6130" d="M118.854,305.945c.576.084,1.225-.424,1.728-.681a2.364,2.364,0,0,0,1.113-1.04h.1a1.223,1.223,0,0,0,.152-.579,4.541,4.541,0,0,0-.126-1.107h-.162a1.65,1.65,0,0,0-.28-.594,1.286,1.286,0,0,0-1.225-.34c-.648.127-.72.921-1.142.934h-.353a.643.643,0,0,0-.189.129.51.51,0,0,0-.259.64c.142.6.432,1.021,0,1.276S118.277,305.862,118.854,305.945Z" transform="translate(22.012 -267.189)" fill="#fff"/>
    <path id="Path_6131" data-name="Path 6131" d="M121.361,303.671c.72.342,2.237.681,1.661,1.023a9.454,9.454,0,0,0-2.387,2.526c-.146.511,1.883.281,1.883.281s-.437.6-.074.767c.126.059.233,0,.345-.094a3.832,3.832,0,0,0,.5-.413.643.643,0,0,1,.313-.087c.574,0,1.728.425,2.307.425a1.332,1.332,0,0,0,.767-.363,2.057,2.057,0,0,0,.783-1h-.122a.724.724,0,0,0,.012-.167,2.279,2.279,0,0,0-.457-.956h.2a3.3,3.3,0,0,0-1.053-1,2.373,2.373,0,0,1-.68-.681h-.2c-.28-.385-.546-.819-.773-1.123h.2a1.912,1.912,0,0,0-.348-.409c-.275-.221.457-.76.887-1.276h-.074c.2-.259.31-.507.149-.7-.32-.377-1.045-.372-1.682-.424h1.045c-.645-.1-1.451-.042-1.838-.326a.689.689,0,0,0-.871.007,2.059,2.059,0,0,0-.7.68c-.36.507-.792-.087-1.224.084-.584.228-.362,1.1-.072,1.532A4.617,4.617,0,0,0,121.361,303.671Z" transform="translate(23.032 -268.576)" fill="#fff"/>
    <path id="Path_6132" data-name="Path 6132" d="M270.275,305.761c2.16,0,1.438.172,3.169.087s2.376-1.107,4.035-1.617,2.951-.85,3.457-.6a.831.831,0,0,0,.9-.032c.171-.079.244-.236.08-.48h-.191c-.3-.35-.812-.787-1.073-1.123h.208c-.177-.206-.283-.383-.214-.5a3.514,3.514,0,0,0,.911-.348,1.066,1.066,0,0,0,.594-.673.768.768,0,0,0,.017-.167h-.126a4.89,4.89,0,0,0-.3-1.123h.161a1.288,1.288,0,0,1,.032-1.264.638.638,0,0,0,.156-.42h-.129c-.052-.477-.6-.931-1.107-1.123h.326a1.781,1.781,0,0,0-.4-.157c-.72-.171-3.529.169-4.107-.171s-1.51-.767-1.8-.512c-.017.017-.04.047-.06.07s-.057,0-.074.018a9.39,9.39,0,0,0-.934,1.616s-.507.172-.941-.593a.776.776,0,0,0-.291-.271h.246c-.688-.562-2.694-.5-3.35-.5-.717,0-1.51.171-2.3.254s-1.225.341-1.8-.254a10.408,10.408,0,0,0-1.661-1.107.52.52,0,0,0-.154-.08h-.606a9.969,9.969,0,0,0-1.662,0h-.7a20.449,20.449,0,0,1-2.421.166s-.122-.055-.326-.166h-.291c-.246-.139-.566-.328-.958-.6-.291-.2-.574-.373-.845-.526h.295a3.934,3.934,0,0,0-1.333-.584c-.286,0-2.518.427-3.025,0a2.463,2.463,0,0,0-1.366-.683.5.5,0,0,1-.424-.419h-.126a.176.176,0,0,1,.2-.172,18.356,18.356,0,0,0,2.448-.683,2.9,2.9,0,0,0-.2-.268h.2a1.693,1.693,0,0,0-1.169-.753c-.72,0-2.016-.427-2.377-.427a.212.212,0,0,0-.2.1c-.117.025-.144.111-.2.181a.8.8,0,0,1-.4-.022c-.722-.174-1.693.348-1.872-.174-.112-.328-.328-.31-.511-.137-.388.172-.772,1.17.015,1.418,1.08.34,2.091,0,2.377.511s0,.767,0,1.1a2.589,2.589,0,0,1-.936,1.45c-.362.171-.8-.256-1.51.171s-2.525.085-2.744.34-.648-.681-1-.511c-.234.111-.713.614-1.157.931a.8.8,0,0,1-.511.172,1.406,1.406,0,0,1-.727-.42h-.206a1.324,1.324,0,0,1-.355-.854c0-.087-.013-.177-.02-.27h.147a2.8,2.8,0,0,0-.424-1.52,2.467,2.467,0,0,0-.855-.166h-1.564a8.845,8.845,0,0,0-2.571.551.645.645,0,0,0-.189.126,1.087,1.087,0,0,1-.224.179,2.882,2.882,0,0,1-1.227.331c-.5,0-.934-.6-2.017-.768a21.053,21.053,0,0,0-3.743-.167,1.177,1.177,0,0,1-.9-.251h-.169a.181.181,0,0,1,.069-.172,4.906,4.906,0,0,0,.792-.951h.08c.258-.4.4-.829.055-1.1a6.1,6.1,0,0,0-2.68-.588h-.752a5.246,5.246,0,0,0-1.746,0l-.02,0h-.219c-.7.223-.912.606-1.284.164a.348.348,0,0,1-.065-.1c.206.032.45.156-.5-.328-1.513-.763-2.389-.007-2.669-.425a1.91,1.91,0,0,1-.112-.187,2.6,2.6,0,0,1-.968.87l-.007,0h-.018a6.811,6.811,0,0,1-1.93.762c-.288.082-2.294-.321-2.3-.6,0-.062-.005-.107-.01-.164h-.141c-.124-1.522-.869,0-1.52.546a.433.433,0,0,1-.06.042c-.72.343-1.225.852-1.942.685a4.53,4.53,0,0,0-2.595.167,5.891,5.891,0,0,1-.614.244h.092a4.428,4.428,0,0,0-1.559.78,3.187,3.187,0,0,1-.539.343h-.033a8.053,8.053,0,0,1-1.383.506s-1.224-.087-1.872-.087c-.425,0-.936,0-1.08.171-.211.077-.275.226.005.514.579.6,2.309,1.194,2.523,1.534s.474,1.282.164,1.575c-.357.171-.829.052-.892-.64a1.3,1.3,0,0,0-.214-.763H199a3,3,0,0,0-.7-.345c-.835-.325-.805-.107-1.446-.779h.219c-.049-.049-.1-.1-.152-.157-.6-.64-1.247-.681-1.656-.383a.9.9,0,0,0-.35.3c-.308.432-.2,1.232-.429,1.517-.007,0-.007.012-.013.012-.4.077-.842.357-.976-.166h-.152c-.005-.032-.013-.052-.017-.089-.028-.3-.047-.7-.087-1.035h.146c-.054-.494-.151-.862-.4-.566-.065.012-.141.072-.239.241-.507.85-.722.85-.722,1.276s.43.85.29,1.614-.147,1.281.072,1.281.72-.765,1.366-.939,1.8-.6,1.877.174c.06.663.609.944.281,1.229-.025.015-.045.028-.075.044-.722.341-1.512.171-1.659-.342a.554.554,0,0,0-.034-.079h-.2c-.206-.313-.623-.281-1.055.084a16.52,16.52,0,0,0-1.585,1.955,10.265,10.265,0,0,1-1.746.768h-.2c-.161-.127.234-.676.685-1.123h.052a4.192,4.192,0,0,1,.551-.5,2.434,2.434,0,0,0,.81-1.189h-.117a.429.429,0,0,0-.037-.343,2.384,2.384,0,0,1-.254-.78h.152a4.311,4.311,0,0,1-.119-1.606.633.633,0,0,1,.033-.08h-.1c.181-.35.517-.773.2-1.123h.191a.68.68,0,0,0-.253-.243c-.722-.427-1.225-.937-1.8-1.192a.527.527,0,0,0-.534.129c-.462.241-.936,1.058-1.326,1.319-.507.341-.435.765-1.083.852s-1.08,1.107,0,1.7,1.441,1.025,1.155,1.364l-.005,0h-.007a1.146,1.146,0,0,1-.491,0h-.507c-.278-.08-.507-.174-.507-.174a4.352,4.352,0,0,0-1.51-.509,7.015,7.015,0,0,1-1.6-.44h.43a3.131,3.131,0,0,0-.573-.157,3.738,3.738,0,0,0-1.89.157h.067a.7.7,0,0,0-.328.184,4.814,4.814,0,0,1-.907.939H179.7a.545.545,0,0,1-.5,0h-.271c-.45-.31-.517-.571-1.246-.259-.792.343-1.584-.253-2.014.256-.105.127-.166.221-.213.285a2.755,2.755,0,0,1-.864-.281h-.362l-.007,0a1.233,1.233,0,0,0-1.555.258,2.089,2.089,0,0,1-.686.251c-1.2.238-1.965-.174-2.359.171a.5.5,0,0,0-.223.172c-.362.512-.866,1.446-1.081.849l0-.013h.179a.454.454,0,0,1-.042-.072c-.164-.454.338-1.154.425-1.612h-.127a.318.318,0,0,0-.072-.259,2.542,2.542,0,0,0-2.091.085c-.216.258-.074,1.194.069,1.535.126.286.293,1.292.084,1.446H166.6c-.434-.256-.363-1.11-.794-1.023a3.232,3.232,0,0,0-1.15.511c-.218.169-1.081.169-1.3.512-.187.293,0,1.031-.177,1.279a1.151,1.151,0,0,1-1.416-.176c-.573-.429-.73-.372-.857-.243-.126.033-.179.159-.288.244a1.17,1.17,0,0,1-.109.08c-.375.234-1,.516-1.055-.082-.047-.526.033-.812-.116-1.1h-.181a1.6,1.6,0,0,0-.338-.343c-.65-.509-.147-.509.72-.169a4.576,4.576,0,0,0,3.529-.085,8.866,8.866,0,0,0,1.681-.73c.353-.2.39-.363.042-.549a5.5,5.5,0,0,1-1.033-.931h-.229a2.065,2.065,0,0,0-1.053-.574c-1.008-.171-2.5.571-4.09-.109-.4-.172-.722-.318-.989-.44h.326a11.423,11.423,0,0,0-1.8-.753c-.281-.074-1.179-.5-2.255-.932h-.357a8.771,8.771,0,0,0-3.931-.867,11.775,11.775,0,0,0-2.324.867h-.05c-1.142.536-2.362,1.184-3.256,1.686h.022c-.794.44-1.366.783-1.456.864a15.666,15.666,0,0,1-1.659,2.131,8.006,8.006,0,0,1-1.373.953,10.222,10.222,0,0,1-2.427.989,2.349,2.349,0,0,0-.641.3,7.238,7.238,0,0,0-2.545,2.946c0,.342.576,1.617.432,1.875a2.105,2.105,0,0,0,1.078,1.873c.794.338,2.165.254,2.235-.256a1.16,1.16,0,0,1,.206-.444h.082a2.26,2.26,0,0,1,.554-.614c.2-.1.357-.07.383.209.07.765.79,1.954.648,2.464s0,1.025.5.938,3.172-.765,3.172-.765.085-.047.2-.124c.177-.1.708-.46.665-.984h-.139a1.527,1.527,0,0,1,.464-1.123h.069c.288-.377.64-.7.753-.835a2.436,2.436,0,0,0,.484-.849h-.117a.567.567,0,0,0-.427-.681,3.585,3.585,0,0,1-1.021-.442h.248c-.328-.2-.358-.472.256-1.093a1.972,1.972,0,0,1,.306-.246c.782-.425,1.418.1,2.513-1.2A2.5,2.5,0,0,0,147.4,302h.089c.718-.969.251-1.453.358-1.684h-.015a1.329,1.329,0,0,1,.462-.087c1.369-.084,2.809-.169,2.521.34a5.812,5.812,0,0,1-1.44,1.234c-.1.065-.2.134-.295.2h0c-.412.271-.822.521-1.145.7a1.287,1.287,0,0,0-.434,1.957c.358.512.506,1.7,1.153,1.532s1.44-.767,2.16-.681a17.5,17.5,0,0,0,2.377-.085c.2,0,1.03.968.763,1.282a16.854,16.854,0,0,1-2.5.164c-1.16.082-2.441.087-2.566.306-.094.035-.161.072-.161.122,0,.256,1.656.849,1.081,1.277s-1.152-.087-1.872-.171-1.153,1.107-1.373,1.786c-.144.454.057,1.123-.107,1.4a.587.587,0,0,1-.475-.042h-.405a2.748,2.748,0,0,0-1.89-.167c-.29.169-.817-.151-1.537.1-.067.025-.127.045-.184.064h-.141a4.248,4.248,0,0,1-1.246.085h-.938l-.581.087a1.627,1.627,0,0,1-.182-.172h-.209a1.563,1.563,0,0,1-.388-.847,1.9,1.9,0,0,1,.005-.276h.124c0-.629.261-1.276-.065-1.43a2.23,2.23,0,0,0-1.624.323.832.832,0,0,0-.382.358,2.455,2.455,0,0,0-.149,1.873c.2.291.658.775.678.973a.927.927,0,0,1-.181-.037,2.568,2.568,0,0,0-2.377.169c-.012.008-.023.022-.035.032-.03.023-.072.032-.1.057-.573.509-1.577,1.605-1.582,1.614h-.459a2.946,2.946,0,0,0-1.038.35l-.055.034h0c-.146.084-.249.182-.249.3,0,.512,0,1.192-.646,1.279s-1.517.34-2.379.512a1.952,1.952,0,0,0-.79.335h-.007a1.847,1.847,0,0,1-.869.258,1.337,1.337,0,0,0-.765.243c-.368.191-.263.489.413.611.936.167,2.377.852,2.449,1.617a4.654,4.654,0,0,1-.432,2.382c-.248.526-1.728.172-2.595.172s-2.592-.343-3.311,0-.579,2.042-.363,2.807a1.3,1.3,0,0,1-.358,1.448,1.069,1.069,0,0,0,0,1.361c.358.34.648,1.1.936,1.192s1.224-.258,1.585.171.722,1.446.936,1.192a3.109,3.109,0,0,0,.276-.536h.094a2.138,2.138,0,0,1,.368-.609.172.172,0,0,1,.126.037c.362.254,1.225-.084,1.877-.171a.943.943,0,0,0,.44-.191,3.474,3.474,0,0,0,.792-.75h-.055a2.709,2.709,0,0,1,.479-.42c.529-.347.385-.415.2-.7h.193a1.662,1.662,0,0,1-.181-.318c-.177-.415.36-.886.837-1.366h-.049c.08-.084.159-.166.229-.249.5-.6,1.438-.085,1.656-.767.01-.033.02-.07.03-.107h.109c.171-.547.261-1.383.579-1.662a.34.34,0,0,1,.146-.02c.579.087,1.371.511,1.873.511a2.242,2.242,0,0,0,.964-.452c.032-.022.064-.04.1-.06h-.007c.355-.249.681-.509.819-.591.291-.172,1.371-.087,1.517.68s1.366,1.7,1.654,1.872,2.165.852,2.453,1.108a3.816,3.816,0,0,1,.864,1.7c.132.623.861,1.346,1.038,1,.077,0,.139-.049.164-.157h-.124a5.235,5.235,0,0,0-.2-1.125H144a3.384,3.384,0,0,1-.186-1.247l.013-.005a2.23,2.23,0,0,0,1.083-.171l-.033-.027c.1-.034.169-.06.169-.06s-.087-.067-.219-.174h-.246a13.926,13.926,0,0,0-1.547-1.1l-.042-.023h.288c-.037-.023-.079-.049-.112-.065a4.163,4.163,0,0,1-1.872-1.617v0h-.191c-.306-.509-.834-.775-1.143-1.123h.208a.89.89,0,0,1-.313-.748.5.5,0,0,1,.136-.33c.355-.112.978.276,1.384.758.578.68,2.019,1.617,2.523,2.21s1.3.855,1.512,1.62a7.956,7.956,0,0,0,1.08,1.957c.216.341.35,3.05.564,3.475.126.249.628-.111,1.095-.519h.033c.367-.311.732-.676.9-.83.29-.276.763-.442.973-.854h-.117a.884.884,0,0,0,.089-.253,1.1,1.1,0,0,0-.434-.872h.219a9.1,9.1,0,0,0-.8-.661c-.1-.082-.042-.167.079-.258.221-.126.527-.259.743-.412a1.391,1.391,0,0,0,.258-.179c.055-.055.121-.114.191-.174h-.037c.355-.3.785-.557,1-.164.288.511.146,2.553.288,2.895s1.59.849,1.878,1.277,1.508.594,1.728.34,1.368.169,1.659.254a5.3,5.3,0,0,0,1.728-.338c.574-.174,1.152-.685,1.078.424a7.056,7.056,0,0,1-1.006,3.658,10.793,10.793,0,0,0-.706,1.142.812.812,0,0,1-.313.05,1.769,1.769,0,0,0-.879.144c-.234-.439-.559-.784-.994-.655a7.166,7.166,0,0,0-1.979.643,2.318,2.318,0,0,0-.82.72,3.788,3.788,0,0,1-.727.844h-.023a.188.188,0,0,1-.132,0H151.8a.777.777,0,0,1-.047-.077c-.069-.166.432-.6.927-1.048h.039c.546-.49,1.13-1.021.973-1.252-.288-.427-2.017-.254-2.953-.254a2.437,2.437,0,0,1-.86-.177h-.333a9.937,9.937,0,0,0-1.391-.588c-.72-.172-1.065,1.577-1.785,2.429-.479.566-1.123.171-1.694-.157h.29a2.341,2.341,0,0,0-.926-.4c-.651,0-1.873-1.107-1.873-1.107s-.162-.079-.385-.177h-.342a3.853,3.853,0,0,0-1.14-.333c-.326,0-.862-.462-1.279-.79h.244a1.808,1.808,0,0,0-.629-.4c-.273,0-.979-.68-.571-1.043.583-.254,1.664.326,1.179-1.361h.162c-.015-.055-.027-.109-.047-.171a2.163,2.163,0,0,0-3.03-1.256,26.054,26.054,0,0,1-4.395.171,18.713,18.713,0,0,0-3.023,1.194l-.129.062h.042a.451.451,0,0,0-.049.023c-.65.34-1.8.767-2.091.938s-1.8-.341-2.449.085a20.231,20.231,0,0,0-1.582,1.276.5.5,0,0,1-.154.082.552.552,0,0,0-.265.151,3.291,3.291,0,0,0-1.17,1.81c-.417,1.232.03,2.3-.653,2.757-.522.273-1.363.644-2.062,1.051a4.119,4.119,0,0,0-1.085.785c-.574.683-1.026,3.323-1.749,4.43s0,2.128.147,2.809a3.744,3.744,0,0,1-.147,3.149c-.648.978-.718,1.549-.921,1.771-.008,0-.013.013-.022.013-.059.015-.08.037-.089.065a.207.207,0,0,1-.047.023c-.358.084.362.425.506,1.277s-.65,1.7.72,2.468,2.62.8,2.98,1.821,1.559,3.37,1.559,3.37,1.3,1.364,1.945,1.959c.41.378.646.38.8.181a.5.5,0,0,0,.239-.28h-.1a1.885,1.885,0,0,0,.07-.241c.144-.6,1.009-.681,2.017-.681a14.546,14.546,0,0,0,2.737.085,1.692,1.692,0,0,0,.757-.377,11.409,11.409,0,0,0,1.378-1.445,3.4,3.4,0,0,1,2.767.29c.936.681.792,1.617,1.3,2.211s1.364.256,2.017-.338.357-.341,1.153.169,1.15,1.025.43,1.79-.288,1.957-.72,3.149.408,1.187,1.2,1.7,1.461,3.835,1.893,4.433-.142,2.3.363,3.32.735,1.642.154,2.151a4.394,4.394,0,0,0-1.379,3.211,7.549,7.549,0,0,0,.574,3.489c.288.6,1.009,2.211,1.373,2.811s1.6,1.7,1.671,2.632-.951,2.389-.591,2.9a11.494,11.494,0,0,0,1.222,1.96,4.74,4.74,0,0,1,.866,2.126,6.379,6.379,0,0,1,.29,1.532c.07.941.144,1.533.864,1.96s1.222.511,1.585.085a4.609,4.609,0,0,1,2.828-1.175,4.863,4.863,0,0,0,2.977-.363,2.179,2.179,0,0,0,.383-.254,6.093,6.093,0,0,0,.619-.616h-.054c.3-.345.614-.737.911-1.125h.069c.529-.69,1.006-1.359,1.264-1.662l.018-.02h-.059c.271-.308.651-.711.954-1.125h.072a1.794,1.794,0,0,0,.526-1.239,2.5,2.5,0,0,0-.151-.445h-.171a4.455,4.455,0,0,1-.4-1.123h.147a.5.5,0,0,1,.146-.514,22.812,22.812,0,0,0,2.232-.805c.2-.1.34-.218.358-.348v-.018h-.136a6.084,6.084,0,0,0-.169-1.125h.156c-.131-.609-.313-1.3-.425-1.684h-.162c-.017-.054-.035-.115-.045-.151a1.4,1.4,0,0,1,.263-.973h.082a12.624,12.624,0,0,1,.727-1.155,3.992,3.992,0,0,1,.444-.527h-.054c.419-.422.914-.824,1.276-1.125h.03a5.339,5.339,0,0,0,.537-.48,14.25,14.25,0,0,0,1.041-1.2h-.07a3.169,3.169,0,0,0,.517-1.125h.114a1.99,1.99,0,0,0,.054-.219,6.614,6.614,0,0,0-.028-1.465h-.146a6.241,6.241,0,0,1-.03-1.123h.112a1.241,1.241,0,0,1,.092-.477,1.146,1.146,0,0,0-.119-1.207h-.181a4.1,4.1,0,0,0-.41-.492,2,2,0,0,1-.38-.631h.177a9.556,9.556,0,0,1-.454-1.686H162.4a1.1,1.1,0,0,0-.1-.273,1.888,1.888,0,0,1-.047-.85h.127a5.917,5.917,0,0,1,.358-1.686h-.087a.521.521,0,0,1,.2-.239,2.861,2.861,0,0,0,.773-.884h.075c.375-.537.788-1.22,1.122-1.684h-.074c.015-.02.032-.049.047-.069.176-.233.46-.626.787-1.055h.067a17.985,17.985,0,0,1,1.395-1.686H167a2.078,2.078,0,0,1,.822-.579,2.3,2.3,0,0,0,.921-.542h.027a3.788,3.788,0,0,0,1.236-1.686h-.116c0-.023.017-.05.018-.07a3.62,3.62,0,0,1,.454-1.053h.085c.276-.512.653-1.122.993-1.684h-.084c.263-.437.492-.83.636-1.123h.094a1.821,1.821,0,0,0,.193-.482,12.43,12.43,0,0,1,.316-1.205h-.11a11.323,11.323,0,0,0,.264-1.122h.121a1.557,1.557,0,0,0-.015-1c-.36-.511-3.169.77-3.529.939-.032.015-.07.037-.11.057h.04c-.017.007-.052.025-.065.028a4.778,4.778,0,0,1-2.525.767.709.709,0,0,1-.763-.8h.136c-.023-.35.08-.745.045-1a2.847,2.847,0,0,0-.283-.69h-.184a12.113,12.113,0,0,0-.685-1.123h.2a2.5,2.5,0,0,0-.628-.738,2.828,2.828,0,0,1-.9-.946h-.2a5.11,5.11,0,0,1-.557-1.095.232.232,0,0,1-.015-.029h.172a.31.31,0,0,0-.025-.059,4.211,4.211,0,0,0-1.527-1.627h-.244a4.414,4.414,0,0,1-.807-.747,1.114,1.114,0,0,1-.167-.377h.171a5.7,5.7,0,0,1-.124-1.686h-.132c.007-.373.01-.758-.012-1.123h.139a3.366,3.366,0,0,0-.248-1.252c-.065-.136-.129-.286-.193-.432h-.174q-.241-.547-.467-1.123h.167c-.228-.583-.452-1.153-.67-1.684h-.172c-.07-.171-.142-.347-.213-.5-.1-.216-.2-.42-.308-.623h.177c-.035-.067-.069-.137-.1-.2.655-.2,1.495-.472,1.6-.025a25.037,25.037,0,0,1,1.081,2.811c.144.932.934.593,1.009,1.446a9.2,9.2,0,0,0,1.08,3.149,11.865,11.865,0,0,1,1.8,2.129,9.971,9.971,0,0,1,.718,2.468c.216,1.277.432,2.978,1.009,3.236s2.521-.425,2.879-.681a14.412,14.412,0,0,1,3.6-1.706c.866-.084,1.008-.765,2.088-1.021a3,3,0,0,0,.922-.417,10.447,10.447,0,0,0,1.806-1.538c.028-.03.059-.067.087-.1h-.054a7.912,7.912,0,0,0,.8-1.123h.082c.4-.641.74-1.314.922-1.686h-.092c.2-.405.594-.735.706-1.123h.109a.727.727,0,0,0-.037-.653,3.762,3.762,0,0,0-1.028-1.031h-.249a4,4,0,0,0-1.306-.673c-.231-.032-.355-.228-.447-.45h.174c-.171-.352-.221-.825-.457-.825a.266.266,0,0,0-.206.1c-.281.079-.271.609-.941,1.006-.4.234-.8.6-1.167.852a.8.8,0,0,1-.643.166.273.273,0,0,1-.2-.177h-.144a1.225,1.225,0,0,0-.435-1.1l-.03-.027h.218c-.02-.022-.033-.04-.054-.06-.792-.765-1.08-.937-1.08-1.532a.629.629,0,0,0-.025-.092h-.161a4.855,4.855,0,0,0-.869-1.125h.213a3.326,3.326,0,0,1-.889-1.338.971.971,0,0,1,.012-.347h-.107c.2-.753,1.1-1.483,1.4-.844.362.767.65,1.959,1.584,2.469s1.8,1.364,2.237,1.532,1.51-.936,1.872-.765,1.08,1.7,1.728,1.957a15.2,15.2,0,0,0,3.171.34c.33,0,1.6.067,2.046-.3a.549.549,0,0,0,.253-.208,1.128,1.128,0,0,1,.3-.367,1.105,1.105,0,0,1,.429-.057c.358,0,1.008,1.532,1.512,1.7s1.441.087,1.368,1.194.434,2.044.937,2.128a1.016,1.016,0,0,0,.636-.285,1.259,1.259,0,0,0,.107-.067h-.018a8.075,8.075,0,0,0,.934-.924s0,2.126-.072,2.893a18.681,18.681,0,0,0,.792,3.578s1.081,2.637,1.369,3.233,1.512,2.384,1.512,3.151.146,1.957.579,1.957c.243,0,.486-.437.742-.966h.094c.211-.432.43-.934.666-1.334.07-.119.144-.234.216-.353h-.082c.233-.378.455-.75.641-1.122h.094a4.667,4.667,0,0,0,.4-.991,3.1,3.1,0,0,0,.06-.695h-.136a11.115,11.115,0,0,0-.089-1.123h.146c-.075-.665-.174-1.3-.174-1.59,0-.032.007-.064.008-.094h-.107c.08-.521.5-.979,1.4-1.436a2.309,2.309,0,0,0,.373-.239,5.323,5.323,0,0,0,1.128-1.133h-.067c.31-.393.613-.8.931-1.123h.045a4.29,4.29,0,0,1,.316-.313,8.651,8.651,0,0,0,.993-1.373h-.059a1.756,1.756,0,0,1,1.456-.583c1.728,0,1.584,0,2.017-.511.008-.012.017-.018.025-.03h.062l.047-.059a2.655,2.655,0,0,1,.37-.37c.238-.117.445-.018.574.541a10.1,10.1,0,0,0,1.659,2.642,4.136,4.136,0,0,1,.576,2.3c-.072,1.023-.434,3.82-.072,3.82.085,0,.221-.181.377-.444h.085a16,16,0,0,0,.83-1.684h-.1c.223-.517.388-.927.388-.927s.116-.09.278-.2h0l.033-.023c.459-.293,1.249-.666,1.2.31-.074,1.358.144,2.807.144,3.656s1.3,2.9,1.3,2.384a3.277,3.277,0,0,1,.137-.71h.11c.132-.509.335-1.16.42-1.686h-.117a2.351,2.351,0,0,0,.027-.326c0-.767.357-.427,1.294.338a7.072,7.072,0,0,1,1.584,2.3s.9,2.871,1.048,3.3c.08.234.432-.407.767-1.112h.1c.288-.6.571-1.264.673-1.5.03-.069.057-.124.084-.184h-.094a1.142,1.142,0,0,1,.812-.666,2.722,2.722,0,0,0,1.16-.455h.033a1.17,1.17,0,0,0,.457-.737c.069-.3.179-.616.271-.949h-.109a3.276,3.276,0,0,0,.119-1.123h.144a2.369,2.369,0,0,0-.425-1.249c-.107-.159-.191-.29-.286-.435h-.193c-.273-.419-.517-.8-.733-1.123h.193a6.115,6.115,0,0,0-.927-1.164,2.625,2.625,0,0,1-.41-.522H219.8a7.908,7.908,0,0,1-.536-1.123h.169c-.114-.283-.182-.485-.182-.485s.591-.626,1.12-1.2h-.055c.244-.263.469-.511.6-.668.432-.512,1.083-.171,1.152.424s-.646,1.107-.79,2.384.862,1.7,1.152,1.279a.332.332,0,0,0,.136-.087c.087-.134.218-.32.353-.522h-.079a3.957,3.957,0,0,0,.6-1.095c0-.012-.007-.018-.008-.028h.129a.5.5,0,0,0,.013-.06c0-.253-.5-.169-.576-1.1a1.243,1.243,0,0,1,.082-.521h-.109c.261-.594.911-.951,1.189-.755.358.254,2.665-.338,3.748-1.021.022-.015.042-.033.064-.049s.049-.025.07-.039a4.252,4.252,0,0,0,1-.944h-.06c.3-.383.566-.783.815-1.123h.072a4.436,4.436,0,0,1,.547-.656c.226-.211.651-.586,1.1-1.028h-.045a11.642,11.642,0,0,0,1-1.125h.075a2.118,2.118,0,0,0,.616-1.338,3.191,3.191,0,0,1-.037-.347h-.141c-.022-.35-.025-.727-.047-1.125h.141a5.281,5.281,0,0,0-.321-1.684h-.169c-.023-.054-.038-.107-.067-.161a9.05,9.05,0,0,0-.546-.963h.194c-.449-.706-.887-1.22-1.1-1.594a.194.194,0,0,1-.015-.089h-.146c.111-.355,1.252-.512,1.9-1.125h.034a1.51,1.51,0,0,0,.174-.149c.722-.765,0-1.446-.357-1.364a5.555,5.555,0,0,1-1.659.258,1.252,1.252,0,0,1-.568-.429h-.216a5.919,5.919,0,0,0-.5-.507c-.214-.189-20.344,8.052-20.283,7.848l20.216-8.466a.851.851,0,0,1,.335-.527.371.371,0,0,1,.238-.044c.144.034.382-.1.643-.3a7.887,7.887,0,0,0,.961-.817h-.045c.062-.059.121-.115.169-.164.43-.427,1.083-.768.862-.341s-.72,1.959-.142,2.042a1.729,1.729,0,0,0,.941-.4c.343-.221.7-.5.968-.681.116-.075.213-.125.254-.107a2.039,2.039,0,0,1,.36,1.7c-.216.509-.216,1.361.072,1.276a.833.833,0,0,0,.264-.167,4.825,4.825,0,0,0,.432-.347h-.025c.151-.117.28-.182.337-.079a1.613,1.613,0,0,1,.506,1.7c-.362.936-1.081,1.277-.218,1.875a.938.938,0,0,0,1.269.042c.2-.121.405-.3.666-.47a1.079,1.079,0,0,0,.256-.259h-.08a3.491,3.491,0,0,0,.445-1.125h.117a2.354,2.354,0,0,0-.017-1.513c-.032-.049-.07-.11-.109-.171h-.189c-.214-.331-.491-.748-.71-1.125h.186a2.5,2.5,0,0,1-.4-.914.238.238,0,0,1,.107-.177,5.349,5.349,0,0,0,.993-.467.846.846,0,0,0,.172-.126h-.054a.427.427,0,0,0,.085-.249,1.43,1.43,0,0,1,.31-.874h.085a2.007,2.007,0,0,1,.75-.663c.347-.174.757-.738,1.051-.971.074-.028.139-.03.181.039.2.318,1.338.7,1.781.333a.492.492,0,0,0,.224-.166c.047-.064.119-.152.209-.256h-.055c.258-.295.636-.691,1.068-1.123h.049c.557-.564,1.192-1.18,1.744-1.684h-.039c.1-.087.193-.177.278-.254a5.3,5.3,0,0,0,.785-.871h.08a5.938,5.938,0,0,0,.874-1.686h-.105c.092-.281.171-.562.239-.847.023-.1.052-.181.079-.276h.105c.174-.651.375-1.179.482-1.684h-.131a2.725,2.725,0,0,0,.04-.934c-.012-.069-.039-.125-.05-.189h.005a1.217,1.217,0,0,0,.045.189,6.581,6.581,0,0,1,.432,2.98,13.025,13.025,0,0,0,.146,3.149c.144.254.716.852,1.08.681.03-.015.045-.052.064-.089.023,0,.049.01.072,0a.236.236,0,0,0,.1-.169h-.124a4.167,4.167,0,0,0-.114-1.125h.151c-.075-.4-.161-.777-.161-.917a1.242,1.242,0,0,1,.511-.767.7.7,0,0,1,.149-.082c.162-.047.139-.526.025-1.043h.154a4,4,0,0,0-.407-1.174,3.85,3.85,0,0,0-.373-.511h-.206c-.191-.231-.3-.373-.129-.424a.986.986,0,0,0,.485-.7h.119c.04-.139.038-.265-.039-.325-.216-.169-.072-.765-.574-.594-.276.094-.911-.008-1.185.259a.442.442,0,0,0-.206.181c-.228-.611-.631-1.016-1.132-.951-.651.084-1.009.511-1.657.511-.387,0-.363-.424-.342-.767h-.132c.008-.189.007-.338-.1-.338-.154,0-.414.316-.676.519-.177.1-.35.124-.482-.1a.3.3,0,0,1-.022-.085h-.157c-.05-.564,1.152-1.23,2.131-1.616a2.279,2.279,0,0,0,.415-.234,7.36,7.36,0,0,0,1.142-.958h-.049c.4-.392.788-.792,1.142-1.123h.039a5.8,5.8,0,0,1,.631-.544.811.811,0,0,1,.283-.12c.718-.085,2.525.171,4.108.085s2.088-.852,2.593-.425a3.688,3.688,0,0,0,2.233.852c.357-.047.432-.049.593-.174a7.7,7.7,0,0,0,.912-.765c.264-.223.522-.417.77-.593h-.012a8.094,8.094,0,0,0,1.4-1.123h.054c.077-.082.166-.157.231-.243a2.024,2.024,0,0,1,.457-.422c.588-.36,1.3-.486,1.354,0,.074.678-.144,1.359.432,1.359s1.438-.681,2.163-1.018a8.79,8.79,0,0,0,1.02-.581c.1-.059.166-.105.229-.149-.238.193-2.8,2.257-3.564,2.809-.509.331-1.42.6-2.183,1.051h.013a3.092,3.092,0,0,0-1.066.867c-.718,1.023-1.15,1.364-1.08,2.469s1.3,2.555.72,3.578a8.5,8.5,0,0,0-.79,2.468,10.449,10.449,0,0,1,.678-.958h.065a8.556,8.556,0,0,1,1.478-1.515c.07-.054.136-.114.2-.169h-.054a8.791,8.791,0,0,0,1.085-1.123h.069c.479-.588.827-1.137,1.076-1.43a1.041,1.041,0,0,1,.285-.211c.551-.28,1.309-.439,1.309-.892a2.074,2.074,0,0,1,.035-.276h.124a8.6,8.6,0,0,1,.492-1.684h-.107c.012-.028.022-.059.03-.085.182-.574-.244-.547-.122-1.038h.117a1.229,1.229,0,0,1,.141-.41c.249-.491.35-.917.788-1.2A3.786,3.786,0,0,1,270.275,305.761Zm-94.667,14.978c-.434.219-1.5.373-1.887-.082a.681.681,0,0,0-.951.02,1.366,1.366,0,0,0-.695,1.088c-.072.939.288.254.72.6a4.171,4.171,0,0,1,.864,1.363c.29.511.792.338,1.152.767s-1.008.936-.43,1.446.864,2.553.936,3.062c.015.109-.057.2-.167.285a3.842,3.842,0,0,1-1.788.313c-.5-.085-2.016-.683-2.521-.852a.621.621,0,0,1-.288-.345h-.174a3.01,3.01,0,0,1-.187-1.125h.131a1.087,1.087,0,0,1,.146-.63c.032-.008.057-.035.094-.028a.912.912,0,0,0,.787-.2,4.887,4.887,0,0,0,.862-.822l0,0h-.084c.435-.621-.8-.946-1.431-1.123h.44c-.208-.062-.4-.111-.514-.151-.308-.1-.8-.84-1.222-1.533h-.187c-.249-.415-.467-.8-.6-1.018a.911.911,0,0,1-.03-.105h.156a1.543,1.543,0,0,1,.3-1.684h-.044a2.82,2.82,0,0,1,.415-.424c.432-.342,1.584.425,2.158,0,.318-.233.628-.486.884-.7h.032c.209-.176.375-.318.5-.419a2.328,2.328,0,0,1,1.83.778C175.025,319.718,175.882,320.48,175.608,320.739ZM153.1,324.467h.127c.03-.348.008-.673-.179-.747-.268-.105-.146-.542.089-.937h-.077a2.121,2.121,0,0,1,.43-.507,3.1,3.1,0,0,0,.532-.616h.08a11.756,11.756,0,0,0,.891-1.515,1.372,1.372,0,0,1,.1-.169h-.06a1.15,1.15,0,0,1,1.19-.594c.365.085,1.155,1.617,1.371,2.129.147.347.527.141.847-.077.2-.125.4-.28.514-.352a1.965,1.965,0,0,0,.79-1.1v0h-.087c.147-.37.728-.594,1.393-.594.522,0,.326.355-.012.616a1.356,1.356,0,0,1-.285.147.459.459,0,0,0-.194.115c-.407.177-.116.5.708.825a20.3,20.3,0,0,1,2.593,1.872c.936.593,1.08,1.786.506,1.957a11.261,11.261,0,0,1-2.955.256,6.113,6.113,0,0,1-1.51-.7h.316a3.635,3.635,0,0,0-1.048-.407,3.374,3.374,0,0,0-2.044.187,1.068,1.068,0,0,0-.539.41c-.365.6-1.662.342-2.235.342s-1.3.852-1.441.512A5.936,5.936,0,0,0,153.1,324.467Zm3.42,42.125a2.084,2.084,0,0,1,.131-.479.41.41,0,0,1,.11-.125c.435-.238,1.256-.251,1.413.042.3.564-.444,2.168-1.076,2.6a.355.355,0,0,1-.229.032c-.281-.074-.392-.482-.42-.951H156.3a4.782,4.782,0,0,1,.1-1.123Zm-.119-60.659c-.589-.146-1.182-.552-1.038-1.023.015-.047.044-.064.064-.1h.077a.647.647,0,0,1,.164-.268c.666-.346,2.014.723,1.713,1.219a.433.433,0,0,1-.214.172Z" transform="translate(19.513 -276.199)" fill="#fff"/>
    <path id="Path_6133" data-name="Path 6133" d="M175.263,288.171h.114c.075-.3-.142-.367-.144-.154-.084-.131-.278-.028-.052.4A.616.616,0,0,0,175.263,288.171Z" transform="translate(60.457 -276.411)" fill="#fff"/>
    <path id="Path_6134" data-name="Path 6134" d="M149.5,294.4a8.722,8.722,0,0,1,2.16.767,2.142,2.142,0,0,0,2.28.233,1.069,1.069,0,0,0,.3-.234.9.9,0,0,0,.193-.676h-.151c-.06-.338-.258-.636-.462-.683a.434.434,0,0,1-.3-.44h.142c-.049-.271.1-.655.656-1.009.224-.142.46-.3.695-.45a5.95,5.95,0,0,1,2.195-.994,15.153,15.153,0,0,1,4.4,0,1.516,1.516,0,0,0,1.2-.355h.013a5.088,5.088,0,0,0,1.445-1.435.309.309,0,0,0,.037-.249h-.177a1.07,1.07,0,0,0-1.58,0,.667.667,0,0,1-.107.1,4.354,4.354,0,0,1-2.712.154c-.43-.171-3.889.681-4.61.681a.829.829,0,0,0-.5.193c-.484.268-.832,1.011-1.649,1.425l-.5.259h-.03c-.877.464-1.815.984-2.215,1.187-.023.012-.044.039-.069.052l-.065.035C149.566,293.208,149.062,294.231,149.5,294.4Z" transform="translate(43.102 -275.989)" fill="#fff"/>
    <path id="Path_6135" data-name="Path 6135" d="M196.451,314.663c-.012,0-.023.017-.035.017a5.682,5.682,0,0,0-1.721.784,2.824,2.824,0,0,0-.648.494c-.432.511-2.521-.425-2.809,0a9,9,0,0,1-1.224,1.274c-.258.131-.645.147-.869.34-.229.115-.382.31-.285.768.216,1.025.72,1.959,1.152,1.959a.947.947,0,0,0,.509-.181,1.011,1.011,0,0,0,.541-.593h-.122a1.642,1.642,0,0,0,.082-.5c0-.936,1.006,0,1.51-.085a1,1,0,0,0,.656-.536h.087a3.248,3.248,0,0,0,.333-.732.684.684,0,0,0,.511.5.882.882,0,0,0,.849-.112.809.809,0,0,0,.44-.658c0-.033.034-.07.08-.109.44-.243,1.435-.542,1.656-.738.273-.243,1.3-.631,1.482-.961h.075a.354.354,0,0,0,.094-.149c.04-.194.038-.919.092-1.535h-.127c.044-.422.117-.778.26-.845.171-.084.372-.129.479-.28h.055c.188-.146.251-.424-.11-1.169-.085-.177-.156-.348-.219-.516h-.167a6.674,6.674,0,0,0-.452-1.123h.184c-.149-.276-.325-.375-.645-.151-.012.008-.018.027-.03.035a.678.678,0,0,0-.1.054c-.531.377-.216,1.872-.648,2.895A8.319,8.319,0,0,1,196.451,314.663Z" transform="translate(69.73 -261.709)" fill="#fff"/>
    <path id="Path_6136" data-name="Path 6136" d="M184.447,341.165a.221.221,0,0,0,.188-.179c.072-.511-.792-1.279-1.152-1.279a3.433,3.433,0,0,1-.576-.1H182.4c-.588-.146-1.214-.323-1.214-.323a4.38,4.38,0,0,0-.783.4.336.336,0,0,0-.049-.079h-.239a.71.71,0,0,0-.082-.069c-.794-.509-1.729,0-2.019-.68a1.3,1.3,0,0,0-.229-.375h.2c-.218-.3-.472-.31-.688-.126a.65.65,0,0,0-.291.246,1.092,1.092,0,0,0,.358,1.53,3.065,3.065,0,0,0,1.731.254,2.52,2.52,0,0,0,1.118-.331.731.731,0,0,0,.07-.049.665.665,0,0,0,.181.3,1.87,1.87,0,0,0,1.8.767C183.059,340.994,184.211,341.481,184.447,341.165Z" transform="translate(61.627 -242.474)" fill="#fff"/>
    <path id="Path_6137" data-name="Path 6137" d="M183.647,340.725a.622.622,0,0,0,1,.594.466.466,0,0,0,.239-.273h-.109a.65.65,0,0,0,.018-.067A.591.591,0,0,0,183.647,340.725Z" transform="translate(66.225 -241.104)" fill="#fff"/>
    <path id="Path_6138" data-name="Path 6138" d="M183.692,338.521c.388.286,1-.457,1.451-.8h.017c.052-.042.1-.079.147-.112.144-.079.261-.084.331.06.286.6-.075.852.43,1.621a1.647,1.647,0,0,0,1.441.678l0-.085a.982.982,0,0,0,.137,0,7.2,7.2,0,0,0-.124-1.038h-.154a3.239,3.239,0,0,0-.425-1.123h.194a1.127,1.127,0,0,0-.353-.393c-.512-.331-.9-.691-.859-.862a.931.931,0,0,1,.36.013,1.289,1.289,0,0,0,1.085-.179.586.586,0,0,0,.285-.263h-.114a.5.5,0,0,0-.028-.321c-.214-.512-1.585-.258-2.019-.172a1.95,1.95,0,0,1-1.08-.34c-.432.169-.358.6-.5,1.445S183.117,338.1,183.692,338.521Z" transform="translate(66.108 -244.52)" fill="#fff"/>
    <path id="Path_6139" data-name="Path 6139" d="M189.2,333.483c-.661-.333-1.872,2.809-1.006,3.065.248.074.474-.13.665-.459h.084a4.377,4.377,0,0,0,.542-1.686h-.126C189.407,333.942,189.365,333.565,189.2,333.483Z" transform="translate(69.099 -245.696)" fill="#fff"/>
    <path id="Path_6140" data-name="Path 6140" d="M183.844,332.735c-1.368,0-1.44,1.277-1.728,1.535-.045.039-.09.067-.137.1a4.518,4.518,0,0,1-.882.321.8.8,0,0,0-.343.209,2.106,2.106,0,0,0-.656,1.155c-.142.424-1.148-.767-1.44-.429s-.074,1.96.432,3.32a3.689,3.689,0,0,0,2.16,2.215,5.555,5.555,0,0,1,1.589.169c.5.169,2.16.34,2.088-.425-.005-.037-.008-.08-.013-.119h.144a5.747,5.747,0,0,1,.012-1.684h-.11a1.99,1.99,0,0,1,.472-.921c.065-.072.132-.139.2-.2h.05c.561-.571,1.076-.978,1.053-1.686H186.6a2.075,2.075,0,0,0-.087-.41,5.756,5.756,0,0,0-.3-.711h.176c-.352-.75-.723-1.267-.323-1.674l.015-.012h-.034c.472-.427.964-.614.964-1.008,0-.3-.6.4-1.011-.116h.219c-.213-.182-.392-.616-.444-1.587a.207.207,0,0,0-.033-.1h-.209a.3.3,0,0,0-.246,0h-.047c-.03.018-.06.04-.09.062a1.442,1.442,0,0,0-.735.886C184.348,332.225,185.214,332.735,183.844,332.735Z" transform="translate(62.785 -247.587)" fill="#fff"/>
    <path id="Path_6141" data-name="Path 6141" d="M183.9,327.014c.434,1.021,1.947,1.788,1.585,2.215s-1.438,1.276-1.585,2.041c-.044.236.117.2.358.027a7.907,7.907,0,0,0,1.56-1.487h-.067a5.8,5.8,0,0,0,.385-.5c.464-.7,1.349-.407,1.656-.688a.346.346,0,0,0,.209-.164l.214-.427a10.935,10.935,0,0,1-1.441-.425c-.636-.251-1.4.639-1.1-.6h-.112a1.991,1.991,0,0,1,.76-1.123h.03c.365-.313.7-.472.566-1.081a1.99,1.99,0,0,0-.228-.6h-.2a1.246,1.246,0,0,0-.857-.584c-.506,0,.07.939-.65,1.533S183.474,325.99,183.9,327.014Z" transform="translate(66.326 -252.335)" fill="#fff"/>
    <path id="Path_6142" data-name="Path 6142" d="M82.758,297.625a.645.645,0,0,0-.244.142c-.552.283.089.839.541.626a.534.534,0,0,0,.117-.08l.018-.005C83.669,298.081,83.43,297.4,82.758,297.625Z" transform="translate(-2.083 -269.881)" fill="#fff"/>
    <path id="Path_6143" data-name="Path 6143" d="M177.307,288.73h-.069C177.307,288.747,177.348,288.757,177.307,288.73Z" transform="translate(61.915 -275.847)" fill="#fff"/>
    <path id="Path_6144" data-name="Path 6144" d="M81.107,297.285a.706.706,0,0,0-.27.213c-.191.249.8.6,1.033.3a.262.262,0,0,0,.159-.107C82.205,297.386,81.583,296.9,81.107,297.285Z" transform="translate(-3.085 -270.178)" fill="#fff"/>
    <path id="Path_6145" data-name="Path 6145" d="M91.659,306.529c-.045-.057-.119-.057-.224,0Z" transform="translate(4.075 -263.878)" fill="#fff"/>
    <path id="Path_6146" data-name="Path 6146" d="M38.942,298.8c-.085.035-.208.089-.429.169a.082.082,0,0,0-.064.059c-.025.01-.044.015-.072.025-.293.107.5.681.792.681a.352.352,0,0,0,.219-.131c.229-.112.5-.6.336-.8Z" transform="translate(-31.734 -269.062)" fill="#fff"/>
    <path id="Path_6147" data-name="Path 6147" d="M39.5,302.28c-.33.092-.266.824-.591,1.155a.459.459,0,0,1-.11.057,3.815,3.815,0,0,0-.882.325h.044c-.429.189-.69.415-.3.532a2.9,2.9,0,0,0,2.017-.343.975.975,0,0,0,.064-.189h.109c.127-.4.229-1.522.032-1.6A.294.294,0,0,0,39.5,302.28Z" transform="translate(-32.306 -266.782)" fill="#fff"/>
    <path id="Path_6148" data-name="Path 6148" d="M75.009,289.633a.571.571,0,0,0-.372.357c-.211.6,1.922.909,1.682.228a.827.827,0,0,0-.231-.326h.228A1.062,1.062,0,0,0,75.009,289.633Z" transform="translate(-7.259 -275.324)" fill="#fff"/>
    <path id="Path_6149" data-name="Path 6149" d="M70.626,289.162c-.007.008-.008.023-.017.032a.477.477,0,0,0-.117.055c-.363.377,0,1.53-.146,1.647s.049.624.434.509c.326-.094.514-.884.74-1.12h.065c.02-.028.04-.049.059-.07h0c.29,0,1.778-.4,2.017.226s.241.338.912.4a1.191,1.191,0,0,0,.974-.554h.064a1.534,1.534,0,0,0,.347-.611c.049-.286-.337-.854-1.249-.738S71.011,288.765,70.626,289.162Z" transform="translate(-10.173 -275.719)" fill="#fff"/>
    <path id="Path_6150" data-name="Path 6150" d="M75.519,290.819a2.927,2.927,0,0,0-1.969.06c-.337.171-1.344-.285-1.873.11-.01.008-.012.022-.02.03a.8.8,0,0,0-.114.059.705.705,0,0,0,.383,1.133c.529.059,1.441-.4,1.535-.054s.434,1.872,1.3,1.361c.047-.03.084-.057.126-.085l.008,0a2.628,2.628,0,0,0,.521-.393h-.054c.258-.288.3-.5.455-.541.105-.025.1-.281.044-.583h.152A2.014,2.014,0,0,0,75.519,290.819Z" transform="translate(-9.447 -274.54)" fill="#fff"/>
    <path id="Path_6151" data-name="Path 6151" d="M39.858,294.8h.208c-.067-.069-.072-.072-.072-.072Z" transform="translate(-30.694 -271.805)" fill="#fff"/>
    <path id="Path_6152" data-name="Path 6152" d="M216.016,360.15c-.1-.353-.221-.73-.367-1.125h.169c-.2-.551-.432-1.13-.675-1.684h-.171c-.176-.4-.352-.773-.521-1.123h.177c-.211-.444-.415-.849-.584-1.153-.1-.179-.186-.355-.268-.532h-.157a9.381,9.381,0,0,1-.432-1.125h.147a6.656,6.656,0,0,1-.331-1.684h-.121c0-.087-.017-.2-.01-.276.047-.484-.926-.643-1.815-.847h.526a4.242,4.242,0,0,1-1.647-.559,2.415,2.415,0,0,1-.542-1.123h-.157c-.09-.362-.167-.75-.243-1.125h.152a8.938,8.938,0,0,0-.288-1.158,3.778,3.778,0,0,0-.246-.526h-.176a7.637,7.637,0,0,0-.79-1.125h.206c-.254-.315-.522-.629-.8-.986a3.661,3.661,0,0,1-.4-.7h-.171c-.162-.372-.3-.77-.415-1.123h.162c-.214-.646-.362-1.158-.47-1.071a.288.288,0,0,0-.074.112c-.022-.017-.044-.04-.062-.027-.218.171-.864,2.64-.362,3.405s-.216,2.3-.574,3.321c-.256.716-.758.34-1.284-.124h.234c-.254-.218-.519-.47-.763-.646-.539-.385-1.239-.67-1.77-1.038h-.234a2.431,2.431,0,0,1-.365-.321.862.862,0,0,1-.023-.8h.107c.147-.544.517-1.2.593-1.684h-.119a.549.549,0,0,0-.05-.321c-.362-.6-2.307-.084-2.521-.084-.162,0-.447-.479-.76-.718h.234a.694.694,0,0,0-.422-.223.189.189,0,0,0-.141.09c-.316.012-.358.949-.358,1.43-.04-.055-.075-.1-.131-.174h-.2c-.186-.241-.437-.557-.743-.919-.65-.765.072.514-.576,1.279s-.432.512-.722,1.363c-.249.742-.772.576-1.331-.039h.221a4.578,4.578,0,0,1-.338-.388c-.46-.606-.775-.48-1.076-.265-.171.1-.331.249-.5.35-.422.25-.772,1.626-.988,2.007-.479.116-2.21-.626-2.538-.238-.007.008-.008.022-.013.028a.3.3,0,0,0-.122.06c-.358.424.059,3.162.059,3.506,0,.022-.023.04-.037.06-.405.146-1.44.105-1.843.445a.67.67,0,0,1-.077.05h.008c-.022.015-.049.023-.067.039-.506.427-1.3.171-1.8.171s-2.235,1.616-2.811,2.042-1.559,1.957-1.269,2.384,1.845,1.445,1.485,1.617-.576,1.361.288,2.384a2.053,2.053,0,0,1,.648,1.788c.074.509.432.681,1.011,1.53s-1.011,1.534-1.225,2.046.5,1.276.934,1.7,1.513.171,2.165-.085a4.134,4.134,0,0,0,.713-.4c.027-.018.055-.033.082-.052h-.005a3.752,3.752,0,0,1,1.008-.569,15.6,15.6,0,0,1,2.886.718l.018-.124.117.035.007-.06h-.121c.032-.216.1-.648.209-1.125h.112a5.056,5.056,0,0,1,.584-1.662c.005-.008.017-.013.025-.02h-.035c.594-.482,1.962.023,1.962.023a6.826,6.826,0,0,1,2.377-.939c1.729-.424,1.009.429,1.657.685a7.571,7.571,0,0,1,2.017.849c.506.429,0,1.451-.072,1.875s1.225.255,1.3-.169a1.377,1.377,0,0,1,.326-.641h.075a3.861,3.861,0,0,1,.825-.762c.584-.342.08.839.357,1.572.29.765.722-1.04.722-.169,0,.254.216.511.285.765s1.011.34,1.011,1.19,0,1.364.216,1.534,1.369,0,1.873,1.019c.263.534.486.532.68.35.238-.094.437-.521.609-.775.012-.015.03-.02.044-.035.4-.122,1.162.345,1.406.633.124.146.347.034.639-.162.161-.1.348-.231.563-.377a3.846,3.846,0,0,1,.959-.482c1.08-.34.938-.258,1.225-.767a4.242,4.242,0,0,0,.273-.723h.107a13.944,13.944,0,0,1,.6-1.686H213a4.99,4.99,0,0,1,.265-.484,4.81,4.81,0,0,1,.536-.641h.047c.47-.506,1.123-1.083,1.647-1.682h-.06a3.723,3.723,0,0,0,.706-1.125h.105a1.531,1.531,0,0,0,.124-.569,4.715,4.715,0,0,0-.194-1.113Z" transform="translate(63.843 -240.548)" fill="#fff"/>
    <path id="Path_6153" data-name="Path 6153" d="M196.332,307.8a.672.672,0,0,0-.3.2,1.688,1.688,0,0,0-.552,1.164c0,.1-.318.244-.661.422h-.032c-.075.04-.146.087-.216.132a.427.427,0,0,0-.047.028c-.025.018-.054.033-.08.052-.365.233-.628.5-.331.814.646.681,1.3.169,2.305.082a8.577,8.577,0,0,0,1.945-.422s.861.045,1.19-.3a.473.473,0,0,0,.244-.388h-.137a.414.414,0,0,0,0-.079c-.214-.852-1.8-.939-2.089-.852-.094.025-.213-.067-.347-.193h.228C197.157,308.222,196.765,307.674,196.332,307.8Z" transform="translate(73.201 -263.004)" fill="#fff"/>
    <path id="Path_6154" data-name="Path 6154" d="M202.243,339.726a3.8,3.8,0,0,1-.434-.614h-.191a2.485,2.485,0,0,0-1.244-1.123h.37a1.619,1.619,0,0,0-.377-.137,8.07,8.07,0,0,1-2.518-1.363,2.879,2.879,0,0,0-.4-.184h-.405c-1.271-.392-3.094-.341-3.154.018l0,.022c-.018-.017-.023-.017-.049-.04H193.6a2.1,2.1,0,0,0-.574-.321c-.862-.343-1.512,0-1.729-.6a.91.91,0,0,0-.1-.2h.179a.557.557,0,0,0-.887-.248,1.522,1.522,0,0,0-.564.45c-.542.64-.794.683.432.939s1.584.254,1.08.934-.864,1.532-.432,1.616,1.729-.34,1.873,0-.286.425,1.153.685a2.667,2.667,0,0,1,2.016,1.189c.238.283.86,1.08.745,1.351-.012,0-.017.012-.033.012a.923.923,0,0,0-.519.2c-.427.233-.743.753-.407.82.432.085,1.728-.253,1.8,0s.8,1.873,1.513,1.79a.7.7,0,0,0,.337-.166c.02-.01.044-.012.064-.023h-.037a3.625,3.625,0,0,0,.742-1.123h.094a4.973,4.973,0,0,1,.447-.819.9.9,0,0,1,.119-.1c.542-.295,1.574-.375,1.691.27A2.973,2.973,0,0,0,204.053,345c.81.48,1.736.948,1.912.655a.179.179,0,0,0,.171-.147,2.27,2.27,0,0,0-.122-.78h-.157a3.818,3.818,0,0,0-.536-1.123h.2a1.034,1.034,0,0,0-.4-.4,3.647,3.647,0,0,1-1.182-1.291h-.191a2.173,2.173,0,0,1-.347-.919.569.569,0,0,0-.038-.2h.152C203.41,340.3,202.647,340.118,202.243,339.726Z" transform="translate(70.17 -244.787)" fill="#fff"/>
    <path id="Path_6155" data-name="Path 6155" d="M199.895,359.186h-.013a1.964,1.964,0,0,0-.894.417c-.015.008-.03.017-.045.027-.367.234-.727.469-.884.434a10.494,10.494,0,0,1-1.152-.425.946.946,0,0,0-.075.112c-.035-.015-.059-.023-.059-.023-.8.934.794.934.576,1.872s1.08.6,1.441.427a3.055,3.055,0,0,0,.708-1.152h.1A3.406,3.406,0,0,0,200,359.3.152.152,0,0,0,199.895,359.186Z" transform="translate(74.932 -228.354)" fill="#fff"/>
    <path id="Path_6156" data-name="Path 6156" d="M187.51,327.342H187.2a.894.894,0,0,0-.264-.072c-.288-.023-1.225,1.786.07,1.7a.988.988,0,0,0,.537-.184A.812.812,0,0,0,187.51,327.342Z" transform="translate(68.05 -249.867)" fill="#fff"/>
    <path id="Path_6157" data-name="Path 6157" d="M183.552,331.693h.2C183.739,331.623,183.664,331.646,183.552,331.693Z" transform="translate(66.171 -246.916)" fill="#fff"/>
    <path id="Path_6158" data-name="Path 6158" d="M213.816,359.255h-.233c-.164-.139-.3-.226-.325-.139a.692.692,0,0,1-.32.365c-.139.085-.293.172-.444.278a2.068,2.068,0,0,0-.385.29c-.434.427,0,.6-1.227,1.448s-2.739,1.788-3.027,2.551.288,1.194,1.441,1.277c.753.059.892.179,1.118-.023.121-.045.228-.164.432-.429h-.067l.176-.226a10.5,10.5,0,0,1,.778-.9h.049c.546-.584,1.1-1.061,1.756-1.659a.338.338,0,0,0,.023-.027h-.054a2.863,2.863,0,0,0,.666-1.123h.105a3.364,3.364,0,0,0,.2-.981S214.121,359.545,213.816,359.255Z" transform="translate(82.506 -228.423)" fill="#fff"/>
    <path id="Path_6159" data-name="Path 6159" d="M214.985,358.666a.4.4,0,0,0-.253-.144,1.048,1.048,0,0,0-.372.144h-.415a1.255,1.255,0,0,1-.291-.144c-.611-.4-.526-.285-.874-.979h.179c-.033-.067-.067-.132-.109-.214a11.6,11.6,0,0,0-.648-1.472h-.236a.407.407,0,0,0-.477.027c-.288.169,0,1.107.288,1.445a3.469,3.469,0,0,1,.362,1.873c-.07.341-1.3.767-.722,1.19s1.659,0,1.515.512-.722,1.194-.072,1.361a.563.563,0,0,0,.583-.157,1.407,1.407,0,0,0,.479-.636h-.092c.06-.134.119-.266.182-.4.127-.263.243-.506.372-.727h.087a2.214,2.214,0,0,1,.681-.81.589.589,0,0,0,.04-.874Z" transform="translate(84.852 -230.64)" fill="#fff"/>
    <path id="Path_6160" data-name="Path 6160" d="M215.461,344.464c-.172-.069-.4.034-.623.209a6.917,6.917,0,0,0-1.461,1.666c.526.238,1.259-.268,1.7-.8h.07C215.557,345.085,215.768,344.584,215.461,344.464Z" transform="translate(86.276 -238.292)" fill="#fff"/>
    <path id="Path_6161" data-name="Path 6161" d="M89.21,328.343h.768A1.333,1.333,0,0,0,89.21,328.343Z" transform="translate(2.575 -249.182)" fill="#fff"/>
    <path id="Path_6162" data-name="Path 6162" d="M189.484,341.787h.193C189.517,341.618,189.484,341.645,189.484,341.787Z" transform="translate(70.17 -240.16)" fill="#fff"/>
    <path id="Path_6163" data-name="Path 6163" d="M185.6,328a.344.344,0,0,0-.085.079c-.017.005-.032,0-.047.01-.248.1-.864,1.617-.07,1.617s2.16.254,1.87-.171a8.978,8.978,0,0,0-.673-.966h.2C186.461,328.157,186.042,327.811,185.6,328Z" transform="translate(67.148 -249.41)" fill="#fff"/>
    <path id="Path_6164" data-name="Path 6164" d="M208.906,348.617a1.007,1.007,0,0,0-.623-1.041h-.31a3.766,3.766,0,0,0-.645-.233c-1.3-.34-.434.256,0,1.023.348.614.971.983,1.277.676A.487.487,0,0,0,208.906,348.617Z" transform="translate(81.737 -236.402)" fill="#fff"/>
    <path id="Path_6165" data-name="Path 6165" d="M150.947,342.558h-.184a.706.706,0,0,0-.35-.321c-.9-.306-1.008,1.108-1.728,2.044a7.725,7.725,0,0,1-1.386,1.453.42.42,0,0,1-.28.075,1.363,1.363,0,0,0-.807.295,1.311,1.311,0,0,0-.7,1.664,3.365,3.365,0,0,1-.074,3.152c-.5.6.432,2.3.29,3.236s.216,1.53,1.225,1.53a1.736,1.736,0,0,0,.867-.209h0a1.094,1.094,0,0,0,.112-.067,1.114,1.114,0,0,0,.137-.079,2.609,2.609,0,0,0,.817-1.266c.033-.09.055-.182.087-.275h-.105c.124-.378.224-.755.311-1.125h.114a9.665,9.665,0,0,1,.5-1.684h-.1a8.536,8.536,0,0,0,.383-1.123h.11c.166-.578.316-1.2.44-1.682h-.112a4.969,4.969,0,0,1,.176-.576,5.1,5.1,0,0,0,.189-.549H151a10.96,10.96,0,0,0,.37-1.684h-.121a4.38,4.38,0,0,0,.033-.832c-.008-.1-.018-.194-.03-.293h.142A4.848,4.848,0,0,0,150.947,342.558Z" transform="translate(40.38 -239.807)" fill="#fff"/>
    <path id="Path_6166" data-name="Path 6166" d="M125.655,299.534h-.177c-.116-.273-.221-.651-.348-.939-.022-.049-.049-.11-.074-.184h.169c-.154-.382-.373-1.164.01-1.5a.757.757,0,0,1,.223-.07c.825-.1,2.288.917,2.56.489.117-.032.2-.107.188-.293-.005-.1,0-.2-.007-.308h-.137a8.325,8.325,0,0,1,.052-1.123h.122a2.886,2.886,0,0,1,.233-.954,6.046,6.046,0,0,1,.547-.73h-.089a.141.141,0,0,0-.065-.2c-.31-.166-.7.229-1.009-.623a1.5,1.5,0,0,1-.074-.3h.156a1.781,1.781,0,0,1,.666-1.607c.017-.015.05-.055.072-.077h-.052c.226-.243.606-.668,1.048-1.125h.052a11.022,11.022,0,0,1,1.577-1.416,1.92,1.92,0,0,1,.375-.189,2.078,2.078,0,0,0,1.232-1.2h.1c.149-.357.126-.686-.189-.812a3.1,3.1,0,0,0-2.754-.1,1.744,1.744,0,0,0-.41.3c-.922.911-1.448,1.759-2.5,1.477a1.607,1.607,0,0,1-.951-.864h.182c-.32-.534-.522-1.21-.847-1.684h-.191l-.008-.012a2.746,2.746,0,0,1-.457-1.112h.152c-.144-.613-.169-1.261-.288-1.682h-.171c-.094-.264-.233-.427-.5-.377l-.922.169a4.993,4.993,0,0,0-1.749-.059,3.319,3.319,0,0,0-.681.266h-.04c-.432.226-.775.442-1.093.357a3.288,3.288,0,0,0-2.116.408,6.885,6.885,0,0,1-3.69-.111,9.447,9.447,0,0,0,2.223-.059c1.045-.182,2.8-.606,3.665-.775s.169-.574-.136-.614c-.469-.06-1.046-.193-1.649-.331h.517a19.268,19.268,0,0,0-2.863-.519,27.861,27.861,0,0,0-2.766.343,16.079,16.079,0,0,0-2.669.176h.41a3.859,3.859,0,0,0-1.853.621,3.978,3.978,0,0,1-.989.5h-.132a5.875,5.875,0,0,0-.943.273l-.022.034a.3.3,0,0,0-.114.054c-.526.68-1.008,2.382-1.49,1.93a2.094,2.094,0,0,1-.39-.608h.179c-.234-.464-.407-.934-.84-.616-.013.012-.017.027-.028.039a.456.456,0,0,0-.107.049c-.616.454-.044,1.589-.573,2.384a1.054,1.054,0,0,1-.224.239,2.4,2.4,0,0,1-2.1.072c-.44-.283-.879-.511-2.637-.4a6.809,6.809,0,0,0-2.961.8c-.41.233-.621.5-.467.767a.462.462,0,0,1-.089.618c-.29.174-.706.218-.872.033a.324.324,0,0,0-.1-.05H93.4a1.9,1.9,0,0,0-.522.239c-.42.221-.817.6-.77.976.089.68-.219,1.473-.966,1.3a1.066,1.066,0,0,0-1.318.963.564.564,0,0,1-.266.37,4.81,4.81,0,0,1-1.443.507,5.438,5.438,0,0,0-1.413.134H87c-.509.064-.944.211-.517.579.529.455.835.174,1.495.34s1.184,1.421,1.537,1.592a.843.843,0,0,0,.876-.154.9.9,0,0,0,.313-.275,4.884,4.884,0,0,0,.363-.959h-.109c.08-.271.136-.486.136-.486s0,1.133.527,1.361,1.845-.171,2.2-.114a14.276,14.276,0,0,1,2.987.737c.571.342,1.974.569,2.371,1.306s.44,3.291.658,3.576c.06.079.162.04.28-.057a2.2,2.2,0,0,0,.66-.706H100.7c.124-.179.228-.343.28-.427.176-.286,1.1-.114,1.406.281s1.008,1.364.964,1.761-.176,1.02-.439.792-.7-.169-.526-.624c.012-.027.02-.065.03-.1h.107c.174-.459.256-1.406-.092-1.406h-.66a.82.82,0,0,0-.747.174,1.219,1.219,0,0,0-.484.537c-.44.85-.089,1.7.219,1.7s1.009,0,1.009.226-.745.911-.7,1.307a9.809,9.809,0,0,0,.792,2.042c.174.283,1.1.569,1.359.626a.045.045,0,0,1,.027.012.8.8,0,0,0-.221.122c-.154.07-.308.182-.2.375.223.4.571,1.361,1.053,1.589a6.317,6.317,0,0,1,2.021,1.7c.176.454,1.23-.34,1.451-.4s.172,1.19.79,1.247a1.181,1.181,0,0,0,1-.3l.027-.013h-.01c.1-.085.211-.187.34-.313a1.335,1.335,0,0,0,.39-.81h.122a8.617,8.617,0,0,0,.06-.979,1.428,1.428,0,0,1,.136-.678.624.624,0,0,1,.3.025c.569.171.877-.112.834-.68a3.028,3.028,0,0,0-.1-.5h.156c-.082-.325-.161-.638.067-.839a1.179,1.179,0,0,1,.273-.08,2.549,2.549,0,0,0,.862-.36c.084-.05.162-.1.239-.147a1.748,1.748,0,0,1,.877-.4c.571,0,2.15.285,2.325,0,.08-.129.283-.552.522-.979h.085a4.268,4.268,0,0,1,.695-1,.39.39,0,0,1,.109-.05,16.6,16.6,0,0,0,2.893-.01c1.142-.224,2.374-1.076,2.767-1.023s1.359.059,1.053-.281c-.1-.114-.218-.276-.35-.44h.2c-.281-.36-.645-.782-1.123-.782-.338,0-.529-.455-.614-.9h-.147c-.064-.393-.047-.76.032-.76.176,0,1.78.671,1.736,1.239s.263,1.3,1.142,1.081a1,1,0,0,0,.372-.182.86.86,0,0,0,.335-1.212A1.067,1.067,0,0,1,125.655,299.534Z" transform="translate(0.62 -281.035)" fill="#fff"/>
    <path id="Path_6167" data-name="Path 6167" d="M83.967,319.848a.453.453,0,0,0-.254.126c-.5.182-.326.969.408.812.616-.132.489-.621.1-.792H84.5A.681.681,0,0,0,83.967,319.848Z" transform="translate(-1.324 -254.875)" fill="#fff"/>
    <path id="Path_6168" data-name="Path 6168" d="M89.1,322.873a3.547,3.547,0,0,0-1.657.085,1.06,1.06,0,0,0-.316.164,10.018,10.018,0,0,0-1.477,1.289,8.21,8.21,0,0,0,1.3.166c.506,0,.794.341,1.225.6s1.225-.341,1.512-.341c.233,0,.509.645.646.323.1.04.169-.039.2-.42H90.4a1.51,1.51,0,0,0-.38-1.123h.209A2.249,2.249,0,0,0,89.1,322.873Z" transform="translate(0.174 -252.88)" fill="#fff"/>
    <path id="Path_6169" data-name="Path 6169" d="M83.958,324.2c-.542.266-.372,1.6.378,1.333a.647.647,0,0,0,.249-.154c.613-.36.208-1.446-.4-1.314A.421.421,0,0,0,83.958,324.2Z" transform="translate(-1.18 -252.038)" fill="#fff"/>
    <path id="Path_6170" data-name="Path 6170" d="M188.631,334.051h-.142c-.01-.042-.03-.07-.074-.07a4.269,4.269,0,0,0-.5.07h-.325c-.663.132-1.435.3-1.565.355a7.162,7.162,0,0,1-1.515-.171,1.113,1.113,0,0,0-.065.1.527.527,0,0,1-.069-.012c-.5.594-.142,1.192.648,1.108s2.453-.341,2.811-.341a.4.4,0,0,0,.249-.144A1.422,1.422,0,0,0,188.631,334.051Z" transform="translate(66.573 -245.343)" fill="#fff"/>
    <path id="Path_6171" data-name="Path 6171" d="M180.5,343.04a1.152,1.152,0,0,0,.062-.4,9.064,9.064,0,0,1,.094-1.291h-.121a3.19,3.19,0,0,1,.37-1.123h.079a1.493,1.493,0,0,1,.08-.137c.363-.514.218-1.279-.358-1.192-.218.034-.422-.117-.646-.355h-.209c-.276-.311-.581-.738-.961-1.123h.214a4.229,4.229,0,0,0-.415-.4c-.561-.46-1.046-.829-1.532-1.291h-.214a9.6,9.6,0,0,1-.909-1c-.035-.044-.072-.077-.109-.117h.214a11.107,11.107,0,0,0-1.738-1.686h-.239a8.7,8.7,0,0,1-.651-.581,2.578,2.578,0,0,0-.79-.542h.308a1.993,1.993,0,0,0-1.184-.313.257.257,0,0,0-.182.125c-.695.293,1.353,2.016,1.56,2.262s2.163,2.211,2.163,3.151a12.673,12.673,0,0,0,.986,4.189c.362.343,2.833.919,3.121,1.6.251.591.773.8.906.219Z" transform="translate(58.061 -247.03)" fill="#fff"/>
    <path id="Path_6172" data-name="Path 6172" d="M189.461,330.546a5.34,5.34,0,0,0-1.153-1.446c-.035.052-.057.082-.089.131l-.047-.045a5.6,5.6,0,0,1-.763,1.02c-.216.1-.378-.074-.76-.256a1.026,1.026,0,0,0-.959.174c-.527.263-.974.827-.834,1.107.218.425,1.8-.085,2.165.68s.358.85,1.08.681a1.09,1.09,0,0,0,.367-.182,2.016,2.016,0,0,0,.7-.681h-.082a1.421,1.421,0,0,0,.238-1.092l-.015-.032h.159A.291.291,0,0,0,189.461,330.546Z" transform="translate(67.032 -248.634)" fill="#fff"/>
    <path id="Path_6173" data-name="Path 6173" d="M187.335,339.654a.528.528,0,0,0-.259.211c-.432.683-1.224,1.364-1.15,1.959.059.494.5.318.9.045a3.911,3.911,0,0,0,.449-.318h-.033c.157-.134.264-.236.264-.236s1.155-.171,1.155-.767a.52.52,0,0,0-.027-.121h.154C188.753,339.883,187.817,339.242,187.335,339.654Z" transform="translate(67.767 -241.608)" fill="#fff"/>
    <path id="Path_6174" data-name="Path 6174" d="M185.487,319.8a.927.927,0,0,0-.427.228c-.882.568-1.351,2.747-.571,2.67a.658.658,0,0,0,.357-.187,2.658,2.658,0,0,0,.869-1.354h-.109a1.617,1.617,0,0,0,.045-1.123h.189A.288.288,0,0,0,185.487,319.8Z" transform="translate(66.536 -254.91)" fill="#fff"/>
    <path id="Path_6175" data-name="Path 6175" d="M175.3,330.718a9.764,9.764,0,0,0-1.334-1.631h-.219c-.142-.146-.239-.241-.239-.241-.576.085-.576,1.363-.288,1.79s.866.171,1.225,1.7A19.23,19.23,0,0,0,175.809,336c.29.594,1.515,1.445,1.945,1.87a.469.469,0,0,0,.686-.01.587.587,0,0,0,.29-.345h-.121a.528.528,0,0,0-.06-.326c-.129-.228-.313-.507-.486-.8h.188a3.3,3.3,0,0,1-.507-1.164,3.21,3.21,0,0,0-.112-.522h-.164a8.1,8.1,0,0,0-.444-1.123h.174c-.134-.291-.285-.594-.46-.909a5.751,5.751,0,0,0-.526-.775H176a6.465,6.465,0,0,1-.84-1.092.127.127,0,0,0-.02-.032h.188A.632.632,0,0,1,175.3,330.718Z" transform="translate(59.076 -248.805)" fill="#fff"/>
  </g>
  <g id="Group_1495" data-name="Group 1495" transform="translate(0 5.808)" opacity="0.5">
    <path id="Path_6176" data-name="Path 6176" d="M210.585,318.868c31.312,12.243,66.79,26.106,131.891,31.076v-.368C277.449,344.609,242,330.758,210.723,318.525c-30.378-11.878-56.616-22.133-101.256-18.665-41.226,3.206-69.706,3.614-76.036,3.665v.368c6.331-.052,34.825-.46,76.065-3.666C154.054,296.765,180.252,307.006,210.585,318.868Z" transform="translate(-33.43 -245.782)" fill="#fff"/>
    <path id="Path_6177" data-name="Path 6177" d="M200.852,311.164c-29.165-15.2-54.35-28.326-95.32-25.147-40.713,3.167-66.063,10.838-72.1,12.827v.388c5.8-1.922,31.182-9.665,72.132-12.849,40.863-3.172,66,9.931,95.118,25.1,31.257,16.294,66.395,34.617,128.971,34.615,4.145,0,8.432-.09,12.825-.259v-.365C271.869,348.17,234.142,328.517,200.852,311.164Z" transform="translate(-33.43 -254.975)" fill="#fff"/>
    <path id="Path_6178" data-name="Path 6178" d="M106.873,290.993c41.789-3.246,67.138,8.859,96.494,22.88,32.734,15.633,69.8,33.341,139.11,33.343v-.368c-69.214,0-106.252-17.692-138.949-33.3-29.406-14.046-54.8-26.173-96.684-22.917-40.873,3.179-67.257,8.469-73.413,9.79v.373C39.408,299.507,65.821,294.184,106.873,290.993Z" transform="translate(-33.43 -251.905)" fill="#fff"/>
    <path id="Path_6179" data-name="Path 6179" d="M110.805,304.868c46.784-3.636,72.522,5.36,105.105,16.751,28.87,10.092,64.769,22.636,126.566,29.719v-.368c-61.728-7.081-97.6-19.614-126.442-29.7-32.625-11.406-58.393-20.417-105.258-16.77-41.377,3.216-70.927,1.127-77.347.586v.367C39.934,306,69.478,308.081,110.805,304.868Z" transform="translate(-33.43 -242.745)" fill="#fff"/>
    <path id="Path_6180" data-name="Path 6180" d="M198.532,308.82c-27.809-15.706-54.07-30.539-94.311-27.413-40.542,3.152-64.873,13.162-70.791,15.85v.4c5.625-2.575,29.983-12.711,70.82-15.887,40.127-3.114,66.341,11.69,94.1,27.367,30.266,17.094,64.113,36.214,122.2,36.214q10.414,0,21.924-.867v-.37C270.719,349.574,232.374,327.933,198.532,308.82Z" transform="translate(-33.43 -258.044)" fill="#fff"/>
    <path id="Path_6181" data-name="Path 6181" d="M342.476,384.136c-39.437-24.345-69.03-36.445-93.043-38.036-22.142-1.463-37.49,5.789-55.287,14.19-17.233,8.134-36.765,17.357-66.325,19.656-24.367,1.89-49.055-9.4-65.479-19.209A206.588,206.588,0,0,1,33.43,339.848v.49a207.455,207.455,0,0,0,28.716,20.71c16.472,9.839,41.235,21.169,65.7,19.264,29.627-2.3,49.194-11.54,66.455-19.689,34.637-16.356,62.034-29.273,148.172,23.945Z" transform="translate(-33.43 -218.365)" fill="#fff"/>
    <path id="Path_6182" data-name="Path 6182" d="M108.154,295.24C67.1,298.431,39.674,301.3,33.43,301.975v.368c6.156-.661,33.6-3.537,74.754-6.737,42.969-3.343,68.653,7.8,98.392,20.712,32.072,13.919,68.412,29.677,135.9,32.253v-.367c-67.409-2.573-103.714-18.32-135.751-32.223C176.941,303.055,151.222,291.887,108.154,295.24Z" transform="translate(-33.43 -248.841)" fill="#fff"/>
    <path id="Path_6183" data-name="Path 6183" d="M112.116,310.133c50.106-3.892,75.842,4.12,111.46,15.214,27.648,8.607,62.024,19.311,118.9,28.009v-.373c-56.812-8.692-91.162-19.386-118.789-27.991-35.657-11.1-61.421-19.127-111.6-15.226-41.516,3.226-72.145-1.4-78.658-2.5v.372C40.1,308.767,70.7,313.351,112.116,310.133Z" transform="translate(-33.43 -240.331)" fill="#fff"/>
    <path id="Path_6184" data-name="Path 6184" d="M33.43,292.881a77.463,77.463,0,0,1,15.151-10.495c10.152-5.53,27.368-12.516,51.736-14.411,38.568-2.99,64.679,15.089,92.32,34.239,18.271,12.661,37.167,25.753,60.983,33.929a153.272,153.272,0,0,0,50.3,8.139,206.819,206.819,0,0,0,38.553-3.845v-.377c-74.21,14.081-114.271-13.649-149.628-38.146-27.7-19.19-53.864-37.311-92.559-34.3-24.445,1.9-41.717,8.913-51.9,14.461A78.8,78.8,0,0,0,33.43,292.384Z" transform="translate(-33.43 -267.282)" fill="#fff"/>
    <path id="Path_6185" data-name="Path 6185" d="M191.809,356.928c-17.1,6.993-36.489,14.92-65.3,17.16-24.362,1.9-48.7-8.53-64.826-17.608A196.541,196.541,0,0,1,33.43,337.147v.477A197.344,197.344,0,0,0,61.493,356.8c16.174,9.105,40.585,19.557,65.044,17.658,28.87-2.243,48.284-10.182,65.414-17.186,35.3-14.432,63.212-25.838,150.525,24.69v-.42c-40.009-23.136-70-34.831-94.267-36.737C225.771,343.04,210.034,349.475,191.809,356.928Z" transform="translate(-33.43 -220.185)" fill="#fff"/>
    <path id="Path_6186" data-name="Path 6186" d="M113.4,315.6C71.762,318.836,40.041,311.654,33.43,310v.378c6.835,1.708,38.5,8.821,80,5.593,55.418-4.309,80.653,2.759,122.459,14.471,25.656,7.19,57.552,16.122,106.59,25.5v-.375c-48.983-9.375-80.851-18.3-106.491-25.482C194.142,318.364,168.883,311.286,113.4,315.6Z" transform="translate(-33.43 -238.487)" fill="#fff"/>
    <path id="Path_6187" data-name="Path 6187" d="M194.586,304.207c-27.7-18.022-53.853-35.046-92.986-32-40.153,3.12-62.5,17.65-68.169,21.829v.457c5.252-3.917,27.591-18.763,68.2-21.922,39-3.03,65.113,13.955,92.755,31.942,18,11.709,36.606,23.817,60.145,31.635a168.735,168.735,0,0,0,53.717,8.362,228.258,228.258,0,0,0,34.23-2.724v-.377C268.965,352.584,229.454,326.893,194.586,304.207Z" transform="translate(-33.43 -264.201)" fill="#fff"/>
    <path id="Path_6188" data-name="Path 6188" d="M128.392,332.258q-5.316.419-11.061.867c-41.945,3.264-76.974-11.746-83.9-14.951v.405c7.3,3.362,42.192,18.161,83.931,14.913q5.751-.444,11.061-.867c79.286-6.254,89.678-7.07,214.054,31.1v-.387C283.04,345.1,247.447,335.108,218.549,331.2,190.267,327.377,168.289,329.111,128.392,332.258Z" transform="translate(-33.43 -232.975)" fill="#fff"/>
    <path id="Path_6189" data-name="Path 6189" d="M167.939,339.417c-13.456,1.831-28.708,3.906-47.985,5.4-24.373,1.893-46.938-4.175-61.575-9.6A162.975,162.975,0,0,1,33.43,323.607v.427a164.14,164.14,0,0,0,24.812,11.528c14.674,5.439,37.292,11.528,61.741,9.624,19.287-1.5,34.545-3.574,48.007-5.4,48.454-6.591,72.864-9.9,174.487,29.143v-.393C240.868,329.5,216.425,332.82,167.939,339.417Z" transform="translate(-33.43 -229.313)" fill="#fff"/>
    <path id="Path_6190" data-name="Path 6190" d="M154.443,335.714c-10.378,1.028-22.14,2.2-35.8,3.258-42.028,3.268-78.172-14.384-85.214-18.08v.414c7.453,3.892,43.43,21.283,85.242,18.033,13.664-1.063,25.428-2.23,35.806-3.258,58.306-5.782,78.08-7.739,188,30.243v-.388c-54.3-18.758-87.2-27.886-113.347-31.451C202.91,330.906,183.627,332.82,154.443,335.714Z" transform="translate(-33.43 -231.143)" fill="#fff"/>
    <path id="Path_6191" data-name="Path 6191" d="M196.466,306.505c-27.73-16.858-53.92-32.781-93.556-29.7-40.354,3.137-63.685,15.434-69.48,18.852v.427c5.436-3.236,28.783-15.745,69.509-18.912,39.505-3.065,65.657,12.82,93.335,29.648,17.705,10.766,36.015,21.9,59.263,29.359a188.168,188.168,0,0,0,58.08,8.674,255.8,255.8,0,0,0,28.86-1.719v-.368C269.766,351.05,230.832,327.4,196.466,306.505Z" transform="translate(-33.43 -261.121)" fill="#fff"/>
    <path id="Path_6192" data-name="Path 6192" d="M116.02,327.284c-41.853,3.254-75.772-9.127-82.59-11.833v.4c7.152,2.819,40.962,15.038,82.619,11.8,79.952-6.214,94.709-2.212,190.739,23.839,10.616,2.878,22.619,6.134,35.689,9.641v-.38c-13.031-3.5-25-6.745-35.591-9.616C210.8,325.066,196.031,321.062,116.02,327.284Z" transform="translate(-33.43 -234.81)" fill="#fff"/>
    <path id="Path_6193" data-name="Path 6193" d="M114.709,321.441c-41.752,3.246-74.566-6.524-81.279-8.715v.387c6.994,2.272,39.733,11.93,81.308,8.694,64.5-5.014,86.109.67,143.866,15.859,21.475,5.647,48.166,12.665,83.873,20.869v-.377c-35.66-8.195-62.322-15.208-83.779-20.848C200.894,322.109,179.264,316.419,114.709,321.441Z" transform="translate(-33.43 -236.648)" fill="#fff"/>
    <path id="Path_6194" data-name="Path 6194" d="M189.095,353.533c-16.887,5.873-36.023,12.532-63.9,14.7-24.368,1.885-48.346-7.659-64.175-16.008A187.242,187.242,0,0,1,33.43,334.442v.47a188.272,188.272,0,0,0,27.412,17.635c15.874,8.374,39.931,17.958,64.386,16.051,27.921-2.17,47.082-8.838,63.988-14.719,37.426-13.021,64.513-22.433,153.261,25.47v-.414c-40.731-21.969-71.18-33.261-95.714-35.483C223.988,341.395,207.818,347.019,189.095,353.533Z" transform="translate(-33.43 -222.009)" fill="#fff"/>
    <path id="Path_6195" data-name="Path 6195" d="M185.82,350.1c-16.533,4.783-35.27,10.207-61.933,12.281-24.37,1.89-47.995-6.789-63.524-14.406A179.528,179.528,0,0,1,33.43,331.738v.457a180.262,180.262,0,0,0,26.762,16.1c15.573,7.637,39.268,16.349,63.723,14.446,26.7-2.076,45.459-7.507,62.007-12.3,38.262-11.069,65.953-19.073,156.554,26.292v-.407c-41.663-20.849-72.671-31.763-97.47-34.294C221.834,339.673,205.144,344.5,185.82,350.1Z" transform="translate(-33.43 -223.832)" fill="#fff"/>
    <path id="Path_6196" data-name="Path 6196" d="M176.114,343.054C161.06,345.8,144,348.9,121.263,350.671c-24.368,1.893-47.288-5.046-62.221-11.2A166.96,166.96,0,0,1,33.43,326.321v.435a167.8,167.8,0,0,0,25.461,13.05c14.973,6.172,37.954,13.135,62.4,11.232,22.756-1.77,39.827-4.878,54.887-7.622,43.485-7.919,69.8-12.7,166.3,28.113v-.4C246,330.335,219.647,335.128,176.114,343.054Z" transform="translate(-33.43 -227.483)" fill="#fff"/>
    <path id="Path_6197" data-name="Path 6197" d="M181.684,346.61c-15.971,3.735-34.073,7.967-59.108,9.914-24.375,1.893-47.642-5.918-62.874-12.8A172.364,172.364,0,0,1,33.43,329.03v.449A173.534,173.534,0,0,0,59.541,344.05c15.273,6.907,38.615,14.74,63.063,12.839,25.063-1.947,43.18-6.184,59.164-9.922,40.7-9.516,67.652-15.81,160.707,27.169v-.407C249.433,330.776,222.441,337.079,181.684,346.61Z" transform="translate(-33.43 -225.657)" fill="#fff"/>
  </g>
</svg>
