<svg xmlns="http://www.w3.org/2000/svg" width="55.83" height="18.137" viewBox="0 0 55.83 18.137">
  <g id="Group_1565" data-name="Group 1565" transform="translate(-648.228 -493.144)">
    <path id="Path_6776" data-name="Path 6776" d="M1197.167,516.271h-4.71c-.049-.843-.1-1.665-.146-2.51-.108-.01-.2-.026-.294-.026-1.729,0-3.458.005-5.187-.007a.485.485,0,0,0-.522.336q-.439,1-.924,1.985a.449.449,0,0,1-.305.235c-1.558.014-3.117.008-4.676.005a.6.6,0,0,1-.134-.042c.306-.579.6-1.146.9-1.712q2.171-4.074,4.343-8.147,1.888-3.542,3.781-7.081a.417.417,0,0,1,.3-.2c1.984-.012,3.968-.009,6.021-.009Zm-9.112-5.728h4.056q-.153-4.246-.3-8.359Z" transform="translate(-493.109 -5.522)" fill="#fff"/>
    <path id="Path_6777" data-name="Path 6777" d="M653.271,515.635c-.157-1.364-.313-2.68-.46-4-.185-1.657-.364-3.315-.546-4.972-.165-1.5-.322-3-.5-4.5a3.414,3.414,0,0,0-1.541-2.8,6.978,6.978,0,0,0-1.54-.5,2.34,2.34,0,0,0-.446-.042c-.041-.295.029-.434.352-.432q3.58.014,7.161,0c.291,0,.371.1.387.375.146,2.492.307,4.983.457,7.474.07,1.162.127,2.325.194,3.575a4.638,4.638,0,0,1,.181-.5c.606-1.191,1.182-2.4,1.835-3.564,1.332-2.378,2.7-4.733,4.069-7.092a.512.512,0,0,1,.344-.246c1.486-.016,2.971-.009,4.457-.007a.8.8,0,0,1,.149.039c-.374.664-.739,1.314-1.106,1.964q-3.395,6.006-6.79,12.011c-.563,1-1.125,1.992-1.7,2.982-.058.1-.187.226-.285.227C656.4,515.64,654.855,515.635,653.271,515.635Z" transform="translate(0 -4.864)" fill="#fff"/>
    <path id="Path_6778" data-name="Path 6778" d="M1001.408,495.239l-2.506,2.944c-.519-.336-1-.682-1.516-.974a3.914,3.914,0,0,0-2.879-.489,2.524,2.524,0,0,0-1,.5,1.2,1.2,0,0,0,.127,1.956c.731.58,1.532,1.072,2.31,1.593a9.9,9.9,0,0,1,2.655,2.368,3.984,3.984,0,0,1,.326,4.371,6.306,6.306,0,0,1-5.32,3.686,13.229,13.229,0,0,1-8.253-1.685c-.095-.054-.185-.115-.317-.2l2.205-3.379c.384.222.753.428,1.114.647a7.369,7.369,0,0,0,4.039,1.047,2.065,2.065,0,0,0,2.008-1.143,1.013,1.013,0,0,0-.211-1.359,7.225,7.225,0,0,0-1.163-.873,18.26,18.26,0,0,1-3.307-2.386,4.254,4.254,0,0,1-1.055-4.79,5.418,5.418,0,0,1,4.118-3.609,10.093,10.093,0,0,1,8.492,1.664A1.6,1.6,0,0,1,1001.408,495.239Z" transform="translate(-312.163 0)" fill="#fff"/>
    <path id="Path_6779" data-name="Path 6779" d="M879.187,515.484c.2-.66.383-1.286.572-1.912q2.041-6.757,4.083-13.514c.158-.524.316-1.048.495-1.565a.37.37,0,0,1,.25-.222c1.459-.014,2.919-.01,4.434-.01-.1.354-.175.678-.272,1q-2.424,7.99-4.847,15.981c-.059.195-.127.282-.341.281-1.388-.009-2.776-.005-4.164-.007A2.008,2.008,0,0,1,879.187,515.484Z" transform="translate(-214.058 -4.744)" fill="#fff"/>
  </g>
</svg>
